SplineFontDB: 3.2
FontName: Sahel-Light
FullName: Sahel Light
FamilyName: Sahel Light
Weight: Light
Copyright: Copyright (c) 2016 by Saber Rastikerdar. All Rights Reserved.\nBased on DejaVu font.\nNon-Arabic(Latin) glyphs and data are imported from Open Sans font under the Apache License, Version 2.0.
Version: 3.4.0
ItalicAngle: 0
UnderlinePosition: -500
UnderlineWidth: 100
Ascent: 1638
Descent: 410
InvalidEm: 0
LayerCount: 2
Layer: 0 0 "Back" 1
Layer: 1 0 "Fore" 0
PreferredKerning: 4
XUID: [1021 502 1027637223 13792896]
UniqueID: 4233098
UseUniqueID: 1
FSType: 0
OS2Version: 1
OS2_WeightWidthSlopeOnly: 0
OS2_UseTypoMetrics: 1
CreationTime: 1431850356
ModificationTime: 1582306744
PfmFamily: 33
TTFWeight: 300
TTFWidth: 5
LineGap: 0
VLineGap: 0
Panose: 2 11 6 3 3 8 4 2 2 4
OS2TypoAscent: 2200
OS2TypoAOffset: 0
OS2TypoDescent: -1000
OS2TypoDOffset: 0
OS2TypoLinegap: 0
OS2WinAscent: 2200
OS2WinAOffset: 0
OS2WinDescent: 1000
OS2WinDOffset: 0
HheadAscent: 2200
HheadAOffset: 0
HheadDescent: -1000
HheadDOffset: 0
OS2SubXSize: 1331
OS2SubYSize: 1433
OS2SubXOff: 0
OS2SubYOff: 286
OS2SupXSize: 1331
OS2SupYSize: 1433
OS2SupXOff: 0
OS2SupYOff: 983
OS2StrikeYSize: 102
OS2StrikeYPos: 530
OS2CapHeight: 1638
OS2XHeight: 1082
OS2Vendor: '    '
OS2CodePages: 00000041.20080000
OS2UnicodeRanges: 80002003.80000000.00000008.00000000
Lookup: 1 9 0 "Single Substitution 1" { "Single Substitution 1 subtable"  } []
Lookup: 1 9 0 "'fina' Terminal Forms in Arabic lookup 9" { "'fina' Terminal Forms in Arabic lookup 9 subtable"  } ['fina' ('DFLT' <'dflt' > 'arab' <'FAR ' 'KUR ' 'URD ' 'dflt' > ) ]
Lookup: 1 9 0 "'medi' Medial Forms in Arabic lookup 11" { "'medi' Medial Forms in Arabic lookup 11 subtable"  } ['medi' ('DFLT' <'dflt' > 'arab' <'FAR ' 'KUR ' 'URD ' 'dflt' > ) ]
Lookup: 1 9 0 "'init' Initial Forms in Arabic lookup 13" { "'init' Initial Forms in Arabic lookup 13 subtable"  } ['init' ('DFLT' <'dflt' > 'arab' <'FAR ' 'KUR ' 'URD ' 'dflt' > ) ]

StartChar: exclam
Encoding: 33 33 1
GlifName: exclam
Width: 561
GlyphClass: 2
Flags: HW
LayerCount: 2
Fore
SplineSet
315.034179688 465.0078125 m 2
 314.786132812 461.290039062 317.8125 457 290 457 c 2
 270 457 l 2
 244.209960938 457 245.233398438 461.7265625 244.962890625 466.063476562 c 2
 183 1243.59667969 l 1
 183 1270 l 2
 183 1346.80664062 206.891601562 1375 255 1375 c 2
 288.88671875 1375 l 2
 346.986328125 1374.12011719 369 1357.1484375 369 1273 c 0
 369 1263.85351562 369.0078125 1254.82910156 368.05078125 1245.25488281 c 2
 315.034179688 465.0078125 l 2
281 1 m 0
 218.391601562 1 165 54.390625 165 117 c 0
 165 179.608398438 218.390625 233 281 233 c 0
 344.580078125 233 396 180.84375 396 117 c 0
 396 54.23828125 343.498046875 1 281 1 c 0
EndSplineSet
EndChar

StartChar: period
Encoding: 46 46 2
GlifName: period
Width: 562
GlyphClass: 2
Flags: HW
LayerCount: 2
Fore
SplineSet
281 1 m 0
 218.391601562 1 165 54.390625 165 117 c 0
 165 179.608398438 218.390625 233 281 233 c 0
 344.689453125 233 397 180.688476562 397 117 c 0
 397 54.3916015625 343.609375 1 281 1 c 0
EndSplineSet
EndChar

StartChar: colon
Encoding: 58 58 3
GlifName: colon
Width: 561
GlyphClass: 2
Flags: HW
LayerCount: 2
Fore
SplineSet
281 591 m 0
 218.391601562 591 165 644.390625 165 707 c 0
 165 769.608398438 218.390625 823 281 823 c 0
 344.580078125 823 396 770.84375 396 707 c 0
 396 644.23828125 343.498046875 591 281 591 c 0
281 1 m 0
 218.391601562 1 165 54.390625 165 117 c 0
 165 179.608398438 218.390625 233 281 233 c 0
 344.580078125 233 396 180.84375 396 117 c 0
 396 54.23828125 343.498046875 1 281 1 c 0
EndSplineSet
EndChar

StartChar: uni060C
Encoding: 1548 1548 5
GlifName: afii57388
Width: 562
GlyphClass: 2
Flags: HW
LayerCount: 2
Fore
SplineSet
282 1 m 0
 206.294921875 1 165 63.658203125 165 130 c 0
 165 324.080078125 278.11328125 463.268554688 378.525390625 503.0546875 c 4
 397.30078125 510.494140625 413.133789062 510.209960938 419.069335938 508.086914062 c 5
 417.540039062 505.426757812 413.512695312 500.676757812 405.951171875 494.962890625 c 4
 325.620117188 434.200195312 278.086914062 338.303710938 277.000976562 248.180664062 c 2
 276.829101562 233.900390625 l 1
 291.083007812 233.028320312 l 2
 378.60546875 227.669921875 397 163.209960938 397 120 c 0
 397 59.5595703125 355.436523438 1 282 1 c 0
EndSplineSet
EndChar

StartChar: uni0615
Encoding: 1557 1557 6
GlifName: uni0615
Width: 0
GlyphClass: 4
Flags: HW
AnchorPoint: "Anchor-10" 702 1946 mark 0
AnchorPoint: "Anchor-9" 702 1946 mark 0
AnchorPoint: "Anchor-1" 554 2839 basemark 0
AnchorPoint: "Anchor-1" 702 1946 mark 0
LayerCount: 2
Fore
SplineSet
998 2467.5 m 0
 1104.68798423 2467.5 1162.5 2402.99153575 1162.5 2284 c 0
 1162.5 2087.32875507 967.284085278 2025.5 727 2025.5 c 2
 424.513263957 2025.5 l 1
 379.463263957 2110.5 l 1
 504 2110.5 l 1
 511.5 2110.5 l 1
 511.5 2118 l 1
 511.5 2781.5 l 1
 598.5 2781.5 l 1
 598.5 2169 l 1
 598.5 2144.95819752 l 1
 612.169705947 2164.73564442 l 2
 752.908406534 2368.3575942 882.375664376 2467.5 998 2467.5 c 0
1077.5 2274 m 0
 1077.5 2332.82048604 1049.28166362 2365.5 996 2365.5 c 0
 910.426824878 2365.5 802.307283418 2282.88509399 670.214700411 2122.77287216 c 2
 660.089580878 2110.5 l 1
 676 2110.5 l 1
 778 2110.5 l 2
 929.924362593 2110.5 1077.5 2141.98095826 1077.5 2274 c 0
EndSplineSet
EndChar

StartChar: uni061B
Encoding: 1563 1563 7
GlifName: uni061B_
Width: 562
GlyphClass: 2
Flags: HW
LayerCount: 2
Fore
SplineSet
282 455 m 0
 206.294921875 455 165 517.658203125 165 584 c 0
 165 778.080078125 278.11328125 917.268554688 378.525390625 957.0546875 c 4
 397.30078125 964.494140625 413.133789062 964.209960938 419.069335938 962.086914062 c 5
 417.540039062 959.426757812 413.512695312 954.676757812 405.951171875 948.962890625 c 4
 325.620117188 888.200195312 278.086914062 792.303710938 277.000976562 702.180664062 c 2
 276.829101562 687.900390625 l 1
 291.083007812 687.028320312 l 2
 378.60546875 681.669921875 397 617.209960938 397 574 c 0
 397 513.559570312 355.436523438 455 282 455 c 0
282.974609375 0.900390625 m 0
 220.100585938 0.900390625 166.875 54.125 166.875 117 c 0
 166.875 179.874023438 220.099609375 233.099609375 282.974609375 233.099609375 c 0
 346.772460938 233.099609375 398.125 181.046875 398.125 117 c 0
 398.125 53.9794921875 345.744140625 0.900390625 282.974609375 0.900390625 c 0
EndSplineSet
EndChar

StartChar: uni061F
Encoding: 1567 1567 8
GlifName: uni061F_
Width: 914
GlyphClass: 2
Flags: HW
LayerCount: 2
Fore
SplineSet
530.974609375 0.900390625 m 0
 468.100585938 0.900390625 414.875 54.125 414.875 117 c 0
 414.875 179.874023438 468.099609375 233.099609375 530.974609375 233.099609375 c 0
 594.772460938 233.099609375 646.125 181.046875 646.125 117 c 0
 646.125 53.9794921875 593.744140625 0.900390625 530.974609375 0.900390625 c 0
478 1219 m 0
 359.369140625 1219 261 1159.34667969 261 1031 c 0
 261 951.067382812 298.09375 917.805664062 403.79296875 820.0078125 c 2
 445.75 781.047851562 l 2
 530.958007812 700.681640625 573 599.1875 573 515 c 2
 573 472 l 2
 573 458.109375 569.502929688 456 560 456 c 2
 500 456 l 2
 489.578125 456 489 456.256835938 489 468 c 2
 489 509 l 2
 489 568.879882812 437.969726562 652.4921875 342.123046875 725.90625 c 2
 265.073242188 784.944335938 l 2
 163.374023438 862.197265625 116 943.533203125 116 1044 c 0
 116 1249.33300781 259.868164062 1376 466 1376 c 0
 650.26953125 1376 794 1247.92773438 794 1040 c 0
 794 1026.87011719 793.916992188 1011.76464844 793.225585938 999.82421875 c 1
 741.282226562 999.159179688 l 1
 710.56640625 1143.24414062 620.618164062 1219 478 1219 c 0
EndSplineSet
EndChar

StartChar: uni0621
Encoding: 1569 1569 9
GlifName: uni0621
Width: 835
GlyphClass: 2
Flags: HW
AnchorPoint: "Anchor-7" 439.249 -70.3096 basechar 0
AnchorPoint: "Anchor-10" 417.528 913.01 basechar 0
LayerCount: 2
Fore
SplineSet
717.478515625 277.23828125 m 2
 704.001953125 167.733398438 l 1
 518.762695312 140.668945312 322.315429688 85.9580078125 116.024414062 6.3154296875 c 1
 116.765625 134.55859375 l 1
 263.037109375 185.927734375 l 1
 287.467773438 194.5078125 l 1
 267.87109375 211.432617188 l 2
 209.194335938 262.107421875 180.997070312 320.854492188 180.997070312 389.799804688 c 0
 180.997070312 539.651367188 290.234375 668.6796875 453.3671875 668.6796875 c 0
 533.391601562 668.6796875 602.008789062 642.6171875 657.56640625 592.62890625 c 1
 627.7578125 497.244140625 l 1
 560.002929688 519.540039062 506.48046875 531.280273438 464.526367188 531.280273438 c 0
 349.244140625 531.280273438 281.197265625 428.498046875 281.197265625 392.58984375 c 0
 281.197265625 343.893554688 414.875976562 248.3203125 459.876953125 248.3203125 c 0
 493.014648438 248.3203125 545.154296875 260.802734375 591.080078125 272.987304688 c 2
 684.916992188 297.143554688 l 2
 703.051757812 301.759765625 715.1875 303.44921875 718.682617188 303.15234375 c 0
 719.364257812 299.475585938 719.114257812 290.596679688 717.478515625 277.23828125 c 2
EndSplineSet
EndChar

StartChar: uni0627
Encoding: 1575 1575 15
GlifName: uni0627
Width: 454
GlyphClass: 2
Flags: HW
AnchorPoint: "Anchor-10" 198 1475 basechar 0
AnchorPoint: "Anchor-7" 205 -239 basechar 0
LayerCount: 2
Fore
SplineSet
127.307617188 1286.29199219 m 1
 263.661132812 1368.10449219 l 2
 268.001657616 1370.65482592 268.447566312 1360.49949749 269.030273438 1352.05273438 c 4
 284.014648438 1115.29589844 292 897.602539062 292 697 c 0
 292 290.391601562 287.499023438 89.599609375 283.012695312 67.4951171875 c 1
 263.107421875 25.00390625 229.50390625 2.47265625 181.859375 -2.1689453125 c 1
 175.760742188 664.811523438 157.381835938 1078.75390625 127.307617188 1286.29199219 c 1
EndSplineSet
Substitution2: "'fina' Terminal Forms in Arabic lookup 9 subtable" uniFE8E
EndChar

StartChar: uni062D
Encoding: 1581 1581 21
GlifName: uni062D_
Width: 1296
GlyphClass: 2
Flags: HW
AnchorPoint: "Anchor-10" 660 1066 basechar 0
AnchorPoint: "Anchor-7" 701 -837 basechar 0
LayerCount: 2
Fore
SplineSet
786 -515 m 0
 902.58984375 -515 1031.35839844 -508.59765625 1165.18554688 -488.146484375 c 1
 1122.31054688 -583.868164062 l 2
 1105.125 -622.236328125 1099.90332031 -635.147460938 1064.87890625 -640.150390625 c 0
 997.005859375 -649.846679688 910.493164062 -655 808 -655 c 0
 411.174804688 -655 138 -518.811523438 138 -179 c 0
 138 184.115234375 430.1328125 455.407226562 778.157226562 530.3359375 c 2
 840.93359375 543.8515625 l 1
 778.666015625 559.544921875 l 2
 654.478515625 590.844726562 457.631835938 628 389 628 c 0
 314.62890625 628 244.758789062 586.79296875 180.904296875 512.448242188 c 1
 118.41796875 541.51171875 l 1
 179.495117188 684.772460938 253.147460938 785 385 785 c 0
 460.436523438 785 554.548828125 756.67578125 668.595703125 721.661132812 c 0
 808.129882812 678.8046875 979.95703125 627.701171875 1198.96289062 606.319335938 c 1
 1133.92773438 452.684570312 l 1
 715.970703125 437.603515625 255 239.151367188 255 -149 c 0
 255 -394.479492188 439.388671875 -515 786 -515 c 0
EndSplineSet
Substitution2: "'fina' Terminal Forms in Arabic lookup 9 subtable" uniFEA2
Substitution2: "'medi' Medial Forms in Arabic lookup 11 subtable" uniFEA4
Substitution2: "'init' Initial Forms in Arabic lookup 13 subtable" uniFEA3
EndChar

StartChar: uni062F
Encoding: 1583 1583 23
GlifName: uni062F_
Width: 1020
GlyphClass: 2
Flags: HW
AnchorPoint: "Anchor-10" 429 1191 basechar 0
AnchorPoint: "Anchor-7" 401 -242 basechar 0
LayerCount: 2
Fore
SplineSet
216.360351562 297.376953125 m 1
 216.8671875 287.778320312 217.3671875 282.583984375 218.092773438 275.323242188 c 0
 230.479492188 176.231445312 303.8828125 150 418 150 c 0
 651.721679688 150 789 193.75390625 789 303 c 0
 789 440.12890625 583.947265625 625.959960938 372.20703125 768.853515625 c 1
 432.014648438 928.65234375 l 2
 432.61328125 930.192382812 433.294921875 931.010742188 433.37890625 931.099609375 c 0
 434.909179688 931.360351562 445.041992188 929.319335938 461.765625 916.178710938 c 0
 758.206054688 684.616210938 901 486.3671875 901 326 c 0
 901 111.11328125 688.905273438 0 419 0 c 0
 213.393554688 0 121 71.6884765625 121 213 c 0
 121 240.918945312 124.911132812 272.119140625 131.833984375 305.75390625 c 1
 216.360351562 297.376953125 l 1
EndSplineSet
PairPos2: "'kern' Horizontal Kerning lookup 0 subtable 4" uniFB90 dx=-120 dy=0 dh=-120 dv=0 dx=0 dy=0 dh=0 dv=0
PairPos2: "'kern' Horizontal Kerning lookup 0 subtable 4" uni06A9 dx=-120 dy=0 dh=-120 dv=0 dx=0 dy=0 dh=0 dv=0
PairPos2: "'kern' Horizontal Kerning lookup 0 subtable 4" uniFB94 dx=-120 dy=0 dh=-120 dv=0 dx=0 dy=0 dh=0 dv=0
PairPos2: "'kern' Horizontal Kerning lookup 0 subtable 4" uni06AF dx=-120 dy=0 dh=-120 dv=0 dx=0 dy=0 dh=0 dv=0
Substitution2: "'fina' Terminal Forms in Arabic lookup 9 subtable" uniFEAA
EndChar

StartChar: uni0631
Encoding: 1585 1585 25
GlifName: uni0631
Width: 762
GlyphClass: 2
Flags: HW
AnchorPoint: "Anchor-7" 316 -693 basechar 0
AnchorPoint: "Anchor-10" 455 840 basechar 0
LayerCount: 2
Fore
SplineSet
526.9375 488.5078125 m 1
 613.033203125 356.185546875 652 232.118164062 652 101 c 0
 652 -381.5546875 173.571289062 -537 107 -537 c 0
 97.806640625 -537 82.876953125 -529.421875 69.630859375 -513.526367188 c 2
 30.935546875 -464.909179688 l 2
 19.189453125 -448.680664062 14.0869140625 -435.143554688 14.552734375 -432.861328125 c 0
 14.80078125 -432.608398438 15.99609375 -431.525390625 19.91796875 -430.479492188 c 0
 316.95703125 -348.918945312 532 -181.668945312 532 56 c 0
 532 148.68359375 494.142578125 247.775390625 420.690429688 354.43359375 c 1
 526.9375 488.5078125 l 1
EndSplineSet
PairPos2: "'kern' Horizontal Kerning lookup 0 subtable 3" uni06C0 dx=-128 dy=0 dh=-128 dv=0 dx=0 dy=0 dh=0 dv=0
PairPos2: "'kern' Horizontal Kerning lookup 0 subtable 3" uni0621 dx=-128 dy=0 dh=-128 dv=0 dx=0 dy=0 dh=0 dv=0
PairPos2: "'kern' Horizontal Kerning lookup 0 subtable 2" uni0648 dx=-43 dy=0 dh=-43 dv=0 dx=0 dy=0 dh=0 dv=0
PairPos2: "'kern' Horizontal Kerning lookup 0 subtable 0" uniFB58 dx=20 dy=0 dh=20 dv=0 dx=0 dy=0 dh=0 dv=0
PairPos2: "'kern' Horizontal Kerning lookup 0 subtable 0" uni0632 dx=-43 dy=0 dh=-43 dv=0 dx=0 dy=0 dh=0 dv=0
PairPos2: "'kern' Horizontal Kerning lookup 0 subtable 0" uni0631 dx=-43 dy=0 dh=-43 dv=0 dx=0 dy=0 dh=0 dv=0
PairPos2: "'kern' Horizontal Kerning lookup 0 subtable 0" uni06CC dx=-43 dy=0 dh=-43 dv=0 dx=0 dy=0 dh=0 dv=0
PairPos2: "'kern' Horizontal Kerning lookup 0 subtable 0" uniFEEB dx=-128 dy=0 dh=-128 dv=0 dx=0 dy=0 dh=0 dv=0
PairPos2: "'kern' Horizontal Kerning lookup 0 subtable 0" uniFB7C dx=-115 dy=0 dh=-115 dv=0 dx=0 dy=0 dh=0 dv=0
PairPos2: "'kern' Horizontal Kerning lookup 0 subtable 0" uniFEDF dx=-128 dy=0 dh=-128 dv=0 dx=0 dy=0 dh=0 dv=0
PairPos2: "'kern' Horizontal Kerning lookup 0 subtable 0" uniFB90 dx=-213 dy=0 dh=-213 dv=0 dx=0 dy=0 dh=0 dv=0
PairPos2: "'kern' Horizontal Kerning lookup 0 subtable 0" uni06A9 dx=-213 dy=0 dh=-213 dv=0 dx=0 dy=0 dh=0 dv=0
PairPos2: "'kern' Horizontal Kerning lookup 0 subtable 0" uni0649 dx=-43 dy=0 dh=-43 dv=0 dx=0 dy=0 dh=0 dv=0
PairPos2: "'kern' Horizontal Kerning lookup 0 subtable 0" uni0647 dx=-128 dy=0 dh=-128 dv=0 dx=0 dy=0 dh=0 dv=0
PairPos2: "'kern' Horizontal Kerning lookup 0 subtable 0" uniFEE7 dx=-128 dy=0 dh=-128 dv=0 dx=0 dy=0 dh=0 dv=0
PairPos2: "'kern' Horizontal Kerning lookup 0 subtable 0" uniFEE3 dx=-128 dy=0 dh=-128 dv=0 dx=0 dy=0 dh=0 dv=0
PairPos2: "'kern' Horizontal Kerning lookup 0 subtable 0" uni0645 dx=-128 dy=0 dh=-128 dv=0 dx=0 dy=0 dh=0 dv=0
PairPos2: "'kern' Horizontal Kerning lookup 0 subtable 0" uni0644 dx=-43 dy=0 dh=-43 dv=0 dx=0 dy=0 dh=0 dv=0
PairPos2: "'kern' Horizontal Kerning lookup 0 subtable 0" uniFEDB dx=-213 dy=0 dh=-213 dv=0 dx=0 dy=0 dh=0 dv=0
PairPos2: "'kern' Horizontal Kerning lookup 0 subtable 0" uniFED7 dx=-128 dy=0 dh=-128 dv=0 dx=0 dy=0 dh=0 dv=0
PairPos2: "'kern' Horizontal Kerning lookup 0 subtable 0" uni0642 dx=-43 dy=0 dh=-43 dv=0 dx=0 dy=0 dh=0 dv=0
PairPos2: "'kern' Horizontal Kerning lookup 0 subtable 0" uniFED3 dx=-128 dy=0 dh=-128 dv=0 dx=0 dy=0 dh=0 dv=0
PairPos2: "'kern' Horizontal Kerning lookup 0 subtable 0" uni0641 dx=-128 dy=0 dh=-128 dv=0 dx=0 dy=0 dh=0 dv=0
PairPos2: "'kern' Horizontal Kerning lookup 0 subtable 0" uniFECF dx=-128 dy=0 dh=-128 dv=0 dx=0 dy=0 dh=0 dv=0
PairPos2: "'kern' Horizontal Kerning lookup 0 subtable 0" uniFECB dx=-128 dy=0 dh=-128 dv=0 dx=0 dy=0 dh=0 dv=0
PairPos2: "'kern' Horizontal Kerning lookup 0 subtable 0" uniFEC7 dx=-128 dy=0 dh=-128 dv=0 dx=0 dy=0 dh=0 dv=0
PairPos2: "'kern' Horizontal Kerning lookup 0 subtable 0" uni0638 dx=-128 dy=0 dh=-128 dv=0 dx=0 dy=0 dh=0 dv=0
PairPos2: "'kern' Horizontal Kerning lookup 0 subtable 0" uniFEC3 dx=-128 dy=0 dh=-128 dv=0 dx=0 dy=0 dh=0 dv=0
PairPos2: "'kern' Horizontal Kerning lookup 0 subtable 0" uni0637 dx=-128 dy=0 dh=-128 dv=0 dx=0 dy=0 dh=0 dv=0
PairPos2: "'kern' Horizontal Kerning lookup 0 subtable 0" uniFEBF dx=-128 dy=0 dh=-128 dv=0 dx=0 dy=0 dh=0 dv=0
PairPos2: "'kern' Horizontal Kerning lookup 0 subtable 0" uni0636 dx=-128 dy=0 dh=-128 dv=0 dx=0 dy=0 dh=0 dv=0
PairPos2: "'kern' Horizontal Kerning lookup 0 subtable 0" uniFEBB dx=-128 dy=0 dh=-128 dv=0 dx=0 dy=0 dh=0 dv=0
PairPos2: "'kern' Horizontal Kerning lookup 0 subtable 0" uni0635 dx=-128 dy=0 dh=-128 dv=0 dx=0 dy=0 dh=0 dv=0
PairPos2: "'kern' Horizontal Kerning lookup 0 subtable 0" uniFEB7 dx=-128 dy=0 dh=-128 dv=0 dx=0 dy=0 dh=0 dv=0
PairPos2: "'kern' Horizontal Kerning lookup 0 subtable 0" uni0634 dx=-128 dy=0 dh=-128 dv=0 dx=0 dy=0 dh=0 dv=0
PairPos2: "'kern' Horizontal Kerning lookup 0 subtable 0" uniFEB3 dx=-128 dy=0 dh=-128 dv=0 dx=0 dy=0 dh=0 dv=0
PairPos2: "'kern' Horizontal Kerning lookup 0 subtable 0" uni0633 dx=-128 dy=0 dh=-128 dv=0 dx=0 dy=0 dh=0 dv=0
PairPos2: "'kern' Horizontal Kerning lookup 0 subtable 0" uni0630 dx=-128 dy=0 dh=-128 dv=0 dx=0 dy=0 dh=0 dv=0
PairPos2: "'kern' Horizontal Kerning lookup 0 subtable 0" uni062F dx=-128 dy=0 dh=-128 dv=0 dx=0 dy=0 dh=0 dv=0
PairPos2: "'kern' Horizontal Kerning lookup 0 subtable 0" uniFEA7 dx=-128 dy=0 dh=-128 dv=0 dx=0 dy=0 dh=0 dv=0
PairPos2: "'kern' Horizontal Kerning lookup 0 subtable 0" uniFEA3 dx=-128 dy=0 dh=-128 dv=0 dx=0 dy=0 dh=0 dv=0
PairPos2: "'kern' Horizontal Kerning lookup 0 subtable 0" uniFE9F dx=-128 dy=0 dh=-128 dv=0 dx=0 dy=0 dh=0 dv=0
PairPos2: "'kern' Horizontal Kerning lookup 0 subtable 0" uniFE9B dx=-128 dy=0 dh=-128 dv=0 dx=0 dy=0 dh=0 dv=0
PairPos2: "'kern' Horizontal Kerning lookup 0 subtable 0" uni062B dx=-128 dy=0 dh=-128 dv=0 dx=0 dy=0 dh=0 dv=0
PairPos2: "'kern' Horizontal Kerning lookup 0 subtable 0" uniFE97 dx=-128 dy=0 dh=-128 dv=0 dx=0 dy=0 dh=0 dv=0
PairPos2: "'kern' Horizontal Kerning lookup 0 subtable 0" uni062A dx=-128 dy=0 dh=-128 dv=0 dx=0 dy=0 dh=0 dv=0
PairPos2: "'kern' Horizontal Kerning lookup 0 subtable 0" uni0629 dx=-128 dy=0 dh=-128 dv=0 dx=0 dy=0 dh=0 dv=0
PairPos2: "'kern' Horizontal Kerning lookup 0 subtable 0" uniFE91 dx=-53 dy=0 dh=-53 dv=0 dx=0 dy=0 dh=0 dv=0
PairPos2: "'kern' Horizontal Kerning lookup 0 subtable 0" uni0628 dx=-128 dy=0 dh=-128 dv=0 dx=0 dy=0 dh=0 dv=0
PairPos2: "'kern' Horizontal Kerning lookup 0 subtable 0" uni0627 dx=-150 dy=0 dh=-150 dv=0 dx=0 dy=0 dh=0 dv=0
PairPos2: "'kern' Horizontal Kerning lookup 0 subtable 0" uni0622 dx=-150 dy=0 dh=-150 dv=0 dx=0 dy=0 dh=0 dv=0
PairPos2: "'kern' Horizontal Kerning lookup 0 subtable 0" uniFB94 dx=-235 dy=0 dh=-235 dv=0 dx=0 dy=0 dh=0 dv=0
PairPos2: "'kern' Horizontal Kerning lookup 0 subtable 0" uni06AF dx=-235 dy=0 dh=-235 dv=0 dx=0 dy=0 dh=0 dv=0
PairPos2: "'kern' Horizontal Kerning lookup 0 subtable 0" uniFB56 dx=-128 dy=0 dh=-128 dv=0 dx=0 dy=0 dh=0 dv=0
PairPos2: "'kern' Horizontal Kerning lookup 0 subtable 0" uni067E dx=-128 dy=0 dh=-128 dv=0 dx=0 dy=0 dh=0 dv=0
Substitution2: "'fina' Terminal Forms in Arabic lookup 9 subtable" uniFEAE
EndChar

StartChar: uni0633
Encoding: 1587 1587 27
GlifName: uni0633
Width: 2349
GlyphClass: 2
Flags: HW
AnchorPoint: "Anchor-7" 666 -749 basechar 0
AnchorPoint: "Anchor-10" 1670 931 basechar 0
LayerCount: 2
Fore
SplineSet
1932 150 m 0
 2048.80078125 150 2112 211.65234375 2112 326 c 0
 2112 366.33984375 2084.97460938 455.979492188 2035.05957031 596.79296875 c 1
 2138.39746094 716.248046875 l 2
 2140.71582031 714.30859375 2146.05371094 707.743164062 2151.4921875 696.478515625 c 0
 2206.75097656 582.013671875 2234 475.375 2234 369 c 0
 2234 179.0390625 2108.33886719 0.935546875 1939 0 c 0
 1825.81738281 0 1749.18847656 40.634765625 1705.16210938 121.193359375 c 2
 1694.03027344 141.563476562 l 1
 1680.03320312 123.044921875 l 2
 1616.58789062 39.1015625 1556.796875 0 1460 0 c 0
 1382.44335938 0 1333.44824219 16.22265625 1309.11523438 43.0732421875 c 2
 1283 71.888671875 l 1
 1283 33 l 2
 1283 -344.458007812 1051.83203125 -539 667 -539 c 0
 334.748046875 -539 123 -371.87890625 123 -50 c 0
 123 79.796875 153.892578125 214.149414062 214.331054688 351.83984375 c 1
 297.33203125 326.940429688 l 1
 261.491210938 205.026367188 244 97.2177734375 244 -2 c 0
 244 -258.318359375 391.213867188 -389 674 -389 c 0
 937.97265625 -389 1162 -266.440429688 1162 -32 c 0
 1162 48.5654296875 1120.71679688 159.952148438 1041.37011719 312.165039062 c 1
 1132.58886719 451.84375 l 2
 1134.54589844 454.888671875 1136.47460938 456.924804688 1137.00683594 457.403320312 c 0
 1141.62304688 453.709960938 1149.30664062 441.810546875 1157.47167969 424.521484375 c 0
 1191.53710938 353.383789062 1219.62402344 297.138671875 1244.13769531 256.282226562 c 0
 1286.5390625 185.614257812 1360.37109375 150 1458 150 c 0
 1569.37011719 150 1622.70703125 209.208007812 1632.93261719 316.578125 c 2
 1649.63964844 492 l 1
 1735.28222656 492 l 1
 1751.05957031 315.663085938 l 2
 1760.64160156 208.576171875 1817.1484375 150 1932 150 c 0
EndSplineSet
Substitution2: "'fina' Terminal Forms in Arabic lookup 9 subtable" uniFEB2
Substitution2: "'medi' Medial Forms in Arabic lookup 11 subtable" uniFEB4
Substitution2: "'init' Initial Forms in Arabic lookup 13 subtable" uniFEB3
EndChar

StartChar: uni0635
Encoding: 1589 1589 29
GlifName: uni0635
Width: 2603
GlyphClass: 2
Flags: HW
AnchorPoint: "Anchor-7" 666 -749 basechar 0
AnchorPoint: "Anchor-10" 2104 1083 basechar 0
LayerCount: 2
Fore
SplineSet
1464.70996094 158.03515625 m 2
 1698.93261719 531.79296875 1935.38378906 713 2169 713 c 0
 2364.2265625 713 2485 585.1953125 2485 404 c 0
 2485 136.383789062 2275.31542969 0 1832 0 c 2
 1586 0 l 2
 1435.44824219 0 1342.25195312 17.490234375 1307.22949219 44.8251953125 c 2
 1283 63.7353515625 l 1
 1283 33 l 2
 1283 -342.658203125 1060.75097656 -539 666 -539 c 0
 333.80078125 -539 123 -370.920898438 123 -50 c 0
 123 79.796875 153.892578125 214.149414062 214.331054688 351.83984375 c 1
 297.33203125 326.940429688 l 1
 261.491210938 205.026367188 244 97.2177734375 244 -2 c 0
 244 -258.318359375 391.213867188 -389 674 -389 c 0
 922.54296875 -389 1162 -274.883789062 1162 -32 c 0
 1162 48.5654296875 1120.71679688 159.952148438 1041.37011719 312.165039062 c 1
 1132.20605469 451.256835938 l 2
 1134.82226562 454.54296875 1136.78417969 456.317382812 1137.73828125 457.06640625 c 0
 1141.60839844 453.465820312 1148.94824219 441.10546875 1157.61035156 424.23828125 c 2
 1229.62207031 279.213867188 l 2
 1275.43652344 190.782226562 1353.70410156 151 1452 151 c 2
 1460.30175781 151 l 1
 1464.70996094 158.03515625 l 2
2357 385 m 0
 2357 499.142578125 2274.96289062 566 2156 566 c 0
 1989.89746094 566 1803.00292969 433.240234375 1590.42871094 175.544921875 c 2
 1570.18164062 151 l 1
 1602 151 l 1
 1843 151 l 2
 2136.71679688 151 2357 177.142578125 2357 385 c 0
EndSplineSet
Substitution2: "'fina' Terminal Forms in Arabic lookup 9 subtable" uniFEBA
Substitution2: "'medi' Medial Forms in Arabic lookup 11 subtable" uniFEBC
Substitution2: "'init' Initial Forms in Arabic lookup 13 subtable" uniFEBB
EndChar

StartChar: uni0637
Encoding: 1591 1591 31
GlifName: uni0637
Width: 1540
GlyphClass: 2
Flags: HW
AnchorPoint: "Anchor-10" 468 1475 basechar 0
AnchorPoint: "Anchor-7" 683 -235 basechar 0
LayerCount: 2
Fore
SplineSet
1422 404 m 0
 1422 136.235351562 1215.16601562 0 778 0 c 2
 227.666992188 0 l 1
 120.158203125 148.78515625 l 1
 119.71484375 149.399414062 l 1
 119.357421875 149.80078125 l 1
 119.357421875 149.80078125 119.211914062 151 124 151 c 2
 393 151 l 1
 401.16015625 151 l 1
 405.59375 157.8515625 l 2
 427.407226562 191.563476562 450.287109375 224.395507812 474.254882812 258.349609375 c 2
 477.052734375 262.314453125 l 1
 476.999023438 267.166992188 l 2
 476.002929688 356.8515625 456.173828125 898.875 414.952148438 1286.91210938 c 1
 556.60546875 1369.07128906 l 2
 560.57225151 1371.4020819 560 1363.82055728 560 1356.87011719 c 6
 576.001953125 435.739257812 l 1
 576.689453125 396.203125 l 1
 602.397460938 426.248046875 l 2
 766.856445312 618.447265625 934.965820312 713 1106 713 c 0
 1302.21777344 713 1422 585.237304688 1422 404 c 0
1293 385 m 0
 1293 499.032226562 1212.04101562 566 1093 566 c 0
 926.897460938 566 740.002929688 433.240234375 527.428710938 175.544921875 c 2
 507.181640625 151 l 1
 539 151 l 1
 780 151 l 2
 1073.70019531 151 1293 176.1796875 1293 385 c 0
EndSplineSet
Substitution2: "'fina' Terminal Forms in Arabic lookup 9 subtable" uniFEC2
Substitution2: "'medi' Medial Forms in Arabic lookup 11 subtable" uniFEC4
Substitution2: "'init' Initial Forms in Arabic lookup 13 subtable" uniFEC3
EndChar

StartChar: uni0639
Encoding: 1593 1593 33
GlifName: uni0639
Width: 1262
GlyphClass: 2
Flags: HW
AnchorPoint: "Anchor-7" 701 -837 basechar 0
AnchorPoint: "Anchor-10" 685 1271 basechar 0
LayerCount: 2
Fore
SplineSet
763 -515 m 0
 881.645507812 -515 1008.45703125 -506.94140625 1146.99316406 -487.8671875 c 0
 1147.55078125 -487.793945312 1148.08203125 -487.778320312 1148.08203125 -487.778320312 c 1
 1148.91699219 -491.829101562 1147.27636719 -501.705078125 1142.84570312 -509.791992188 c 2
 1102.84570312 -582.791992188 l 2
 1082.24511719 -620.387695312 1070.17089844 -636.318359375 1044.75292969 -640.168945312 c 0
 977.146484375 -650.413085938 890.547851562 -655 788 -655 c 0
 391.928710938 -655 118 -516.392578125 118 -197 c 0
 118 22.6904296875 242.786132812 208.806640625 467.2109375 331.846679688 c 2
 488.220703125 343.365234375 l 1
 468.681640625 357.232421875 l 2
 379.362304688 420.620117188 331 516.288085938 331 607 c 0
 331 807.0390625 499.543945312 963 704 963 c 4
 818.328125 963 913.35546875 924.04296875 984.065429688 855.662109375 c 1
 974.158203125 824.037109375 959.802734375 792.390625 946.850585938 762.220703125 c 1
 855.924804688 796.51171875 775.006835938 813 703 813 c 0
 543.849609375 813 444 685.172851562 444 622 c 0
 444 555.97265625 567.708007812 416 679 416 c 2
 680.129882812 416 l 1
 681.247070312 416.168945312 l 2
 779.854492188 431.109375 980.268554688 458.16015625 1069.5078125 468.075195312 c 0
 1074.48144531 468.52734375 1077.92578125 467.82421875 1078.76367188 467.520507812 c 0
 1079.00976562 465.973632812 1078.87207031 462.05078125 1076.79492188 455.818359375 c 2
 1022.23730469 294.967773438 l 1
 621.17578125 292.34375 235 155.391601562 235 -167 c 0
 235 -401.970703125 417.936523438 -515 763 -515 c 0
EndSplineSet
Substitution2: "'fina' Terminal Forms in Arabic lookup 9 subtable" uniFECA
Substitution2: "'medi' Medial Forms in Arabic lookup 11 subtable" uniFECC
Substitution2: "'init' Initial Forms in Arabic lookup 13 subtable" uniFECB
EndChar

StartChar: uni0640
Encoding: 1600 1600 35
GlifName: afii57440
Width: 245
GlyphClass: 2
Flags: HW
AnchorPoint: "Anchor-10" 128 855 basechar 0
AnchorPoint: "Anchor-7" 125 -213 basechar 0
LayerCount: 2
Fore
SplineSet
-45 62 m 2
 -45 87 l 2
 -45 136.053710938 -30.9130859375 150 -5 150 c 2
 249.969726562 150 l 2
 252.624023438 147.865234375 260 129.03515625 260 87 c 2
 260 62 l 2
 260 20.44921875 252.541015625 2.078125 249.981445312 -0 c 2
 -5 0 l 2
 -30.9931640625 0 -45 14.0703125 -45 62 c 2
EndSplineSet
EndChar

StartChar: uni0643
Encoding: 1603 1603 38
GlifName: uni0643
Width: 1878
GlyphClass: 2
Flags: HW
AnchorPoint: "Anchor-10" 970 1310 basechar 0
AnchorPoint: "Anchor-7" 832 -219 basechar 0
LayerCount: 2
Fore
SplineSet
891 628 m 0
 959.93359375 628 1091 640.29296875 1091 719 c 0
 1091 764.828125 1031.16601562 788.321289062 943.16796875 807.662109375 c 0
 835.478515625 830.534179688 786 888.821289062 786 990 c 0
 786 1106.19238281 880.91015625 1177.25878906 1091.32519531 1206.17871094 c 0
 1102.90722656 1208.22265625 1110.65332031 1207.7421875 1114.99902344 1206.38671875 c 0
 1119.22949219 1205.06640625 1122.58203125 1205.18164062 1117.796875 1190.82519531 c 2
 1084.95800781 1095.95800781 l 1
 932.32421875 1080.00878906 835 1048.62011719 835 982 c 0
 835 935.799804688 895.595703125 913.665039062 983.372070312 898.232421875 c 0
 1096.94824219 878.01953125 1151 828.28515625 1151 719 c 0
 1151 584.6953125 1039.70800781 520 887 520 c 0
 815.534179688 520 754.052734375 529.932617188 687.044921875 550.6484375 c 1
 697.198242188 660.767578125 l 1
 764.944335938 639.015625 828.494140625 628 891 628 c 0
1706 786.033203125 m 2
 1704.99707031 417.9140625 1662.58007812 211.084960938 1593.1328125 160.098632812 c 0
 1451.90039062 56.5927734375 1189.953125 2 809 2 c 0
 423.559570312 2 119 90.1435546875 119 430 c 0
 119 507.299804688 136.595703125 605.055664062 177.727539062 693.447265625 c 1
 252.849609375 667.415039062 l 1
 233.42578125 593.934570312 229 546.4609375 229 499 c 0
 229 209.990234375 508.552734375 150 823 150 c 0
 1107.56640625 150 1368.86523438 172.364257812 1543.44238281 271.9765625 c 0
 1584.01660156 295.162109375 1594 391.575195312 1594 548 c 0
 1594 786.038085938 1586.88671875 918.907226562 1552.74121094 1267.19042969 c 1
 1694.296875 1376.22753906 l 2
 1699.05273438 1380.07714844 1702.55566406 1381.97753906 1704.73242188 1382.81542969 c 0
 1705.82226562 1380.078125 1707 1374.20019531 1707 1365.02636719 c 2
 1706 786.033203125 l 2
EndSplineSet
Substitution2: "'fina' Terminal Forms in Arabic lookup 9 subtable" uniFEDA
Substitution2: "'medi' Medial Forms in Arabic lookup 11 subtable" uniFEDC
Substitution2: "'init' Initial Forms in Arabic lookup 13 subtable" uniFEDB
EndChar

StartChar: uni0644
Encoding: 1604 1604 39
GlifName: uni0644
Width: 1345
GlyphClass: 2
Flags: HW
AnchorPoint: "Anchor-10" 571 994 basechar 0
AnchorPoint: "Anchor-7" 646 -747 basechar 0
LayerCount: 2
Fore
SplineSet
1181.00390625 72.64453125 m 2
 1181.24609375 62.607421875 1181.37109375 52.693359375 1181.37890625 42.9072265625 c 0
 1181.69238281 -346.080078125 1000.875 -539 649 -539 c 0
 325.76171875 -539 122 -354.619140625 122 -40 c 0
 122 79.8818359375 154.020507812 211.862304688 218.138671875 351.8984375 c 1
 301.244140625 326.966796875 l 1
 263.747070312 202.654296875 245 96.64453125 245 4 c 0
 245 -255.510742188 384.395507812 -389 653 -389 c 0
 931.029296875 -389 1066 -249.895507812 1066 23 c 0
 1066 196.7421875 1035.40722656 856.194335938 1007.5703125 1279.84960938 c 1
 1144.6171875 1362.07714844 l 2
 1150.7977358 1365.65725274 1150.66218264 1364.41835466 1151.0078125 1356.49902344 c 6
 1181.00390625 72.64453125 l 2
EndSplineSet
Substitution2: "'fina' Terminal Forms in Arabic lookup 9 subtable" uniFEDE
Substitution2: "'medi' Medial Forms in Arabic lookup 11 subtable" uniFEE0
Substitution2: "'init' Initial Forms in Arabic lookup 13 subtable" uniFEDF
EndChar

StartChar: uni0645
Encoding: 1605 1605 40
GlifName: uni0645
Width: 1110
GlyphClass: 2
Flags: HW
AnchorPoint: "Anchor-10" 609 1077 basechar 0
AnchorPoint: "Anchor-7" 207 -874 basechar 0
LayerCount: 2
Fore
SplineSet
395 95 m 0
 319.415039062 95 269.114257812 90.19921875 242.557617188 75.0234375 c 2
 234.80859375 70.595703125 l 1
 235.00390625 61.671875 l 1
 248.001953125 -532.24609375 l 2
 248.91796875 -588.14453125 223.666015625 -643.1484375 166.24609375 -701.54296875 c 0
 154.829101562 -713.416015625 142.59765625 -722.462890625 137.791992188 -723.953125 c 0
 136.557617188 -721.170898438 135.333984375 -716.232421875 134.986328125 -707.360351562 c 0
 127.99609375 -543.577148438 122.9921875 -377.426757812 120 -212.86328125 c 0
 120 28.06640625 149.127929688 187.827148438 295.0390625 239.872070312 c 2
 302.453125 242.515625 l 1
 304.489257812 250.119140625 l 2
 365.12890625 476.506835938 453.204101562 695 629 695 c 0
 793.200195312 695 995 441.696289062 995 276 c 0
 995 151.21875 856.245117188 41.44921875 829.02734375 41 c 0
 826.811523438 41.0498046875 808.754882812 43.9375 783.905273438 48.7158203125 c 0
 704.537109375 64.791015625 534.98046875 95 395 95 c 0
411.21875 246.020507812 m 2
 487.301757812 242.05078125 553.181640625 236.764648438 608.143554688 229.911132812 c 0
 666.783203125 222.599609375 786.639648438 199 822 199 c 0
 846.506835938 199 872 208.48828125 872 236 c 0
 872 367.676757812 739.973632812 541 613 541 c 0
 487.70703125 541 438.611328125 388.267578125 397.76953125 265.743164062 c 2
 391.538085938 247.046875 l 1
 411.21875 246.020507812 l 2
EndSplineSet
Substitution2: "'init' Initial Forms in Arabic lookup 13 subtable" uniFEE3
Substitution2: "'medi' Medial Forms in Arabic lookup 11 subtable" uniFEE4
Substitution2: "'fina' Terminal Forms in Arabic lookup 9 subtable" uniFEE2
EndChar

StartChar: uni0647
Encoding: 1607 1607 42
GlifName: uni0647
Width: 877
GlyphClass: 2
Flags: HW
AnchorPoint: "Anchor-10" 377 1119 basechar 0
AnchorPoint: "Anchor-7" 421 -239 basechar 0
LayerCount: 2
Fore
SplineSet
430 6 m 0
 254.740234375 6 124 102.6328125 124 281 c 0
 124 410.962890625 190.022460938 569.3828125 325.03125 752.041992188 c 0
 341.352539062 773.803710938 348.423828125 777.803710938 369.2421875 769.149414062 c 0
 633.4296875 659.318359375 761 498.735351562 761 319 c 0
 761 119.427734375 633.327148438 6 430 6 c 0
355.987304688 590.982421875 m 2
 272.072265625 478.758789062 229 380.145507812 229 296 c 0
 229 200.37109375 310.533203125 156 448 156 c 0
 582.583007812 156 661 204.432617188 661 305 c 0
 661 393.884765625 581.510742188 492.014648438 374.708007812 595.416015625 c 2
 363.495117188 601.0234375 l 1
 355.987304688 590.982421875 l 2
EndSplineSet
Substitution2: "'fina' Terminal Forms in Arabic lookup 9 subtable" uniFEEA
Substitution2: "'medi' Medial Forms in Arabic lookup 11 subtable" uniFEEC
Substitution2: "'init' Initial Forms in Arabic lookup 13 subtable" uniFEEB
EndChar

StartChar: uni0648
Encoding: 1608 1608 43
GlifName: uni0648
Width: 806
GlyphClass: 2
Flags: HW
AnchorPoint: "Anchor-7" 356 -693 basechar 0
AnchorPoint: "Anchor-10" 385 979 basechar 0
LayerCount: 2
Fore
SplineSet
554.176757812 4.888671875 m 2
 505.41796875 -1.08203125 447.841796875 -7 399 -7 c 0
 223.004882812 -7 110 65.6318359375 110 224 c 0
 110 368.237304688 189.1875 638 401 638 c 0
 600.875976562 638 696 403.135742188 696 121 c 0
 696 -286.1015625 401.491210938 -476.435546875 170.211914062 -535.486328125 c 0
 145.293945312 -542.130859375 133.834960938 -537.018554688 116.565429688 -517.442382812 c 2
 75.8564453125 -465.810546875 l 2
 63.6513671875 -449.791992188 59.115234375 -435.22265625 59.599609375 -433.904296875 c 2
 59.599609375 -433.904296875 60.3193359375 -432.705078125 64.9599609375 -431.467773438 c 0
 352.374023438 -352.807617188 523.889648438 -214.814453125 570.612304688 -13.3896484375 c 2
 575.456054688 7.494140625 l 1
 554.176757812 4.888671875 l 2
223 263 m 0
 223 163.080078125 333.084960938 144 426 144 c 0
 472.333007812 144 519.495117188 150.16796875 565.561523438 161.428710938 c 2
 578.041992188 164.479492188 l 1
 576.9453125 177.28125 l 2
 565.174804688 314.598632812 522.4609375 491 391 491 c 0
 251.629882812 491 223 306.572265625 223 263 c 0
EndSplineSet
Substitution2: "'fina' Terminal Forms in Arabic lookup 9 subtable" uniFEEE
EndChar

StartChar: uni0649
Encoding: 1609 1609 44
GlifName: uni0649
Width: 1474
GlyphClass: 2
Flags: HW
AnchorPoint: "Anchor-10" 640 886 basechar 0
AnchorPoint: "Anchor-7" 699 -679 basechar 0
LayerCount: 2
Fore
SplineSet
1256 520 m 0
 1038.2578125 520 907.708984375 393.412109375 870.348632812 223.215820312 c 2
 867.294921875 209.303710938 l 1
 881.03125 205.534179688 l 1
 1158.03125 129.534179688 l 2
 1255.81542969 102.706054688 1299 56.0947265625 1299 -10 c 0
 1299 -236.1796875 1095.88085938 -489 663 -489 c 0
 335.981445312 -489 122 -314.897460938 122 0 c 0
 122 122.875 154.125976562 258.077148438 218.265625 401.860351562 c 1
 301.33203125 376.940429688 l 1
 265.491210938 255.026367188 248 147.217773438 248 48 c 0
 248 -208.286132812 395.162109375 -339 676 -339 c 0
 1041.33886719 -339 1206 -135.8671875 1206 -70 c 0
 1206 -44.072265625 1183.703125 -32.7666015625 1160.96582031 -26.5341796875 c 2
 901.887695312 44.4873046875 l 2
 801.658203125 70.810546875 760 93.79296875 760 152 c 0
 760 279.737304688 871.143554688 680 1253 680 c 0
 1289.38085938 680 1328.98828125 674.146484375 1366.1484375 664.168945312 c 5
 1336.24804688 517.624023438 l 5
 1303.53710938 519.25390625 1281.40429688 520 1256 520 c 0
EndSplineSet
Substitution2: "'fina' Terminal Forms in Arabic lookup 9 subtable" uniFEF0
Substitution2: "'medi' Medial Forms in Arabic lookup 11 subtable" uniFBE9
Substitution2: "'init' Initial Forms in Arabic lookup 13 subtable" uniFBE8
EndChar

StartChar: uni064B
Encoding: 1611 1611 46
GlifName: uni064B_
Width: 10
VWidth: 2316
GlyphClass: 4
Flags: HW
AnchorPoint: "Anchor-10" 583.551 1123.65 mark 0
AnchorPoint: "Anchor-9" 583.551 1123.65 mark 0
AnchorPoint: "Anchor-1" 553.285 1596.25 basemark 0
AnchorPoint: "Anchor-1" 583.551 1123.65 mark 0
LayerCount: 2
Fore
SplineSet
334.5 1087.191135 m 1
 334.5 1174.96346829 l 1
 774.5 1354.83160016 l 1
 774.5 1268.02629983 l 1
 334.5 1087.191135 l 1
334.5 1299.191135 m 1
 334.5 1386.96346829 l 1
 774.5 1566.83160016 l 1
 774.5 1480.02629983 l 1
 334.5 1299.191135 l 1
EndSplineSet
EndChar

StartChar: uni064C
Encoding: 1612 1612 47
GlifName: uni064C_
Width: 0
VWidth: 2316
GlyphClass: 4
Flags: HW
AnchorPoint: "Anchor-10" 680.906 1278.67 mark 0
AnchorPoint: "Anchor-9" 680.906 1278.67 mark 0
AnchorPoint: "Anchor-1" 637.739 1852.46 basemark 0
AnchorPoint: "Anchor-1" 680.906 1278.67 mark 0
LayerCount: 2
Fore
SplineSet
496.5 1629 m 0
 496.5 1722.27792145 561.390463567 1783.5 652 1783.5 c 0
 743.099028436 1783.5 806.5 1723.30545775 806.5 1628 c 0
 806.5 1590.27283299 796.777294848 1549.1800883 780.097518112 1509.9335548 c 2
 776.408377187 1501.25322322 l 1
 785.696609996 1499.61412331 l 2
 799.470313736 1497.18346971 813.682724822 1495.96260697 822.5 1495.63867923 c 1
 822.5 1434.92995321 l 1
 804.04895551 1436.07875758 782.949837194 1438.20260268 755.382164013 1443.3715414 c 2
 749.933766872 1444.39311587 l 1
 747.358484997 1439.48429024 l 2
 685.136551297 1320.8811091 594.606860438 1258.4921875 471.8671875 1258.4921875 c 0
 345.800064438 1258.4921875 280.209002072 1344.18248866 275.627902496 1523.73492101 c 1
 339.734020251 1535.09549884 l 1
 344.375132913 1395.73865187 387.302370129 1321.5 473 1321.5 c 0
 550.215191452 1321.5 619.173773073 1367.44648736 678.894659233 1443.36286807 c 2
 685.383801056 1451.61177717 l 1
 675.477628186 1455.07893767 l 2
 569.800285531 1492.06600761 496.5 1539.16626569 496.5 1629 c 0
715.893587725 1520.04560526 m 2
 730.1208363 1553.2425186 743.5 1592.68721022 743.5 1627 c 0
 743.5 1678.95368715 703.953052722 1718.5 656 1718.5 c 0
 602.013258019 1718.5 561.5 1681.28053872 561.5 1625 c 0
 561.5 1560.51528184 643.40832087 1532.60419209 707.080805798 1515.74971079 c 2
 713.342167544 1514.09229151 l 1
 715.893587725 1520.04560526 l 2
EndSplineSet
EndChar

StartChar: uni064D
Encoding: 1613 1613 48
GlifName: uni064D_
Width: 3
VWidth: 2316
GlyphClass: 4
Flags: HW
AnchorPoint: "Anchor-7" 545.278 32.7109 mark 0
AnchorPoint: "Anchor-6" 545.278 32.7109 mark 0
AnchorPoint: "Anchor-0" 595.022 -407.025 basemark 0
AnchorPoint: "Anchor-0" 545.278 32.7109 mark 0
LayerCount: 2
Fore
SplineSet
342.5 -434.840865459 m 1
 342.5 -347.040713488 l 1
 783.5 -167.159134541 l 1
 783.5 -254.959286512 l 1
 342.5 -434.840865459 l 1
342.5 -222.840865459 m 1
 342.5 -135.040713488 l 1
 783.5 44.840865459 l 1
 783.5 -42.9592865116 l 1
 342.5 -222.840865459 l 1
EndSplineSet
EndChar

StartChar: uni064E
Encoding: 1614 1614 49
GlifName: uni064E_
Width: 0
VWidth: 2316
GlyphClass: 4
Flags: HW
AnchorPoint: "Anchor-10" 545.66 1397.63 mark 0
AnchorPoint: "Anchor-9" 545.66 1397.63 mark 0
AnchorPoint: "Anchor-1" 541.396 1651.77 basemark 0
AnchorPoint: "Anchor-1" 545.66 1397.63 mark 0
LayerCount: 2
Fore
SplineSet
303.5 1360.15913454 m 1
 303.5 1447.95928651 l 1
 744.5 1627.84086546 l 1
 744.5 1540.04071349 l 1
 303.5 1360.15913454 l 1
EndSplineSet
EndChar

StartChar: uni064F
Encoding: 1615 1615 50
GlifName: uni064F_
Width: 10
VWidth: 2316
GlyphClass: 4
Flags: HW
AnchorPoint: "Anchor-10" 591.295 1359.37 mark 0
AnchorPoint: "Anchor-9" 591.295 1359.37 mark 0
AnchorPoint: "Anchor-1" 542.134 1865.4 basemark 0
AnchorPoint: "Anchor-1" 591.295 1359.37 mark 0
LayerCount: 2
Fore
SplineSet
715.5 1434.54859241 m 1
 689.218438318 1434.9292088 667.755177047 1436.77974955 644.140428882 1440.41278773 c 2
 639.579294831 1441.11450066 l 1
 636.896998966 1437.35928645 l 2
 575.714647988 1351.70399508 424.841896679 1326.36203744 263.5 1316.93480833 c 1
 263.5 1380.15043103 l 1
 391.907460674 1391.71403819 521.67301295 1396.8932871 571.464707517 1449.86317493 c 2
 580.91055513 1459.91194899 l 1
 567.341640787 1462.37902433 l 2
 477.130879005 1478.78098102 387.5 1538.20784298 387.5 1626 c 0
 387.5 1719.68809712 452.57937066 1780.5 543 1780.5 c 0
 633.648031 1780.5 698.5 1719.27365602 698.5 1625 c 0
 698.5 1587.17106824 689.789350025 1549.19108626 673.071934148 1508.87261267 c 2
 669.410040265 1500.04098625 l 1
 678.859571118 1498.58721227 l 2
 689.540272519 1496.94402744 704.363132528 1495.09738301 715.5 1494.65169877 c 1
 715.5 1434.54859241 l 1
606.893587725 1517.04560526 m 2
 621.1208363 1550.2425186 634.5 1589.68721022 634.5 1624 c 0
 634.5 1676.45933072 595.582049252 1714.5 547 1714.5 c 0
 492.755167483 1714.5 452.5 1678.65195905 452.5 1622 c 0
 452.5 1557.51528184 534.40832087 1529.60419209 598.080805798 1512.74971079 c 2
 604.342167544 1511.09229151 l 1
 606.893587725 1517.04560526 l 2
EndSplineSet
EndChar

StartChar: uni0650
Encoding: 1616 1616 51
GlifName: uni0650
Width: 10
VWidth: 2316
GlyphClass: 4
Flags: HW
AnchorPoint: "Anchor-7" 571.144 -44.8242 mark 0
AnchorPoint: "Anchor-6" 571.144 -44.8242 mark 0
AnchorPoint: "Anchor-0" 619.091 -324.624 basemark 0
AnchorPoint: "Anchor-0" 571.144 -44.8242 mark 0
LayerCount: 2
Fore
SplineSet
350.5 -334.808865 m 1
 350.5 -247.036531713 l 1
 790.5 -67.1683998447 l 1
 790.5 -153.973700165 l 1
 350.5 -334.808865 l 1
EndSplineSet
EndChar

StartChar: uni0651
Encoding: 1617 1617 52
GlifName: uni0651
Width: 0
GlyphClass: 4
Flags: HW
AnchorPoint: "Anchor-10" 590 1433 mark 0
AnchorPoint: "Anchor-9" 590 1433 mark 0
AnchorPoint: "Anchor-1" 560 1868 basemark 0
AnchorPoint: "Anchor-1" 590 1433 mark 0
LayerCount: 2
Fore
SplineSet
416 1535.5 m 0
 481.534150838 1535.5 515.5 1577.69850746 515.5 1651 c 2
 515.5 1762.75195363 l 1
 539.640850786 1769.70022971 562.966409796 1773.55160405 584.812054991 1776.12802789 c 1
 586.501625593 1701.79841332 l 2
 587.579094145 1634.99536312 621.074097531 1596.5 684 1596.5 c 0
 739.691183624 1596.5 768.5 1637.72331197 768.5 1705 c 0
 768.5 1728.05428646 767.51693379 1756.23303188 765.98233355 1779.56630189 c 1
 835.77353808 1825.34332851 l 1
 839.53120437 1787.01768974 841.5 1748.11958332 841.5 1712 c 0
 841.5 1552.5305535 792.841157855 1483.5 701 1483.5 c 0
 648.384420394 1483.5 609.057797212 1503.61987235 573.554226689 1539.12344284 c 2
 565.627314577 1547.05035495 l 1
 561.325190772 1536.69836954 l 2
 529.62740083 1460.42556248 483.86566138 1422.5 409 1422.5 c 0
 312.783996181 1422.5 264.5 1483.89866319 264.5 1623 c 0
 264.5 1657.49945651 266.874853754 1694.40629463 269.845806476 1727.12489885 c 1
 330.606200439 1702.53140606 l 1
 331.501992508 1631.7768213 l 2
 332.577037242 1571.57431624 361.384789633 1535.5 416 1535.5 c 0
EndSplineSet
EndChar

StartChar: uni0652
Encoding: 1618 1618 53
GlifName: uni0652
Width: 7
VWidth: 2316
GlyphClass: 4
Flags: HW
AnchorPoint: "Anchor-10" 615.219 1271.43 mark 0
AnchorPoint: "Anchor-9" 615.219 1271.43 mark 0
AnchorPoint: "Anchor-1" 589.537 1682.66 basemark 0
AnchorPoint: "Anchor-1" 615.219 1271.43 mark 0
LayerCount: 2
Fore
SplineSet
428.57421875 1461.82128906 m 0
 428.57421875 1553.88205357 502.344376928 1627.64941406 594.40234375 1627.64941406 c 0
 686.462274434 1627.64941406 760.231445312 1553.8786498 760.231445312 1461.82128906 c 0
 760.231445312 1369.76212275 686.458410095 1295.99316406 594.40234375 1295.99316406 c 0
 502.342643912 1295.99316406 428.57421875 1369.7643182 428.57421875 1461.82128906 c 0
495.164922073 1461.02238719 m 0
 494.212106963 1405.19608371 540.47911487 1359.5296594 596.772414204 1359.42872332 c 0
 652.881581353 1359.5306562 698.564484698 1405.00487718 698.351508114 1460.99389902 c 0
 698.565134707 1517.08915009 652.90941655 1562.45067148 596.737235839 1562.61422684 c 0
 540.503237893 1562.45262299 494.206922961 1517.08781026 495.164922073 1461.02238719 c 0
EndSplineSet
EndChar

StartChar: uni0653
Encoding: 1619 1619 54
GlifName: uni0653
Width: 0
GlyphClass: 4
Flags: HW
AnchorPoint: "Anchor-10" 485 1566 mark 0
AnchorPoint: "Anchor-9" 485 1566 mark 0
AnchorPoint: "Anchor-1" 455 2024 basemark 0
AnchorPoint: "Anchor-1" 485 1566 mark 0
LayerCount: 2
Fore
SplineSet
315 1820.5 m 0
 350.3203125 1820.5 404.373046875 1815.5234375 457.088867188 1809.55566406 c 0
 506.290039062 1803.53125 553.376953125 1799.5 583 1799.5 c 0
 666.348632812 1799.5 725.563476562 1804.41992188 759.79296875 1812.71777344 c 0
 789.216796875 1819.95996094 806.791015625 1819.8671875 811.862304688 1816.60449219 c 0
 815.223632812 1814.44238281 817.445016516 1806.8976095 794.82261206 1773.25403364 c 0
 741.397341313 1697.48728604 688.126953125 1674.5 526 1674.5 c 4
 479.31640625 1674.5 424.486328125 1677.48535156 362.602539062 1682.47558594 c 6
 362.004882812 1682.52441406 l 5
 361.40625 1682.4765625 l 6
 297.8359375 1677.43164062 235.90815085 1642.61876199 176.433583787 1591.46428301 c 1
 161.38128173 1602.04976958 150.149639509 1612.40337112 142.495142826 1622.1610189 c 1
 196.186161951 1759.68983738 255.39453125 1820.5 315 1820.5 c 0
EndSplineSet
EndChar

StartChar: uni0657
Encoding: 1623 1623 57
GlifName: uni0657
Width: 4
VWidth: 2316
GlyphClass: 4
Flags: HW
AnchorPoint: "Anchor-10" 513.285 1400.55 mark 0
AnchorPoint: "Anchor-9" 513.285 1400.55 mark 0
AnchorPoint: "Anchor-1" 537.285 2069.85 basemark 0
AnchorPoint: "Anchor-1" 513.285 1400.55 mark 0
LayerCount: 2
Fore
SplineSet
272.5 1797.2866979 m 1
 311.33346875 1796.05990091 350.209425692 1793.2226341 394.206604591 1788.54208315 c 2
 397.769638688 1788.16303697 l 1
 400.303300859 1790.69669914 l 1
 401.303300859 1791.69669914 l 1
 401.760090444 1792.15348873 l 1
 402.132042295 1792.68166036 l 2
 499.523227924 1930.97714395 624.306955889 2007.99217227 777.5 2024.70438965 c 1
 777.5 1961.34249361 l 1
 654.417790069 1939.69481869 555.863863087 1880.32604661 480.073351491 1782.59617639 c 2
 473.325482753 1773.89497723 l 1
 483.893259351 1770.80196945 l 2
 570.082098102 1745.57596786 650.5 1692.12992471 650.5 1599 c 0
 650.5 1511.48681896 588.812368537 1445.5 501 1445.5 c 0
 412.240184295 1445.5 339.5 1506.96726988 339.5 1603 c 0
 339.5 1630.82816136 346.303453693 1670.21503389 362.143181104 1719.71418205 c 2
 365.043158159 1728.77661034 l 1
 355.554037641 1729.47950816 l 2
 330.791123735 1731.31379808 302.246464635 1733.20045957 272.5 1733.46804263 c 1
 272.5 1797.2866979 l 1
501 1508.5 m 0
 553.400212728 1508.5 584.5 1545.6358912 584.5 1597 c 0
 584.5 1665.05595738 504.494275168 1700.63958918 438.737153954 1716.29604661 c 2
 432.54110413 1717.77129657 l 1
 430.081692588 1711.89603566 l 2
 411.895133839 1668.45036754 402.5 1633.64294698 402.5 1605 c 0
 402.5 1548.47611356 447.521966001 1508.5 501 1508.5 c 0
EndSplineSet
EndChar

StartChar: uni065A
Encoding: 1626 1626 58
GlifName: uni065A_
Width: 1135
VWidth: 2316
GlyphClass: 4
Flags: HW
AnchorPoint: "Anchor-10" 573.285 1350.55 mark 0
AnchorPoint: "Anchor-9" 573.285 1350.55 mark 0
AnchorPoint: "Anchor-1" 571.012 1862.38 basemark 0
AnchorPoint: "Anchor-1" 573.285 1350.55 mark 0
LayerCount: 2
Fore
SplineSet
506.262206006 1451.5 m 1
 322.197391191 1760.5 l 1
 428.692222507 1760.5 l 1
 566.521658243 1524.22096731 l 1
 572.97696627 1513.15472498 l 1
 579.4665836 1524.20088214 l 1
 718.292315345 1760.5 l 1
 824.767591661 1760.5 l 1
 639.749073142 1451.5 l 1
 506.262206006 1451.5 l 1
EndSplineSet
EndChar

StartChar: uni0660
Encoding: 1632 1632 59
GlifName: afii57392
Width: 834
GlyphClass: 2
Flags: HW
LayerCount: 2
Fore
SplineSet
417 711.3125 m 5
 601.3125 527 l 5
 417 342.6875 l 5
 232.6875 527 l 5
 417 711.3125 l 5
EndSplineSet
EndChar

StartChar: uni0661
Encoding: 1633 1633 60
GlifName: afii57393
Width: 731
GlyphClass: 2
Flags: HW
LayerCount: 2
Fore
SplineSet
286.1328125 1305.28125 m 0
 419.326171875 981.244140625 502 584.201171875 502 125 c 0
 502 76.46484375 498.140625 43.748046875 494.017578125 31.9697265625 c 1
 484.586914062 27.7646484375 452.859375 18.2421875 408.944335938 6.4892578125 c 1
 406.466796875 432.231445312 324.118164062 821.142578125 163.3828125 1189.70410156 c 1
 266.552734375 1318.42871094 l 2
 270.98046875 1323.41699219 273.184570312 1324.47167969 274.123046875 1324.85449219 c 0
 275.81640625 1323.79394531 281.040039062 1317.58789062 286.1328125 1305.28125 c 0
EndSplineSet
EndChar

StartChar: uni0662
Encoding: 1634 1634 61
GlifName: afii57394
Width: 1095
GlyphClass: 2
Flags: HW
LayerCount: 2
Fore
SplineSet
602 951 m 0
 759.663085938 951 849.543945312 1059.72753906 869.935546875 1261.61035156 c 2
 872.77734375 1295 l 1
 966.143554688 1295 l 1
 964.017578125 1256.73632812 l 1
 950.202148438 933.067382812 824.037109375 799 582 799 c 0
 537.8828125 799 498.06640625 802.92578125 461.45703125 811.596679688 c 2
 438.444335938 817.046875 l 1
 443.322265625 793.90625 l 2
 482.01953125 610.342773438 502 379.208984375 502 125 c 0
 502 76.46484375 498.140625 43.748046875 494.017578125 31.9697265625 c 1
 484.586914062 27.7646484375 452.859375 18.2421875 408.944335938 6.4892578125 c 1
 406.466796875 432.197265625 324.1328125 819.1640625 163.375 1189.6796875 c 1
 263.630859375 1314.52734375 l 2
 268.961914062 1320.98046875 273.452148438 1323.70703125 274.412109375 1324.06542969 c 0
 275.83203125 1322.9453125 279.407226562 1318.40820312 282.94140625 1308.76855469 c 0
 298.97265625 1265.68554688 322.075195312 1205.42285156 353.053710938 1128.47753906 c 0
 398.811523438 1010.96191406 482.090820312 951 602 951 c 0
EndSplineSet
EndChar

StartChar: uni0663
Encoding: 1635 1635 62
GlifName: afii57395
Width: 1295
GlyphClass: 2
Flags: HW
LayerCount: 2
Fore
SplineSet
443.322265625 783.90625 m 2
 482.038085938 600.254882812 502 379.215820312 502 125 c 0
 502 76.46484375 498.140625 43.748046875 494.017578125 31.9697265625 c 1
 484.586914062 27.7646484375 452.859375 18.2421875 408.944335938 6.4892578125 c 1
 406.466796875 432.197265625 324.1328125 819.1640625 163.375 1189.6796875 c 1
 263.630859375 1314.52734375 l 2
 268.961914062 1320.98046875 273.452148438 1323.70703125 274.412109375 1324.06542969 c 0
 275.83203125 1322.9453125 279.407226562 1318.40820312 282.94140625 1308.76855469 c 0
 298.987304688 1265.64550781 322.041992188 1205.50683594 353.081054688 1128.40820312 c 0
 398.790039062 1014.64355469 461.752929688 951 544 951 c 0
 649.419921875 951 704.776367188 1027.85351562 712.9765625 1163.16015625 c 2
 718.182617188 1256 l 1
 812.654296875 1256 l 1
 817.016601562 1158.30273438 l 2
 823.0546875 1028.47265625 865.083007812 950 952 950 c 0
 1036.97558594 950 1079.06347656 1044.27539062 1090.95703125 1201.86230469 c 2
 1096.90234375 1280 l 1
 1190 1280 l 1
 1190 1238 l 2
 1190 937.329101562 1101.28417969 802 932 802 c 0
 846.661132812 802 784.203125 830.935546875 740.21875 892.701171875 c 2
 727.2890625 910.857421875 l 1
 715.337890625 892.041992188 l 2
 671.471679688 822.9765625 608.750976562 797 522 797 c 0
 499.876953125 797 480.734375 798.904296875 460.12109375 801.849609375 c 2
 438.900390625 804.880859375 l 1
 443.322265625 783.90625 l 2
EndSplineSet
EndChar

StartChar: uni0664
Encoding: 1636 1636 63
GlifName: afii57396
Width: 991
GlyphClass: 2
Flags: HW
LayerCount: 2
Fore
SplineSet
340.87109375 234.578125 m 0
 461.569335938 201.66015625 626.313476562 185.8203125 838.62109375 185.026367188 c 1
 835.005859375 40.4169921875 l 2
 834.125 8.705078125 824.2734375 2 808 2 c 0
 541.181640625 2 155 80.08203125 155 223 c 0
 155 318.147460938 270.6953125 447.119140625 518.009765625 603.317382812 c 2
 541.569335938 618.197265625 l 1
 516.17578125 629.669921875 l 2
 316.274414062 719.98046875 161 803.724609375 161 913 c 0
 161 1020.04394531 332.822265625 1154.36230469 701.540039062 1304.06054688 c 0
 709.39453125 1307.11425781 716.541992188 1309.53027344 720.220703125 1310.4140625 c 1
 720.051757812 1305.18457031 718.877929688 1297.48144531 716.346679688 1286.20507812 c 2
 669.590820312 1072.46679688 l 1
 561.356445312 1057.25878906 444.750976562 1021.26464844 318.763671875 963.642578125 c 0
 305.625976562 957.63671875 295.174804688 950.953125 288.817382812 940.857421875 c 0
 273.916015625 917.19140625 294.607421875 896.056640625 314.998046875 883.3125 c 0
 391.947265625 834.344726562 529.966796875 766.791992188 726.498046875 680.001953125 c 1
 727.5390625 660.563476562 729.211914062 632.122070312 731.397460938 595.6015625 c 1
 543.241210938 513.826171875 407.829101562 428.094726562 321.02734375 334.227539062 c 0
 309.0546875 321.482421875 299.4609375 308.790039062 295.18359375 294.856445312 c 0
 286.452148438 266.409179688 306.541992188 244.876953125 340.87109375 234.578125 c 0
EndSplineSet
EndChar

StartChar: uni0665
Encoding: 1637 1637 64
GlifName: afii57397
Width: 1115
GlyphClass: 2
Flags: HW
LayerCount: 2
Fore
SplineSet
523.69140625 982.854492188 m 2
 339.862304688 771.903320312 246 593.854492188 246 427 c 0
 246 254.885742188 353.022460938 169 550 169 c 0
 768.610351562 169 888 253.498046875 888 424 c 0
 888 598.090820312 770.93359375 777.327148438 545.12890625 984.063476562 c 2
 533.791015625 994.444335938 l 1
 523.69140625 982.854492188 l 2
373.685546875 1119.0546875 m 1
 481.5078125 1305.13574219 l 1
 815.9609375 989.162109375 979 698.966796875 979 412 c 0
 979 149.250976562 820.462890625 2 539 2 c 0
 291.517578125 2 139 151.639648438 139 402 c 0
 139 594.6015625 239.454101562 803.509765625 443.50390625 1047.37402344 c 2
 453.698242188 1059.55761719 l 1
 440.950195312 1069.03710938 l 1
 373.685546875 1119.0546875 l 1
EndSplineSet
EndChar

StartChar: uni0666
Encoding: 1638 1638 65
GlifName: afii57398
Width: 1171
GlyphClass: 2
Flags: HW
LayerCount: 2
Fore
SplineSet
829.35546875 1268.96582031 m 1
 842.952148438 649.017578125 906.467773438 277.55078125 1031.07617188 131.725585938 c 1
 925.705078125 7.80859375 l 1
 747.408203125 215.7421875 724 643.923828125 724 1085 c 2
 724 1101.22265625 l 1
 707.827148438 1099.95410156 l 2
 606.1171875 1091.9765625 517.482421875 1088 441 1088 c 0
 292.745117188 1088 192.860351562 1103.68945312 142.493164062 1132.99511719 c 0
 125.3203125 1142.80761719 107.020507812 1200.00878906 105 1311.13671875 c 0
 105 1316.1484375 105.891601562 1320.04199219 106.248046875 1321.02636719 c 0
 107.325195312 1320.921875 109.032226562 1320.55175781 110.857421875 1319.90820312 c 0
 234.638671875 1273.23632812 380.725585938 1250 549 1250 c 0
 636.657226562 1250 731.254882812 1256.50292969 829.35546875 1268.96582031 c 1
EndSplineSet
EndChar

StartChar: uni0667
Encoding: 1639 1639 66
GlifName: afii57399
Width: 1203
GlyphClass: 2
Flags: HW
LayerCount: 2
Fore
SplineSet
1084.99023438 1166.41699219 m 1
 886.762695312 845.176757812 742.955078125 469.9375 654.551757812 2 c 1
 568.544921875 2 l 1
 489.171875 439.4609375 339.418945312 815.662109375 118.591796875 1168.19726562 c 1
 207.005859375 1316.15625 l 1
 406.87890625 981.321289062 535.802734375 669.295898438 597.251953125 338.262695312 c 2
 610.946289062 264.4921875 l 1
 626.666992188 337.857421875 l 2
 713.418945312 742.69921875 829.963867188 1055.21679688 977.0234375 1314.55761719 c 0
 977.719726562 1315.77539062 978.061523438 1316.29980469 978.061523438 1316.29980469 c 1
 1084.99023438 1166.41699219 l 1
EndSplineSet
EndChar

StartChar: uni0668
Encoding: 1640 1640 67
GlifName: afii57400
Width: 1203
GlyphClass: 2
Flags: HW
LayerCount: 2
Fore
SplineSet
1084.99023438 134.583007812 m 1
 978.061523438 -15.2998046875 l 2
 977.739257812 -14.7822265625 977.3515625 -14.1318359375 977.047851562 -13.6005859375 c 0
 829.93359375 245.836914062 713.424804688 558.272460938 626.666992188 963.142578125 c 2
 610.946289062 1036.5078125 l 1
 597.251953125 962.737304688 l 2
 535.840820312 631.907226562 405.920898438 318.073242188 206.991210938 -15.1806640625 c 1
 118.606445312 131.826171875 l 1
 340.2578125 485.690429688 489.489257812 863.264648438 568.544921875 1299 c 1
 654.551757812 1299 l 1
 743.313476562 829.16796875 887.509765625 454.61328125 1084.99023438 134.583007812 c 1
EndSplineSet
EndChar

StartChar: uni0669
Encoding: 1641 1641 68
GlifName: afii57401
Width: 1039
GlyphClass: 2
Flags: HW
LayerCount: 2
Fore
SplineSet
447 791 m 0
 500.470703125 791 572.17578125 799.076171875 632.696289062 814.462890625 c 2
 644.671875 817.506835938 l 1
 643.9765625 829.844726562 l 2
 633.002929688 1024.37207031 581.663085938 1163 430 1163 c 0
 314.12890625 1163 259 1032.16308594 259 925 c 0
 259 807.212890625 346.369140625 791 447 791 c 0
441 1313 m 0
 661.455078125 1313 742.020507812 1110.18652344 753.013671875 839.365234375 c 0
 768.563476562 472.00390625 825.831054688 238.098632812 929.555664062 130.100585938 c 1
 825.073242188 7.0810546875 l 1
 705.188476562 131.61328125 669.655273438 335.203125 658.991210938 642.520507812 c 2
 658.40234375 659.485351562 l 1
 641.638671875 656.8125 l 2
 573.34375 645.92578125 511.094726562 641 457 641 c 0
 240.39453125 641 146 716.2734375 146 893 c 0
 146 1008.68261719 199.93359375 1313 441 1313 c 0
EndSplineSet
EndChar

StartChar: uni066A
Encoding: 1642 1642 69
GlifName: afii57381
Width: 1033
VWidth: 4036
GlyphClass: 2
Flags: HW
LayerCount: 2
Fore
SplineSet
749.373046875 1296.91210938 m 1
 854.151367188 1249.515625 l 1
 284.572265625 -9.6533203125 l 1
 179.79296875 37.7431640625 l 1
 749.373046875 1296.91210938 l 1
652 158 m 0
 652 222.7890625 705.469726562 277 770 277 c 0
 834.530273438 277 888 222.790039062 888 158 c 0
 888 93.318359375 834.680664062 40 770 40 c 0
 704.036132812 40 652 90.2783203125 652 158 c 0
145 1124 m 0
 145 1188.7890625 198.469726562 1243 263 1243 c 0
 327.530273438 1243 381 1188.79003906 381 1124 c 0
 381 1059.31835938 327.680664062 1006 263 1006 c 0
 197.036132812 1006 145 1056.27832031 145 1124 c 0
EndSplineSet
EndChar

StartChar: uni066B
Encoding: 1643 1643 70
GlifName: uni066B_
Width: 772
VWidth: 2950
GlyphClass: 2
Flags: HW
LayerCount: 2
Fore
SplineSet
541.638671875 678.0078125 m 1
 632.359375 636.4921875 l 1
 179.399414062 -401.908203125 l 1
 88.603515625 -359.587890625 l 1
 541.638671875 678.0078125 l 1
EndSplineSet
PairPos2: "'kern' Horizontal Kerning lookup 0 subtable 6" uni06F4 dx=-110 dy=0 dh=-110 dv=0 dx=0 dy=0 dh=0 dv=0
PairPos2: "'kern' Horizontal Kerning lookup 0 subtable 6" uni06F3 dx=-130 dy=0 dh=-130 dv=0 dx=0 dy=0 dh=0 dv=0
PairPos2: "'kern' Horizontal Kerning lookup 0 subtable 6" uni06F2 dx=-130 dy=0 dh=-130 dv=0 dx=0 dy=0 dh=0 dv=0
EndChar

StartChar: uni066C
Encoding: 1644 1644 71
GlifName: uni066C_
Width: 503
GlyphClass: 2
Flags: HW
LayerCount: 2
Fore
SplineSet
131 96 m 0
 131 161.506835938 166.76953125 205 234 205 c 0
 312.3046875 205 347 162.85546875 347 59 c 0
 347 -63.8232421875 302.860351562 -174.78515625 160.282226562 -260.137695312 c 0
 131.345703125 -277.5 116.353515625 -270.3125 112.075195312 -265.537109375 c 0
 108.33984375 -261.369140625 107.267578125 -254.95703125 114.885742188 -248.28125 c 0
 213.629882812 -161.752929688 244 -89.404296875 244 -42 c 2
 244 -32.888671875 l 1
 235.915039062 -28.6884765625 l 2
 158.365234375 11.5966796875 131 26.796875 131 96 c 0
EndSplineSet
PairPos2: "'kern' Horizontal Kerning lookup 0 subtable 6" uni06F4 dx=-112 dy=0 dh=-112 dv=0 dx=0 dy=0 dh=0 dv=0
PairPos2: "'kern' Horizontal Kerning lookup 0 subtable 6" uni06F3 dx=-128 dy=0 dh=-128 dv=0 dx=0 dy=0 dh=0 dv=0
PairPos2: "'kern' Horizontal Kerning lookup 0 subtable 6" uni06F2 dx=-112 dy=0 dh=-112 dv=0 dx=0 dy=0 dh=0 dv=0
EndChar

StartChar: uni066D
Encoding: 1645 1645 72
GlifName: afii63167
Width: 1734
GlyphClass: 2
Flags: HW
LayerCount: 2
Fore
SplineSet
264.861328125 1129 m 1
 714 1129 l 1
 724.85546875 1129 l 1
 728.248046875 1139.31152344 l 1
 869 1567.01464844 l 1
 1009.75195312 1139.31152344 l 1
 1013.14453125 1129 l 1
 1024 1129 l 1
 1473.13867188 1129 l 1
 1110.13574219 863.100585938 l 1
 1101.375 856.68359375 l 1
 1104.73632812 846.356445312 l 1
 1243.50390625 420.078125 l 1
 877.78125 684.161132812 l 1
 869 690.501953125 l 1
 860.21875 684.161132812 l 1
 494.49609375 420.078125 l 1
 633.263671875 846.356445312 l 1
 636.625 856.68359375 l 1
 627.864257812 863.100585938 l 1
 264.861328125 1129 l 1
EndSplineSet
EndChar

StartChar: uni066E
Encoding: 1646 1646 73
GlifName: uni066E_
Width: 1788
GlyphClass: 2
Flags: HW
AnchorPoint: "Anchor-10" 778 1257 basechar 0
AnchorPoint: "Anchor-7" 636 -227 basechar 0
LayerCount: 2
Fore
SplineSet
834 2 m 0
 427.1328125 2 119 84.3251953125 119 432 c 0
 119 508.200195312 137.48046875 605.939453125 178.672851562 693.465820312 c 1
 253.989257812 667.366210938 l 1
 234.22265625 589.887695312 228 540.93359375 228 491 c 0
 228 226.874023438 497.256835938 150 835 150 c 0
 1221.66894531 150 1551 213.810546875 1551 338 c 0
 1551 399.807617188 1526.76074219 468.275390625 1481.921875 600.786132812 c 1
 1584.21582031 721.848632812 l 1
 1587.94335938 718.317382812 1593.54101562 710.263671875 1599.609375 698.241210938 c 0
 1651.35839844 595.719726562 1668 491.836914062 1668 419 c 0
 1668 100.729492188 1392.6328125 2 834 2 c 0
EndSplineSet
Substitution2: "'fina' Terminal Forms in Arabic lookup 9 subtable" uni066E.fina
EndChar

StartChar: uni066F
Encoding: 1647 1647 74
GlifName: uni066F_
Width: 1390
GlyphClass: 2
Flags: HW
AnchorPoint: "Anchor-10" 537 1151 basechar 0
AnchorPoint: "Anchor-7" 558 -711 basechar 0
LayerCount: 2
Fore
SplineSet
976 83 m 0
 807.86328125 83 699 151.790039062 699 302 c 0
 699 527.319335938 815.482421875 722 980 722 c 0
 1197.0859375 722 1275 469.661132812 1275 155 c 0
 1275 -260.134765625 1060.85742188 -438 659 -438 c 0
 327.846679688 -438 117 -268.9375 117 51 c 0
 117 180.8515625 147.840820312 315.032226562 208.375 452.94140625 c 1
 291.295898438 428.819335938 l 1
 255.536132812 307.177734375 238 199.14453125 238 100 c 0
 238 -156.278320312 385.16015625 -288 668 -288 c 0
 942.954101562 -288 1153.53027344 -186.580078125 1164.98730469 88.3759765625 c 2
 1165.79980469 107.876953125 l 1
 1146.74609375 103.642578125 l 2
 1084.6484375 89.84375 1026.66113281 83 976 83 c 0
977 236 m 0
 1037.4140625 236 1116.76074219 250.665039062 1155.55371094 269.5078125 c 2
 1164.74414062 273.971679688 l 1
 1163.95507812 284.158203125 l 2
 1153.01757812 425.357421875 1111.07519531 564 972 564 c 0
 875.9140625 564 800 478.94921875 800 357 c 0
 800 260.326171875 887.807617188 236 977 236 c 0
EndSplineSet
Substitution2: "'fina' Terminal Forms in Arabic lookup 9 subtable" uni066F.fina
EndChar

StartChar: uni0670
Encoding: 1648 1648 75
GlifName: uni0670
Width: 0
GlyphClass: 4
Flags: HW
AnchorPoint: "Anchor-10" 776 1776 mark 0
AnchorPoint: "Anchor-9" 776 1776 mark 0
AnchorPoint: "Anchor-1" 744 2317 basemark 0
AnchorPoint: "Anchor-1" 776 1776 mark 0
LayerCount: 2
Fore
SplineSet
745.067230273 1819.80097989 m 1
 692.194012285 2160.11223749 l 1
 797.5 2221.90335425 l 1
 797.5 1836.4841339 l 1
 745.067230273 1819.80097989 l 1
EndSplineSet
EndChar

StartChar: uni0674
Encoding: 1652 1652 76
GlifName: uni0674
Width: 802
GlyphClass: 2
Flags: HW
LayerCount: 2
Fore
SplineSet
215.986854413 1812.44908168 m 1
 232.296745492 1917.29838147 l 1
 336.089390044 1962.70766347 l 1
 358.398421103 1972.46786455 l 1
 334.530664542 1977.24141587 l 2
 260.410326566 1992.28812713 223.5 2022.71602988 223.5 2099 c 0
 223.5 2177.21790014 253.490742205 2328.5 413 2328.5 c 0
 458.887271013 2328.5 505.578441382 2306.62514724 550.937074625 2265.00517452 c 1
 524.077125167 2207.06047189 l 1
 483.213322185 2218.66738617 449.347333482 2224.5 418 2224.5 c 0
 349.748826214 2224.5 291.5 2189.4197243 291.5 2141 c 0
 291.5 2091.54742634 340.797700512 2033.5 433 2033.5 c 0
 462.248641301 2033.5 496.133233124 2037.62858733 534.370374071 2047.96294975 c 0
 543.206188365 2050.43697776 567.635275973 2055.66071102 573.5 2053.98145501 c 1
 573.5 1959.57657706 l 1
 496.712057518 1938.12767137 376.686570152 1888.54938725 215.986854413 1812.44908168 c 1
EndSplineSet
EndChar

StartChar: uni0686
Encoding: 1670 1670 78
GlifName: afii57507
Width: 1296
GlyphClass: 2
Flags: HW
AnchorPoint: "Anchor-10" 660 1081 basechar 0
AnchorPoint: "Anchor-7" 701 -822 basechar 0
LayerCount: 2
Fore
SplineSet
776.928932188 -74.0710678119 m 2
 886.857864376 -184 l 1
 775.5 -295.357864376 l 1
 667.071067812 -186.928932188 l 2
 663.698518313 -183.556382689 664.422640089 -183.719495535 666.071067812 -182.071067812 c 2
 773.071067812 -75.0710678119 l 2
 775.865211025 -72.276924599 775.818277491 -72.9604131152 776.928932188 -74.0710678119 c 2
922.928932188 151.928932188 m 2
 1032.85786438 42 l 1
 921.5 -69.3578643763 l 1
 813.071067812 39.0710678119 l 2
 809.698518313 42.4436173107 810.422640089 42.2805044651 812.071067812 43.9289321881 c 2
 919.071067812 150.928932188 l 2
 921.865211025 153.723075401 921.818277491 153.039586885 922.928932188 151.928932188 c 2
630.928932188 151.928932188 m 2
 740.857864376 42 l 1
 629.5 -69.3578643763 l 1
 521.071067812 39.0710678119 l 2
 517.698518313 42.4436173107 518.422640089 42.2805044651 520.071067812 43.9289321881 c 2
 627.071067812 150.928932188 l 2
 629.865211025 153.723075401 629.818277491 153.039586885 630.928932188 151.928932188 c 2
EndSplineSet
Refer: 21 1581 N 1 0 0 1 0 0 2
Substitution2: "'fina' Terminal Forms in Arabic lookup 9 subtable" uniFB7B
Substitution2: "'medi' Medial Forms in Arabic lookup 11 subtable" uniFB7D
Substitution2: "'init' Initial Forms in Arabic lookup 13 subtable" uniFB7C
EndChar

StartChar: uni06A1
Encoding: 1697 1697 80
GlifName: uni06A_1
Width: 1728
GlyphClass: 2
Flags: HW
AnchorPoint: "Anchor-10" 740 1433 basechar 0
AnchorPoint: "Anchor-7" 613 -213 basechar 0
LayerCount: 2
Fore
SplineSet
1308 523 m 0
 1379.25488281 523 1438.12011719 532.11328125 1486.46582031 551.03125 c 2
 1496.86328125 555.099609375 l 1
 1495.95019531 566.227539062 l 2
 1484.95214844 700.196289062 1439.44921875 835 1299 835 c 0
 1207.18847656 835 1132 744.674804688 1132 629 c 0
 1132 544.24609375 1228.34765625 523 1308 523 c 0
1312.08105469 375 m 0
 1127.71386719 376.982421875 1031 420.647460938 1031 573 c 0
 1031 798.588867188 1141.53320312 994 1312 994 c 0
 1526.94042969 994 1611 722.2421875 1611 448 c 0
 1611 285.037109375 1567.62890625 184.651367188 1490.421875 119.908203125 c 0
 1359.64160156 11.3134765625 1126.15527344 2 816 2 c 0
 427.3984375 2 119 88.2626953125 119 430 c 0
 119 507.299804688 136.595703125 605.055664062 177.727539062 693.447265625 c 1
 252.849609375 667.415039062 l 1
 233.42578125 593.934570312 229 546.4609375 229 499 c 0
 229 220.23828125 485.487304688 151 856 151 c 0
 1310.28710938 151 1497 165.153320312 1497 382 c 2
 1497 400.197265625 l 1
 1479.13671875 396.724609375 l 2
 1407.56445312 382.807617188 1351.20800781 375 1312.08105469 375 c 0
EndSplineSet
Substitution2: "'init' Initial Forms in Arabic lookup 13 subtable" uni06A1.init
Substitution2: "'medi' Medial Forms in Arabic lookup 11 subtable" uni06A1.medi
Substitution2: "'fina' Terminal Forms in Arabic lookup 9 subtable" uni06A1.fina
EndChar

StartChar: uni06A9
Encoding: 1705 1705 81
GlifName: uni06A_9
Width: 1848
GlyphClass: 2
Flags: HW
AnchorPoint: "Anchor-10" 1187 1398 basechar 0
AnchorPoint: "Anchor-7" 799 -221 basechar 0
LayerCount: 2
Fore
SplineSet
1125.95605469 1006.859375 m 2
 1451.44238281 713.420898438 1610 513.8359375 1610 387 c 0
 1610 163.8203125 1310.62792969 2 809 2 c 0
 423.559570312 2 119 90.1435546875 119 430 c 0
 119 507.299804688 136.595703125 605.055664062 177.727539062 693.447265625 c 1
 252.849609375 667.415039062 l 1
 233.42578125 593.934570312 229 546.4609375 229 499 c 0
 229 208.571289062 526.8125 150 828 150 c 0
 1267.6015625 150 1499 288.122070312 1499 390 c 0
 1499 474.126953125 1318.52246094 654.212890625 972.42578125 945.782226562 c 1
 1006.08789062 1116.82128906 l 1
 1770.10351562 1396.89453125 l 2
 1771.44824219 1397.375 1773.91601562 1398.23144531 1774.29003906 1398.359375 c 1
 1773.87011719 1395.47753906 1773.60449219 1393.77539062 1773.17480469 1390.9921875 c 2
 1750.55761719 1244.25292969 l 1
 1131.14160156 1032.19140625 l 1
 1107.01757812 1023.93261719 l 1
 1125.95605469 1006.859375 l 2
EndSplineSet
Substitution2: "'init' Initial Forms in Arabic lookup 13 subtable" uniFB90
Substitution2: "'medi' Medial Forms in Arabic lookup 11 subtable" uniFB91
Substitution2: "'fina' Terminal Forms in Arabic lookup 9 subtable" uniFB8F
EndChar

StartChar: uni06AF
Encoding: 1711 1711 82
GlifName: uni06A_F_
Width: 1851
GlyphClass: 2
Flags: HW
AnchorPoint: "Anchor-10" 1259 1548 basechar 0
AnchorPoint: "Anchor-7" 799 -221 basechar 0
LayerCount: 2
Fore
SplineSet
1128.24121094 946.608398438 m 2
 1421.390625 695.48046875 1563 508.104492188 1563 391 c 0
 1563 181.822265625 1237.57617188 2 826 2 c 0
 426.331054688 2 119 88.2568359375 119 432 c 0
 119 519.014648438 136.439453125 606.573242188 177.654296875 693.47265625 c 1
 252.849609375 667.4140625 l 1
 233.564453125 594.545898438 229 545.909179688 229 494 c 0
 229 209.618164062 521.681640625 149 819 149 c 0
 1185.87207031 149 1453 292.403320312 1453 388 c 0
 1453 472.475585938 1242.04296875 662.797851562 975.392578125 885.848632812 c 1
 1008.13574219 1056.83886719 l 1
 1772.10351562 1336.89453125 l 2
 1773.44824219 1337.375 1775.91601562 1338.23144531 1776.29003906 1338.359375 c 1
 1775.87011719 1335.47753906 1775.60449219 1333.77539062 1775.17480469 1330.9921875 c 2
 1752.55761719 1184.25292969 l 1
 1133.14160156 972.19140625 l 1
 1108.30371094 963.688476562 l 1
 1128.24121094 946.608398438 l 2
EndSplineSet
Refer: 273 -1 N 1.1342 0 0 1.1342 962 -772 2
Substitution2: "'fina' Terminal Forms in Arabic lookup 9 subtable" uniFB93
Substitution2: "'medi' Medial Forms in Arabic lookup 11 subtable" uniFB95
Substitution2: "'init' Initial Forms in Arabic lookup 13 subtable" uniFB94
EndChar

StartChar: uni06BA
Encoding: 1722 1722 83
GlifName: afii57514
Width: 1395
GlyphClass: 2
Flags: HW
LayerCount: 2
Fore
SplineSet
667 -399 m 0
 334.748046875 -399 123 -231.87890625 123 90 c 0
 123 219.796875 153.892578125 354.149414062 214.331054688 491.83984375 c 1
 297.33203125 466.940429688 l 1
 261.491210938 345.026367188 244 237.217773438 244 138 c 0
 244 -118.318359375 391.213867188 -249 674 -249 c 0
 995.047851562 -249 1162 -79.5673828125 1162 108 c 0
 1162 186.592773438 1120.72167969 300.830078125 1041.38378906 452.185546875 c 1
 1132.48242188 591.680664062 l 2
 1133.77734375 593.584960938 1135.54101562 595.552734375 1135.94921875 595.948242188 c 0
 1140.52050781 592.240234375 1148.57421875 580.478515625 1157.80859375 563.857421875 c 0
 1242.90039062 402.578125 1286 255.619140625 1286 125 c 0
 1286 -124.079101562 1143.09179688 -399 667 -399 c 0
EndSplineSet
Substitution2: "'fina' Terminal Forms in Arabic lookup 9 subtable" uniFB9F
EndChar

StartChar: uni06F0
Encoding: 1776 1776 86
GlifName: uni06F_0
Width: 834
VWidth: 2311
GlyphClass: 2
Flags: HW
LayerCount: 2
Fore
SplineSet
417 392.642578125 m 0
 484.399414062 392.642578125 540.256835938 448.499023438 540.256835938 515.899414062 c 0
 540.256835938 583.298828125 484.399414062 639.15625 417 639.15625 c 0
 349.600585938 639.15625 293.743164062 583.298828125 293.743164062 515.899414062 c 0
 293.743164062 448.499023438 349.600585938 392.642578125 417 392.642578125 c 0
417 743.704101562 m 0
 539.1328125 743.704101562 640.659179688 640.419921875 640.659179688 517.985351562 c 0
 640.659179688 395.614257812 539.220703125 293.295898438 417 293.295898438 c 0
 294.779296875 293.295898438 193.340820312 395.614257812 193.340820312 517.985351562 c 0
 193.340820312 640.419921875 294.8671875 743.704101562 417 743.704101562 c 0
EndSplineSet
PairPos2: "'kern' Horizontal Kerning lookup 0 subtable 6" uni06F7 dx=-40 dy=0 dh=-40 dv=0 dx=0 dy=0 dh=0 dv=0
PairPos2: "'kern' Horizontal Kerning lookup 0 subtable 6" uni06F6 dx=-40 dy=0 dh=-40 dv=0 dx=0 dy=0 dh=0 dv=0
PairPos2: "'kern' Horizontal Kerning lookup 0 subtable 6" uni06F4 dx=-40 dy=0 dh=-40 dv=0 dx=0 dy=0 dh=0 dv=0
PairPos2: "'kern' Horizontal Kerning lookup 0 subtable 6" uni06F3 dx=-40 dy=0 dh=-40 dv=0 dx=0 dy=0 dh=0 dv=0
PairPos2: "'kern' Horizontal Kerning lookup 0 subtable 6" uni06F2 dx=-40 dy=0 dh=-40 dv=0 dx=0 dy=0 dh=0 dv=0
EndChar

StartChar: uni06F4
Encoding: 1780 1780 90
GlifName: uni06F_4
Width: 1190
GlyphClass: 2
Flags: HW
LayerCount: 2
Fore
SplineSet
837 1191 m 0
 719.03125 1191 634 1106.76953125 634 985 c 0
 634 874.21875 739.462890625 857 834 857 c 0
 894.282226562 857 960.588867188 867.818359375 1031.13476562 888.678710938 c 1
 1050.43457031 777.70703125 l 1
 972.766601562 733.709960938 890.506835938 716 801 716 c 0
 687.491210938 716 543.265625 760.591796875 462.522460938 816.34375 c 2
 431.504882812 837.760742188 l 1
 439.326171875 800.887695312 l 2
 481.067382812 604.110351562 502 385.203125 502 125 c 0
 502 76.46484375 498.140625 43.748046875 494.017578125 31.9697265625 c 1
 484.586914062 27.7646484375 452.859375 18.2421875 408.944335938 6.4892578125 c 1
 406.466796875 432.197265625 324.1328125 819.1640625 163.375 1189.6796875 c 1
 263.630859375 1314.52734375 l 2
 268.961914062 1320.98046875 273.452148438 1323.70703125 274.412109375 1324.06542969 c 0
 275.776367188 1322.98828125 279.470703125 1318.234375 282.8828125 1308.92773438 c 0
 345.369140625 1131.38867188 394.41015625 988.376953125 533.283203125 931.131835938 c 2
 562.424804688 919.120117188 l 1
 553.3671875 949.310546875 l 2
 541.721679688 988.127929688 536 1024.671875 536 1059 c 0
 536 1223.82617188 645.331054688 1320 797 1320 c 0
 878.513671875 1320 947.16796875 1285.6171875 1007.99316406 1216.00488281 c 1
 979.889648438 1162.68066406 l 1
 925.227539062 1182.43164062 880.228515625 1191 837 1191 c 0
EndSplineSet
PairPos2: "'kern' Horizontal Kerning lookup 0 subtable 6" uni06F8 dx=-70 dy=0 dh=-70 dv=0 dx=0 dy=0 dh=0 dv=0
PairPos2: "'kern' Horizontal Kerning lookup 0 subtable 6" uni06F5 dx=-70 dy=0 dh=-70 dv=0 dx=0 dy=0 dh=0 dv=0
EndChar

StartChar: uni06F5
Encoding: 1781 1781 91
GlifName: uni06F_5
Width: 1192
GlyphClass: 2
Flags: HW
LayerCount: 2
Fore
SplineSet
624.143554688 405.16796875 m 1
 664.622070312 241.49609375 727.848632812 149 824 149 c 0
 913.340820312 149 961 199.137695312 961 288.080078125 c 0
 959.96484375 482.622070312 830.923828125 714.140625 578.372070312 1007.78125 c 2
 565.348632812 1022.92382812 l 1
 554.436523438 1006.1953125 l 2
 342.142578125 680.744140625 233 449.209960938 233 285 c 0
 233 196.798828125 282.06640625 149 370 149 c 0
 468.072265625 149 535.586914062 242.942382812 577.651367188 405.83203125 c 1
 624.143554688 405.16796875 l 1
588.932617188 174.206054688 m 2
 543.572265625 51.6376953125 469.705078125 0 362 0 c 0
 212.041015625 0 139 81.91796875 139 272 c 0
 139 501.19140625 249.173828125 772.727539062 470.514648438 1107.73144531 c 2
 477.680664062 1118.57617188 l 1
 467.965820312 1127.2109375 l 1
 432.010742188 1159.17089844 l 1
 514.104492188 1304.70019531 l 2
 515.959960938 1308.07421875 517.540039062 1309.96484375 518.692382812 1311.01269531 c 0
 519.749023438 1311.97265625 520.934570312 1316.28320312 532.940429688 1302.86425781 c 0
 884.12109375 928.737304688 1057 600.193359375 1057 292 c 0
 1057 87.6630859375 985.666992188 0 844 0 c 0
 741.6171875 0 667.280273438 52.5625 616.865234375 174.72265625 c 2
 602.239257812 210.163085938 l 1
 588.932617188 174.206054688 l 2
EndSplineSet
PairPos2: "'kern' Horizontal Kerning lookup 0 subtable 6" uni06F7 dx=-70 dy=0 dh=-70 dv=0 dx=0 dy=0 dh=0 dv=0
PairPos2: "'kern' Horizontal Kerning lookup 0 subtable 6" uni06F6 dx=-70 dy=0 dh=-70 dv=0 dx=0 dy=0 dh=0 dv=0
PairPos2: "'kern' Horizontal Kerning lookup 0 subtable 6" uni06F4 dx=-70 dy=0 dh=-70 dv=0 dx=0 dy=0 dh=0 dv=0
PairPos2: "'kern' Horizontal Kerning lookup 0 subtable 6" uni06F3 dx=-100 dy=0 dh=-100 dv=0 dx=0 dy=0 dh=0 dv=0
PairPos2: "'kern' Horizontal Kerning lookup 0 subtable 6" uni06F2 dx=-100 dy=0 dh=-100 dv=0 dx=0 dy=0 dh=0 dv=0
EndChar

StartChar: uni06F6
Encoding: 1782 1782 92
GlifName: uni06F_6
Width: 1041
GlyphClass: 2
Flags: HW
LayerCount: 2
Fore
SplineSet
540 1168 m 0
 347.07421875 1168 293 1020.03613281 293 955 c 0
 293 890.51171875 362.341796875 784 637 784 c 0
 665.993164062 784 690.091796875 810.76171875 720.717773438 829.137695312 c 0
 812.995117188 884.50390625 896.078125 934.178710938 915.145507812 939.700195312 c 1
 915.043945312 934.995117188 913.55078125 928.049804688 911.423828125 919.543945312 c 2
 870.2578125 745.302734375 l 1
 693.170898438 677.83984375 444.303710938 417.205078125 212.223632812 2.08984375 c 1
 150.883789062 59.5478515625 l 1
 263.6875 312.1640625 394.498046875 501.640625 489.861328125 624.817382812 c 2
 504.48828125 643.711914062 l 1
 481.114257812 648.672851562 l 2
 271.249023438 693.219726562 179 770.618164062 179 919 c 0
 179 1037.94628906 271.407226562 1325 532 1325 c 0
 621.356445312 1325 701.71484375 1288.171875 774.90234375 1225.8515625 c 1
 736.258789062 1135.68261719 l 1
 651.2421875 1156.9296875 588.252929688 1168 540 1168 c 0
EndSplineSet
EndChar

StartChar: uniFB7B
Encoding: 64379 64379 101
GlifName: uniF_B_7B_
Width: 1339
GlyphClass: 2
Flags: HW
AnchorPoint: "Anchor-10" 660 1081 basechar 0
AnchorPoint: "Anchor-7" 701 -822 basechar 0
LayerCount: 2
Fore
SplineSet
655.928932188 -150.071067812 m 2
 765.857864376 -260 l 1
 654.5 -371.357864376 l 1
 546.071067812 -262.928932188 l 2
 542.698518313 -259.556382689 543.422640089 -259.719495535 545.071067812 -258.071067812 c 2
 652.071067812 -151.071067812 l 2
 654.865211025 -148.276924599 654.818277491 -148.960413115 655.928932188 -150.071067812 c 2
801.928932188 75.9289321881 m 2
 911.857864376 -34 l 1
 800.5 -145.357864376 l 1
 692.071067812 -36.9289321881 l 2
 688.698518313 -33.5563826893 689.422640089 -33.7194955349 691.071067812 -32.0710678119 c 2
 798.071067812 74.9289321881 l 2
 800.865211025 77.723075401 800.818277491 77.0395868848 801.928932188 75.9289321881 c 2
509.928932188 75.9289321881 m 2
 619.857864376 -34 l 1
 508.5 -145.357864376 l 1
 400.071067812 -36.9289321881 l 2
 396.698518313 -33.5563826893 397.422640089 -33.7194955349 399.071067812 -32.0710678119 c 2
 506.071067812 74.9289321881 l 2
 508.865211025 77.723075401 508.818277491 77.0395868848 509.928932188 75.9289321881 c 2
EndSplineSet
Refer: 173 65186 N 1 0 0 1 0 0 2
EndChar

StartChar: uniFB8F
Encoding: 64399 64399 107
GlifName: uniF_B_8F_
Width: 2103
GlyphClass: 2
Flags: HW
AnchorPoint: "Anchor-10" 1187 1398 basechar 0
AnchorPoint: "Anchor-7" 799 -221 basechar 0
LayerCount: 2
Fore
SplineSet
1126.01367188 1006.80761719 m 2
 1292.42382812 858.333984375 1465.96777344 679.819335938 1644.58398438 470.26953125 c 0
 1823.64453125 260.198242188 1960.51855469 151 2096 151 c 2
 2107.95996094 151 l 2
 2110.83789062 148.557617188 2118 129.305664062 2118 87 c 2
 2118 62 l 2
 2118 20.44921875 2110.54101562 2.078125 2107.98144531 -0 c 2
 2096 0 l 2
 1934.18652344 0 1790.04492188 102.216796875 1621.77148438 315.296875 c 2
 1603.55371094 338.365234375 l 1
 1595.56445312 310.077148438 l 2
 1538.38964844 107.620117188 1170.60253906 2 809 2 c 0
 423.559570312 2 119 90.1435546875 119 430 c 0
 119 507.299804688 136.595703125 605.055664062 177.727539062 693.447265625 c 1
 252.849609375 667.415039062 l 1
 233.42578125 593.934570312 229 546.4609375 229 499 c 0
 229 208.467773438 531.856445312 150 828 150 c 0
 1286.01757812 150 1499 296.462890625 1499 390 c 0
 1499 474.126953125 1318.52246094 654.212890625 972.42578125 945.782226562 c 1
 1006.08789062 1116.82128906 l 1
 1770.10351562 1396.89453125 l 2
 1771.44824219 1397.375 1773.91601562 1398.23144531 1774.29003906 1398.359375 c 1
 1773.87011719 1395.47753906 1773.60449219 1393.77539062 1773.17480469 1390.9921875 c 2
 1750.55761719 1244.25292969 l 1
 1131.14160156 1032.19140625 l 1
 1106.875 1023.88378906 l 1
 1126.01367188 1006.80761719 l 2
EndSplineSet
EndChar

StartChar: uniFB93
Encoding: 64403 64403 111
GlifName: uniF_B_93
Width: 2054
GlyphClass: 2
Flags: HW
AnchorPoint: "Anchor-7" 799 -221 basechar 0
AnchorPoint: "Anchor-10" 1259 1548 basechar 0
LayerCount: 2
Fore
SplineSet
1128.29882812 946.559570312 m 2
 1252.25878906 841.44140625 1409.92382812 677.872070312 1598.59179688 457.260742188 c 0
 1774.08691406 251.680664062 1919.0390625 150 2051 150 c 2
 2058.96972656 150 l 2
 2061.62402344 147.865234375 2069 129.03515625 2069 87 c 2
 2069 62 l 2
 2069 20.44921875 2061.54101562 2.078125 2058.98144531 -0 c 2
 2046 0 l 2
 1895.95117188 0 1736.52246094 98.837890625 1569.64648438 304.452148438 c 2
 1555.36816406 322.045898438 l 1
 1544.74902344 302.029296875 l 2
 1436.17480469 97.37109375 1138.24804688 2 826 2 c 0
 426.225585938 2 119 84.259765625 119 432 c 0
 119 509.29296875 136.565429688 606.004882812 177.67578125 693.46484375 c 1
 252.849609375 667.415039062 l 1
 233.42578125 593.934570312 229 546.4609375 229 499 c 0
 229 255.890625 439.047851562 149 799 149 c 0
 1193.5625 149 1453 288.520507812 1453 388 c 0
 1453 472.475585938 1242.04296875 662.797851562 975.392578125 885.848632812 c 1
 1008.13574219 1056.83886719 l 1
 1772.10351562 1336.89453125 l 2
 1773.44824219 1337.375 1775.91601562 1338.23144531 1776.29003906 1338.359375 c 1
 1775.87011719 1335.47753906 1775.60449219 1333.77539062 1775.17480469 1330.9921875 c 2
 1752.55761719 1184.25292969 l 1
 1133.14160156 972.19140625 l 1
 1108.15820312 963.638671875 l 1
 1128.29882812 946.559570312 l 2
EndSplineSet
Refer: 273 -1 N 1.1342 0 0 1.1342 962 -772 2
EndChar

StartChar: uniFB94
Encoding: 64404 64404 112
GlifName: uniF_B_94
Width: 934
GlyphClass: 2
Flags: HW
AnchorPoint: "Anchor-10" 337 1533 basechar 0
AnchorPoint: "Anchor-7" 334 -255 basechar 0
LayerCount: 2
Fore
SplineSet
208.377929688 946.493164062 m 2
 501.178710938 701.659179688 643 506.875976562 643 367 c 0
 643 132.854492188 464.633789062 0 68 0 c 2
 -5 0 l 2
 -30.9931640625 0 -45 14.0703125 -45 62 c 2
 -45 87 l 2
 -45 136.053710938 -30.9130859375 150 -5 150 c 2
 68 150 l 2
 293.40625 150 529 196.084960938 529 363 c 0
 529 456.893554688 366.40625 627.181640625 55.3984375 885.87890625 c 1
 88.1357421875 1056.83886719 l 1
 852.103515625 1336.89453125 l 2
 853.448242188 1337.375 855.916015625 1338.23144531 856.290039062 1338.359375 c 1
 855.870117188 1335.47753906 855.604492188 1333.77539062 855.174804688 1330.9921875 c 2
 832.557617188 1184.25292969 l 1
 213.141601562 972.19140625 l 1
 187.956054688 963.569335938 l 1
 208.377929688 946.493164062 l 2
EndSplineSet
Refer: 273 -1 N 1.1342 0 0 1.1342 42 -772 2
EndChar

StartChar: uniFB95
Encoding: 64405 64405 113
GlifName: uniF_B_95
Width: 1135
GlyphClass: 2
Flags: HW
AnchorPoint: "Anchor-10" 337 1533 basechar 0
AnchorPoint: "Anchor-7" 319 -256 basechar 0
LayerCount: 2
Fore
SplineSet
209.142578125 946.693359375 m 2
 325.252929688 845.469726562 483.943359375 681.852539062 677.642578125 457.201171875 c 0
 854.059570312 252.71875 997.935546875 150 1129 150 c 2
 1139.96972656 150 l 2
 1142.62402344 147.865234375 1150 129.03515625 1150 87 c 2
 1150 62 l 2
 1150 20.44921875 1142.54101562 2.078125 1139.98144531 -0 c 2
 1114 0 l 2
 977.283203125 0 827.681640625 95.6357421875 664.622070312 295.482421875 c 2
 647.477539062 316.495117188 l 1
 638.790039062 290.8046875 l 2
 571.859375 92.880859375 366.796875 0 68 0 c 2
 -5 0 l 2
 -30.9931640625 0 -45 14.0703125 -45 62 c 2
 -45 87 l 2
 -45 136.053710938 -30.9130859375 150 -5 150 c 2
 68 150 l 2
 411.989257812 150 539 271.568359375 539 373 c 0
 539 455.814453125 373.365234375 621.319335938 55.4375 885.84375 c 1
 89.087890625 1056.82128906 l 1
 853.103515625 1336.89453125 l 2
 854.448242188 1337.375 856.916015625 1338.23144531 857.290039062 1338.359375 c 1
 856.870117188 1335.47753906 856.604492188 1333.77539062 856.174804688 1330.9921875 c 2
 833.557617188 1184.25292969 l 1
 214.141601562 972.19140625 l 1
 189.551757812 963.772460938 l 1
 209.142578125 946.693359375 l 2
EndSplineSet
Refer: 273 -1 N 1.1342 0 0 1.1342 42 -772 2
EndChar

StartChar: uniFB9F
Encoding: 64415 64415 115
GlifName: uniF_B_9F_
Width: 1463
GlyphClass: 2
Flags: HW
AnchorPoint: "Anchor-10" 577 991 basechar 0
AnchorPoint: "Anchor-7" 452 -1023 basechar 0
LayerCount: 2
Fore
SplineSet
1283 33 m 2
 1283 -337.513671875 1052.66308594 -539 667 -539 c 0
 334.748046875 -539 123 -371.87890625 123 -50 c 0
 123 79.796875 153.892578125 214.149414062 214.331054688 351.83984375 c 1
 297.33203125 326.940429688 l 1
 261.491210938 205.026367188 244 97.2177734375 244 -2 c 0
 244 -258.318359375 391.213867188 -389 674 -389 c 0
 922.54296875 -389 1162 -274.883789062 1162 -32 c 0
 1162 48.5654296875 1120.71679688 159.952148438 1041.37011719 312.165039062 c 1
 1132.58886719 451.84375 l 2
 1134.54589844 454.888671875 1136.47460938 456.924804688 1137.00683594 457.403320312 c 0
 1141.62304688 453.709960938 1149.30664062 441.810546875 1157.47167969 424.521484375 c 0
 1191.5546875 353.346679688 1219.58105469 297.2109375 1244.171875 256.225585938 c 0
 1287.11035156 185.377929688 1359.56542969 151 1437 151 c 2
 1467.95996094 151 l 2
 1470.83789062 148.557617188 1478 129.305664062 1478 87 c 2
 1478 62 l 2
 1478 20.44921875 1470.54101562 2.078125 1467.98144531 -0 c 2
 1447 0 l 2
 1384.45410156 0 1341.68554688 15.0498046875 1307.8125 44.345703125 c 2
 1283 65.8046875 l 1
 1283 33 l 2
EndSplineSet
EndChar

StartChar: uniFBE8
Encoding: 64488 64488 118
GlifName: uniF_B_E_8
Width: 646
GlyphClass: 2
Flags: HW
AnchorPoint: "Anchor-10" 323 1287 basechar 0
AnchorPoint: "Anchor-7" 371 -275 basechar 0
LayerCount: 2
Fore
SplineSet
530 369 m 0
 530 119.139648438 407.997070312 0 161 0 c 2
 -5 0 l 2
 -30.9931640625 0 -45 14.0703125 -45 62 c 2
 -45 87 l 2
 -45 136.053710938 -30.9130859375 150 -5 150 c 2
 158 150 l 2
 344.465820312 150 408 200.1015625 408 321 c 0
 408 383.5390625 384.202148438 468.104492188 338.073242188 597.79296875 c 1
 441.725585938 717.319335938 l 1
 445.20703125 713.329101562 448.862304688 707.446289062 453.451171875 697.5625 c 0
 504.731445312 592.041992188 530 489.892578125 530 369 c 0
EndSplineSet
EndChar

StartChar: uniFBE9
Encoding: 64489 64489 119
GlifName: uniF_B_E_9
Width: 728
GlyphClass: 2
Flags: HW
AnchorPoint: "Anchor-10" 412 1144 basechar 0
AnchorPoint: "Anchor-7" 351 -234 basechar 0
LayerCount: 2
Fore
SplineSet
-5 150 m 2
 115 150 l 2
 276.237304688 150 371.852539062 203.45703125 382.936523438 317.622070312 c 2
 400.6796875 510 l 1
 488.379882812 510 l 1
 507.071289062 316.536132812 l 2
 517.762695312 207.482421875 577.567382812 150 714 150 c 2
 733.432617188 150 l 2
 736.801757812 146.349609375 743 125.888671875 743 87 c 2
 743 62 l 2
 743 23.3994140625 736.56640625 3.41015625 733.447265625 0 c 2
 716 0 l 2
 579.42578125 0 508.89453125 40.419921875 456.678710938 123.015625 c 2
 444.842773438 141.73828125 l 1
 431.850585938 123.797851562 l 2
 372.62890625 42.015625 270.454101562 0 120 0 c 2
 -5 0 l 2
 -30.9931640625 0 -45 14.0703125 -45 62 c 2
 -45 87 l 2
 -45 136.053710938 -30.9130859375 150 -5 150 c 2
EndSplineSet
EndChar

StartChar: uniFE73
Encoding: 65139 65139 127
GlifName: uniF_E_73
Width: 785
GlyphClass: 2
Flags: HW
AnchorPoint: "Anchor-10" 369 1227 basechar 0
AnchorPoint: "Anchor-7" 377 -203 basechar 0
LayerCount: 2
Fore
SplineSet
294 449 m 2
 294 249.288085938 435.600585938 150 699 150 c 2
 775 150 l 1
 775 3 l 1
 686 3 l 2
 299.78125 3 116 145.322265625 116 429 c 2
 116 451 l 1
 294 451 l 1
 294 449 l 2
EndSplineSet
EndChar

StartChar: uniFE8E
Encoding: 65166 65166 153
GlifName: uniF_E_8E_
Width: 511
GlyphClass: 2
Flags: HW
AnchorPoint: "Anchor-10" 188 1475 basechar 0
AnchorPoint: "Anchor-7" 240 -244 basechar 0
LayerCount: 2
Fore
SplineSet
273 537 m 0
 273 250.010742188 289.676757812 150 488 150 c 2
 516.432617188 150 l 2
 519.801757812 146.349609375 526 125.888671875 526 87 c 2
 526 62 l 2
 526 23.3994140625 519.56640625 3.41015625 516.447265625 0 c 2
 483 0 l 2
 182.053710938 0 155 212.844726562 155 568 c 0
 155 933.100585938 143.334960938 1108.36914062 125.819335938 1286.4609375 c 1
 250.3203125 1368.51953125 l 2
 256.048497653 1372.33682613 256.32206609 1362.02396689 257.036132812 1350.95703125 c 4
 267.9609375 1204.95703125 273 802.739257812 273 537 c 0
EndSplineSet
EndChar

StartChar: uniFEA2
Encoding: 65186 65186 173
GlifName: uniF_E_A_2
Width: 1339
GlyphClass: 2
Flags: HW
AnchorPoint: "Anchor-10" 660 1066 basechar 0
AnchorPoint: "Anchor-7" 701 -837 basechar 0
LayerCount: 2
Fore
SplineSet
860.821289062 416.659179688 m 2
 549.6015625 349.177734375 255 155.270507812 255 -149 c 0
 255 -394.479492188 439.388671875 -515 786 -515 c 0
 902.58984375 -515 1031.35839844 -508.59765625 1165.18554688 -488.146484375 c 1
 1122.31054688 -583.868164062 l 2
 1104.96191406 -622.599609375 1099.95996094 -635.138671875 1064.87890625 -640.150390625 c 0
 997.005859375 -649.846679688 910.493164062 -655 808 -655 c 0
 411.200195312 -655 138 -517.815429688 138 -179 c 0
 138 184.02734375 435.119140625 456.405273438 778.16015625 530.336914062 c 2
 840.904296875 543.859375 l 1
 778.666015625 559.544921875 l 2
 654.478515625 590.844726562 457.631835938 628 389 628 c 0
 314.62890625 628 244.758789062 586.79296875 180.904296875 512.448242188 c 1
 118.41796875 541.51171875 l 1
 179.495117188 684.772460938 253.147460938 785 385 785 c 0
 460.436523438 785 554.548828125 756.67578125 668.595703125 721.661132812 c 0
 808.129882812 678.8046875 979.95703125 627.701171875 1198.96289062 606.319335938 c 1
 1133.95117188 452.741210938 l 1
 1087.67675781 451.266601562 1042.20800781 446.525390625 996.176757812 440.888671875 c 2
 982.841796875 439.255859375 l 1
 983.000976562 425.822265625 l 2
 985.125 246.311523438 1128.53125 150 1325 150 c 2
 1344.43261719 150 l 2
 1347.80175781 146.349609375 1354 125.888671875 1354 87 c 2
 1354 62 l 2
 1354 23.3994140625 1347.56640625 3.41015625 1344.44726562 0 c 2
 1323 0 l 2
 1034.72851562 0 880.934570312 157.28515625 879 402.118164062 c 2
 878.853515625 420.569335938 l 1
 860.821289062 416.659179688 l 2
EndSplineSet
EndChar

StartChar: uniFEA3
Encoding: 65187 65187 174
GlifName: uniF_E_A_3
Width: 1320
GlyphClass: 2
Flags: HW
AnchorPoint: "Anchor-10" 555 1055 basechar 0
AnchorPoint: "Anchor-7" 521 -242 basechar 0
LayerCount: 2
Fore
SplineSet
216.895507812 449.509765625 m 1
 155.271484375 478.508789062 l 1
 226.423828125 648.65625 322.09765625 738 457 738 c 0
 503.819335938 738 592.106445312 708.196289062 723.653320312 646.409179688 c 0
 936.696289062 546.921875 1109.25390625 497.028320312 1242.94238281 496 c 0
 1246.63671875 496 1248.609375 495.299804688 1248.95019531 495.147460938 c 0
 1249.20800781 493.83203125 1249.26953125 490.767578125 1247.625 485.284179688 c 2
 1205.66894531 344.498046875 l 1
 1095.05761719 337.606445312 937.438476562 274.53515625 729.573242188 156.032226562 c 0
 545.454101562 51.1044921875 363.120117188 0 182 0 c 2
 -5 0 l 2
 -30.9931640625 0 -45 14.0703125 -45 62 c 2
 -45 87 l 2
 -45 136.053710938 -30.9130859375 150 -5 150 c 2
 216 150 l 2
 437.125976562 150 721.485351562 274.39453125 926.745117188 398.154296875 c 2
 959.375976562 417.829101562 l 1
 922.08984375 425.678710938 l 2
 886.522460938 433.166015625 795.177734375 465.083984375 650.544921875 522.9375 c 0
 556.796875 560.235351562 484.557617188 580 430 580 c 0
 359.208007812 580 287.252929688 532.658203125 216.895507812 449.509765625 c 1
EndSplineSet
EndChar

StartChar: uniFEA4
Encoding: 65188 65188 175
GlifName: uniF_E_A_4
Width: 1346
GlyphClass: 2
Flags: HW
AnchorPoint: "Anchor-10" 555 1055 basechar 0
AnchorPoint: "Anchor-7" 556 -239 basechar 0
LayerCount: 2
Fore
SplineSet
216.895507812 449.509765625 m 1
 155.271484375 478.508789062 l 1
 226.423828125 648.65625 322.09765625 738 457 738 c 0
 503.819335938 738 592.106445312 708.196289062 723.653320312 646.409179688 c 0
 936.696289062 546.921875 1109.25390625 497.028320312 1242.94238281 496 c 0
 1246.63671875 496 1248.609375 495.299804688 1248.95019531 495.147460938 c 0
 1249.20800781 493.83203125 1249.26953125 490.767578125 1247.625 485.284179688 c 2
 1205.65527344 344.452148438 l 1
 1145.31054688 340.485351562 1071.8515625 321.009765625 983.19921875 283.833007812 c 2
 973.854492188 279.9140625 l 1
 974.001953125 269.782226562 l 2
 975.155273438 190.145507812 1035.52832031 150 1135 150 c 2
 1351.43261719 150 l 2
 1354.80175781 146.349609375 1361 125.888671875 1361 87 c 2
 1361 62 l 2
 1361 23.3994140625 1354.56640625 3.41015625 1351.44726562 0 c 2
 1140 0 l 2
 982.24609375 0 900.481445312 73.4765625 890.96875 219.971679688 c 2
 889.400390625 244.119140625 l 1
 868.471679688 231.973632812 l 2
 675.37890625 119.919921875 466.564453125 0 182 0 c 2
 -5 0 l 2
 -30.9931640625 0 -45 14.0703125 -45 62 c 2
 -45 87 l 2
 -45 136.053710938 -30.9130859375 150 -5 150 c 2
 216 150 l 2
 437.125976562 150 721.485351562 274.39453125 926.745117188 398.154296875 c 2
 959.375976562 417.829101562 l 1
 922.08984375 425.678710938 l 2
 886.522460938 433.166015625 795.177734375 465.083984375 650.544921875 522.9375 c 0
 556.796875 560.235351562 484.557617188 580 430 580 c 0
 359.208007812 580 287.252929688 532.658203125 216.895507812 449.509765625 c 1
EndSplineSet
EndChar

StartChar: uniFEAA
Encoding: 65194 65194 181
GlifName: uniF_E_A_A_
Width: 1122
GlyphClass: 2
Flags: HW
AnchorPoint: "Anchor-10" 621 1218 basechar 0
AnchorPoint: "Anchor-7" 440 -246 basechar 0
LayerCount: 2
Fore
SplineSet
807.534179688 184.342773438 m 2
 725.657226562 62.009765625 597.43359375 0 416 0 c 0
 212.45703125 0 120 71.666015625 120 213 c 0
 120 240.918945312 123.911132812 272.119140625 130.833984375 305.75390625 c 1
 215 297.413085938 l 1
 215 186.178710938 294.088867188 150 417 150 c 0
 570.665039062 150 751 178.64453125 751 319 c 0
 751 341.091796875 748.127929688 351.048828125 741.1953125 371.848632812 c 2
 581.853515625 827.251953125 l 1
 666.806640625 936.747070312 l 2
 671.052734375 942.111328125 674.807617188 945.260742188 676.509765625 946.302734375 c 0
 678.3515625 944.284179688 681.598632812 938.76953125 684.7890625 929.19921875 c 2
 863.8046875 406.153320312 l 2
 920.373046875 240.489257812 1004.1328125 150 1116 150 c 2
 1127.43261719 150 l 2
 1130.80175781 146.349609375 1137 125.888671875 1137 87 c 2
 1137 62 l 2
 1137 23.3994140625 1130.56640625 3.41015625 1127.44726562 0 c 2
 1112 0 l 2
 986.685546875 0 894.374023438 59.8251953125 833.4375 182.666015625 c 2
 821.93359375 205.856445312 l 1
 807.534179688 184.342773438 l 2
EndSplineSet
PairPos2: "'kern' Horizontal Kerning lookup 0 subtable 4" uniFB90 dx=-120 dy=0 dh=-120 dv=0 dx=0 dy=0 dh=0 dv=0
PairPos2: "'kern' Horizontal Kerning lookup 0 subtable 4" uni06A9 dx=-120 dy=0 dh=-120 dv=0 dx=0 dy=0 dh=0 dv=0
PairPos2: "'kern' Horizontal Kerning lookup 0 subtable 4" uniFB94 dx=-120 dy=0 dh=-120 dv=0 dx=0 dy=0 dh=0 dv=0
PairPos2: "'kern' Horizontal Kerning lookup 0 subtable 4" uni06AF dx=-120 dy=0 dh=-120 dv=0 dx=0 dy=0 dh=0 dv=0
EndChar

StartChar: uniFEAE
Encoding: 65198 65198 185
GlifName: uniF_E_A_E_
Width: 854
GlyphClass: 2
Flags: HW
AnchorPoint: "Anchor-7" 316 -693 basechar 0
AnchorPoint: "Anchor-10" 455 840 basechar 0
LayerCount: 2
Fore
SplineSet
649.071289062 33.458984375 m 2
 607.104492188 -395.96875 169.555664062 -537 107 -537 c 0
 97.806640625 -537 82.876953125 -529.421875 69.630859375 -513.526367188 c 2
 30.935546875 -464.909179688 l 2
 19.189453125 -448.680664062 14.0869140625 -435.143554688 14.552734375 -432.861328125 c 0
 14.80078125 -432.608398438 15.99609375 -431.525390625 19.91796875 -430.479492188 c 0
 316.95703125 -348.918945312 532 -181.668945312 532 56 c 0
 532 147.552734375 492.444335938 244.193359375 445.416992188 313.762695312 c 1
 547.723632812 453.498046875 l 1
 581.184570312 388.467773438 623.581054688 309.090820312 649.00390625 265.509765625 c 0
 691.865234375 190.240234375 753.078125 150 829 150 c 2
 859.432617188 150 l 2
 862.801757812 146.349609375 869 125.888671875 869 87 c 2
 869 62 l 2
 869 23.3994140625 862.56640625 3.41015625 859.447265625 0 c 2
 834 0 l 2
 772.73828125 0 713.328125 17.453125 672.254882812 44.5244140625 c 2
 651.490234375 58.2099609375 l 1
 649.071289062 33.458984375 l 2
EndSplineSet
PairPos2: "'kern' Horizontal Kerning lookup 0 subtable 3" uni06C0 dx=-128 dy=0 dh=-128 dv=0 dx=0 dy=0 dh=0 dv=0
PairPos2: "'kern' Horizontal Kerning lookup 0 subtable 3" uni0621 dx=-128 dy=0 dh=-128 dv=0 dx=0 dy=0 dh=0 dv=0
PairPos2: "'kern' Horizontal Kerning lookup 0 subtable 2" uni0648 dx=-43 dy=0 dh=-43 dv=0 dx=0 dy=0 dh=0 dv=0
PairPos2: "'kern' Horizontal Kerning lookup 0 subtable 0" uniFB58 dx=20 dy=0 dh=20 dv=0 dx=0 dy=0 dh=0 dv=0
PairPos2: "'kern' Horizontal Kerning lookup 0 subtable 0" uni0644 dx=-43 dy=0 dh=-43 dv=0 dx=0 dy=0 dh=0 dv=0
PairPos2: "'kern' Horizontal Kerning lookup 0 subtable 0" uni0642 dx=-43 dy=0 dh=-43 dv=0 dx=0 dy=0 dh=0 dv=0
PairPos2: "'kern' Horizontal Kerning lookup 0 subtable 0" uni0632 dx=-43 dy=0 dh=-43 dv=0 dx=0 dy=0 dh=0 dv=0
PairPos2: "'kern' Horizontal Kerning lookup 0 subtable 0" uni0631 dx=-43 dy=0 dh=-43 dv=0 dx=0 dy=0 dh=0 dv=0
PairPos2: "'kern' Horizontal Kerning lookup 0 subtable 0" uniFB8A dx=-43 dy=0 dh=-43 dv=0 dx=0 dy=0 dh=0 dv=0
PairPos2: "'kern' Horizontal Kerning lookup 0 subtable 0" uni0698 dx=-43 dy=0 dh=-43 dv=0 dx=0 dy=0 dh=0 dv=0
PairPos2: "'kern' Horizontal Kerning lookup 0 subtable 0" uniFB7C dx=-128 dy=0 dh=-128 dv=0 dx=0 dy=0 dh=0 dv=0
PairPos2: "'kern' Horizontal Kerning lookup 0 subtable 0" uni06CC dx=-43 dy=0 dh=-43 dv=0 dx=0 dy=0 dh=0 dv=0
PairPos2: "'kern' Horizontal Kerning lookup 0 subtable 0" uniFEEB dx=-128 dy=0 dh=-128 dv=0 dx=0 dy=0 dh=0 dv=0
PairPos2: "'kern' Horizontal Kerning lookup 0 subtable 0" uniFEDF dx=-128 dy=0 dh=-128 dv=0 dx=0 dy=0 dh=0 dv=0
PairPos2: "'kern' Horizontal Kerning lookup 0 subtable 0" uniFB90 dx=-213 dy=0 dh=-213 dv=0 dx=0 dy=0 dh=0 dv=0
PairPos2: "'kern' Horizontal Kerning lookup 0 subtable 0" uni06A9 dx=-213 dy=0 dh=-213 dv=0 dx=0 dy=0 dh=0 dv=0
PairPos2: "'kern' Horizontal Kerning lookup 0 subtable 0" uni0649 dx=-43 dy=0 dh=-43 dv=0 dx=0 dy=0 dh=0 dv=0
PairPos2: "'kern' Horizontal Kerning lookup 0 subtable 0" uni0647 dx=-128 dy=0 dh=-128 dv=0 dx=0 dy=0 dh=0 dv=0
PairPos2: "'kern' Horizontal Kerning lookup 0 subtable 0" uniFEE7 dx=-128 dy=0 dh=-128 dv=0 dx=0 dy=0 dh=0 dv=0
PairPos2: "'kern' Horizontal Kerning lookup 0 subtable 0" uniFEE3 dx=-128 dy=0 dh=-128 dv=0 dx=0 dy=0 dh=0 dv=0
PairPos2: "'kern' Horizontal Kerning lookup 0 subtable 0" uni0645 dx=-128 dy=0 dh=-128 dv=0 dx=0 dy=0 dh=0 dv=0
PairPos2: "'kern' Horizontal Kerning lookup 0 subtable 0" uniFEDB dx=-213 dy=0 dh=-213 dv=0 dx=0 dy=0 dh=0 dv=0
PairPos2: "'kern' Horizontal Kerning lookup 0 subtable 0" uniFED7 dx=-128 dy=0 dh=-128 dv=0 dx=0 dy=0 dh=0 dv=0
PairPos2: "'kern' Horizontal Kerning lookup 0 subtable 0" uniFED3 dx=-128 dy=0 dh=-128 dv=0 dx=0 dy=0 dh=0 dv=0
PairPos2: "'kern' Horizontal Kerning lookup 0 subtable 0" uni0641 dx=-128 dy=0 dh=-128 dv=0 dx=0 dy=0 dh=0 dv=0
PairPos2: "'kern' Horizontal Kerning lookup 0 subtable 0" uniFECF dx=-128 dy=0 dh=-128 dv=0 dx=0 dy=0 dh=0 dv=0
PairPos2: "'kern' Horizontal Kerning lookup 0 subtable 0" uniFECB dx=-128 dy=0 dh=-128 dv=0 dx=0 dy=0 dh=0 dv=0
PairPos2: "'kern' Horizontal Kerning lookup 0 subtable 0" uniFEC7 dx=-128 dy=0 dh=-128 dv=0 dx=0 dy=0 dh=0 dv=0
PairPos2: "'kern' Horizontal Kerning lookup 0 subtable 0" uni0638 dx=-128 dy=0 dh=-128 dv=0 dx=0 dy=0 dh=0 dv=0
PairPos2: "'kern' Horizontal Kerning lookup 0 subtable 0" uniFEC3 dx=-128 dy=0 dh=-128 dv=0 dx=0 dy=0 dh=0 dv=0
PairPos2: "'kern' Horizontal Kerning lookup 0 subtable 0" uni0637 dx=-128 dy=0 dh=-128 dv=0 dx=0 dy=0 dh=0 dv=0
PairPos2: "'kern' Horizontal Kerning lookup 0 subtable 0" uniFEBF dx=-128 dy=0 dh=-128 dv=0 dx=0 dy=0 dh=0 dv=0
PairPos2: "'kern' Horizontal Kerning lookup 0 subtable 0" uni0636 dx=-128 dy=0 dh=-128 dv=0 dx=0 dy=0 dh=0 dv=0
PairPos2: "'kern' Horizontal Kerning lookup 0 subtable 0" uniFEBB dx=-128 dy=0 dh=-128 dv=0 dx=0 dy=0 dh=0 dv=0
PairPos2: "'kern' Horizontal Kerning lookup 0 subtable 0" uni0635 dx=-128 dy=0 dh=-128 dv=0 dx=0 dy=0 dh=0 dv=0
PairPos2: "'kern' Horizontal Kerning lookup 0 subtable 0" uniFEB7 dx=-128 dy=0 dh=-128 dv=0 dx=0 dy=0 dh=0 dv=0
PairPos2: "'kern' Horizontal Kerning lookup 0 subtable 0" uni0634 dx=-128 dy=0 dh=-128 dv=0 dx=0 dy=0 dh=0 dv=0
PairPos2: "'kern' Horizontal Kerning lookup 0 subtable 0" uniFEB3 dx=-128 dy=0 dh=-128 dv=0 dx=0 dy=0 dh=0 dv=0
PairPos2: "'kern' Horizontal Kerning lookup 0 subtable 0" uni0633 dx=-128 dy=0 dh=-128 dv=0 dx=0 dy=0 dh=0 dv=0
PairPos2: "'kern' Horizontal Kerning lookup 0 subtable 0" uni0630 dx=-128 dy=0 dh=-128 dv=0 dx=0 dy=0 dh=0 dv=0
PairPos2: "'kern' Horizontal Kerning lookup 0 subtable 0" uni062F dx=-128 dy=0 dh=-128 dv=0 dx=0 dy=0 dh=0 dv=0
PairPos2: "'kern' Horizontal Kerning lookup 0 subtable 0" uniFEA7 dx=-128 dy=0 dh=-128 dv=0 dx=0 dy=0 dh=0 dv=0
PairPos2: "'kern' Horizontal Kerning lookup 0 subtable 0" uniFEA3 dx=-128 dy=0 dh=-128 dv=0 dx=0 dy=0 dh=0 dv=0
PairPos2: "'kern' Horizontal Kerning lookup 0 subtable 0" uniFE9F dx=-128 dy=0 dh=-128 dv=0 dx=0 dy=0 dh=0 dv=0
PairPos2: "'kern' Horizontal Kerning lookup 0 subtable 0" uniFE9B dx=-128 dy=0 dh=-128 dv=0 dx=0 dy=0 dh=0 dv=0
PairPos2: "'kern' Horizontal Kerning lookup 0 subtable 0" uni062B dx=-128 dy=0 dh=-128 dv=0 dx=0 dy=0 dh=0 dv=0
PairPos2: "'kern' Horizontal Kerning lookup 0 subtable 0" uniFE97 dx=-128 dy=0 dh=-128 dv=0 dx=0 dy=0 dh=0 dv=0
PairPos2: "'kern' Horizontal Kerning lookup 0 subtable 0" uni062A dx=-128 dy=0 dh=-128 dv=0 dx=0 dy=0 dh=0 dv=0
PairPos2: "'kern' Horizontal Kerning lookup 0 subtable 0" uni0629 dx=-128 dy=0 dh=-128 dv=0 dx=0 dy=0 dh=0 dv=0
PairPos2: "'kern' Horizontal Kerning lookup 0 subtable 0" uni0628 dx=-128 dy=0 dh=-128 dv=0 dx=0 dy=0 dh=0 dv=0
PairPos2: "'kern' Horizontal Kerning lookup 0 subtable 0" uni0627 dx=-150 dy=0 dh=-150 dv=0 dx=0 dy=0 dh=0 dv=0
PairPos2: "'kern' Horizontal Kerning lookup 0 subtable 0" uni0622 dx=-150 dy=0 dh=-150 dv=0 dx=0 dy=0 dh=0 dv=0
PairPos2: "'kern' Horizontal Kerning lookup 0 subtable 0" uniFB94 dx=-235 dy=0 dh=-235 dv=0 dx=0 dy=0 dh=0 dv=0
PairPos2: "'kern' Horizontal Kerning lookup 0 subtable 0" uni06AF dx=-235 dy=0 dh=-235 dv=0 dx=0 dy=0 dh=0 dv=0
PairPos2: "'kern' Horizontal Kerning lookup 0 subtable 0" uniFB56 dx=-128 dy=0 dh=-128 dv=0 dx=0 dy=0 dh=0 dv=0
PairPos2: "'kern' Horizontal Kerning lookup 0 subtable 0" uni067E dx=-128 dy=0 dh=-128 dv=0 dx=0 dy=0 dh=0 dv=0
EndChar

StartChar: uniFEB2
Encoding: 65202 65202 189
GlifName: uniF_E_B_2
Width: 2453
GlyphClass: 2
Flags: HW
AnchorPoint: "Anchor-7" 666 -749 basechar 0
AnchorPoint: "Anchor-10" 1676 931 basechar 0
LayerCount: 2
Fore
SplineSet
1460 0 m 0
 1382.44335938 0 1333.44824219 16.22265625 1309.11523438 43.0732421875 c 2
 1283 71.888671875 l 1
 1283 33 l 2
 1283 -344.458007812 1051.83203125 -539 667 -539 c 0
 334.748046875 -539 123 -371.87890625 123 -50 c 0
 123 79.796875 153.892578125 214.149414062 214.331054688 351.83984375 c 1
 297.33203125 326.940429688 l 1
 261.491210938 205.026367188 244 97.2177734375 244 -2 c 0
 244 -258.318359375 391.213867188 -389 674 -389 c 0
 937.97265625 -389 1162 -266.440429688 1162 -32 c 0
 1162 48.5654296875 1120.71679688 159.952148438 1041.37011719 312.165039062 c 1
 1132.58886719 451.84375 l 2
 1134.54589844 454.888671875 1136.47460938 456.924804688 1137.00683594 457.403320312 c 0
 1141.62304688 453.709960938 1149.30664062 441.810546875 1157.47167969 424.521484375 c 0
 1191.53710938 353.383789062 1219.62402344 297.138671875 1244.13769531 256.282226562 c 0
 1286.5390625 185.614257812 1360.37109375 150 1458 150 c 0
 1569.37011719 150 1622.70703125 209.208984375 1632.93261719 316.578125 c 2
 1649.63964844 492 l 1
 1735.28222656 492 l 1
 1751.05957031 315.668945312 l 2
 1760.703125 207.439453125 1826.85742188 150 1941 150 c 0
 2041.97753906 150 2098.58496094 210.385742188 2105.96484375 318.977539062 c 2
 2119.01074219 510 l 1
 2209.125 510 l 1
 2224.04394531 318.849609375 l 2
 2232.68164062 206.5625 2302.25195312 150 2440 150 c 2
 2459.43261719 150 l 2
 2462.80175781 146.349609375 2469 125.888671875 2469 87 c 2
 2469 62 l 2
 2469 23.3994140625 2462.56640625 3.41015625 2459.44726562 -0 c 2
 2439 0 l 2
 2292.84277344 0 2216.68066406 42.9765625 2179.73242188 127.036132812 c 2
 2166.49316406 157.154296875 l 1
 2152.4375 127.408203125 l 2
 2111.88769531 41.5927734375 2043.34375 0 1939 0 c 0
 1825.81738281 0 1749.18847656 40.634765625 1705.16210938 121.193359375 c 2
 1694.03027344 141.563476562 l 1
 1680.03320312 123.044921875 l 2
 1616.58789062 39.1015625 1556.796875 0 1460 0 c 0
EndSplineSet
EndChar

StartChar: uniFEB3
Encoding: 65203 65203 190
GlifName: uniF_E_B_3
Width: 1532
GlyphClass: 2
Flags: HW
AnchorPoint: "Anchor-10" 854 930 basechar 0
AnchorPoint: "Anchor-7" 815 -278 basechar 0
LayerCount: 2
Fore
SplineSet
1114 150 m 0
 1230.54101562 150 1295 210.373046875 1295 324 c 0
 1295 366.172851562 1267.91796875 455.170898438 1218.07324219 594.809570312 c 1
 1321.39746094 714.248046875 l 2
 1323.65917969 712.356445312 1329.12988281 705.584960938 1334.42675781 694.614257812 c 0
 1388.61816406 576.377929688 1416 465.299804688 1416 360 c 0
 1416 178.196289062 1290.45898438 0 1123 0 c 0
 1004.57617188 0 926.079101562 40.8359375 882.162109375 121.193359375 c 2
 871.030273438 141.563476562 l 1
 857.033203125 123.044921875 l 2
 794.446289062 40.236328125 716.36328125 0 619 0 c 0
 510.03125 0 435.298828125 40.43359375 391.162109375 121.193359375 c 2
 379.125976562 143.217773438 l 1
 365.4296875 122.185546875 l 2
 313.15234375 41.9013671875 217.393554688 0 72 0 c 2
 -5 0 l 2
 -30.9931640625 0 -45 14.0703125 -45 62 c 2
 -45 87 l 2
 -45 136.053710938 -30.9130859375 150 -5 150 c 2
 77 150 l 2
 225.944335938 150 315.006835938 204.182617188 324.94140625 315.669921875 c 2
 340.724609375 493 l 1
 427.2890625 493 l 1
 443.056640625 317.694335938 l 2
 452.626953125 208.172851562 515.17578125 150 624 150 c 0
 735.264648438 150 800.314453125 206.645507812 809.93359375 314.592773438 c 2
 826.653320312 492 l 1
 912.26953125 492 l 1
 928.060546875 313.655273438 l 2
 937.703125 206.517578125 1002.77246094 150 1114 150 c 0
EndSplineSet
EndChar

StartChar: uniFEB4
Encoding: 65204 65204 191
GlifName: uniF_E_B_4
Width: 1631
GlyphClass: 2
Flags: HW
AnchorPoint: "Anchor-10" 846 931 basechar 0
AnchorPoint: "Anchor-7" 864 -283 basechar 0
LayerCount: 2
Fore
SplineSet
1116 0 m 0
 1002.81738281 0 926.188476562 40.634765625 882.162109375 121.193359375 c 2
 871.030273438 141.563476562 l 1
 857.033203125 123.044921875 l 2
 794.446289062 40.236328125 716.36328125 0 619 0 c 0
 510.03125 0 435.298828125 40.43359375 391.162109375 121.193359375 c 2
 379.125976562 143.217773438 l 1
 365.4296875 122.185546875 l 2
 313.15234375 41.9013671875 217.393554688 0 72 0 c 2
 -5 0 l 2
 -30.9931640625 0 -45 14.0703125 -45 62 c 2
 -45 87 l 2
 -45 136.053710938 -30.9130859375 150 -5 150 c 2
 77 150 l 2
 226.841796875 150 315.004882812 203.168945312 324.94140625 314.669921875 c 2
 340.724609375 492 l 1
 427.228515625 492 l 1
 442.056640625 318.694335938 l 2
 451.633789062 209.09765625 515.184570312 150 625 150 c 0
 735.5 150 800.336914062 207.819335938 809.9375 316.629882812 c 2
 826.639648438 492 l 1
 912.282226562 492 l 1
 928.059570312 315.668945312 l 2
 937.703125 207.439453125 1003.85742188 150 1118 150 c 0
 1218.97753906 150 1275.58496094 210.385742188 1282.96484375 318.977539062 c 2
 1296.01074219 510 l 1
 1386.125 510 l 1
 1401.04394531 318.849609375 l 2
 1409.68164062 206.5625 1479.25195312 150 1617 150 c 2
 1636.43261719 150 l 2
 1639.80175781 146.349609375 1646 125.888671875 1646 87 c 2
 1646 62 l 2
 1646 23.3994140625 1639.56640625 3.41015625 1636.44726562 -0 c 2
 1616 0 l 2
 1469.84277344 0 1393.68066406 42.9765625 1356.73242188 127.036132812 c 2
 1343.49316406 157.154296875 l 1
 1329.4375 127.408203125 l 2
 1288.88769531 41.5927734375 1220.34375 0 1116 0 c 0
EndSplineSet
EndChar

StartChar: uniFEBA
Encoding: 65210 65210 197
GlifName: uniF_E_B_A_
Width: 2651
GlyphClass: 2
Flags: HW
AnchorPoint: "Anchor-10" 2104 1083 basechar 0
AnchorPoint: "Anchor-7" 666 -749 basechar 0
LayerCount: 2
Fore
SplineSet
1283 33 m 2
 1283 -352.420898438 1052.02148438 -539 667 -539 c 0
 334.748046875 -539 123 -371.87890625 123 -50 c 0
 123 79.796875 153.892578125 214.149414062 214.331054688 351.83984375 c 1
 297.33203125 326.940429688 l 1
 261.491210938 205.026367188 244 97.2177734375 244 -2 c 0
 244 -258.318359375 391.213867188 -389 674 -389 c 0
 922.615234375 -389 1162 -272.87890625 1162 -32 c 0
 1162 48.5654296875 1120.71679688 159.952148438 1041.37011719 312.165039062 c 1
 1132.20605469 451.256835938 l 2
 1134.82226562 454.54296875 1136.78417969 456.317382812 1137.73828125 457.06640625 c 0
 1141.60839844 453.465820312 1148.94824219 441.10546875 1157.61035156 424.23828125 c 2
 1229.62207031 279.213867188 l 2
 1275.43652344 190.782226562 1353.70410156 151 1452 151 c 2
 1460.28320312 151 l 1
 1464.6953125 158.010742188 l 2
 1699.93847656 531.80859375 1935.39648438 713 2169 713 c 0
 2365.22167969 713 2487 583.127929688 2487 404 c 0
 2487 305.756835938 2460.078125 231.234375 2405.30273438 175.515625 c 2
 2380.21972656 150 l 1
 2416 150 l 1
 2656.43261719 150 l 2
 2659.80175781 146.349609375 2666 125.888671875 2666 87 c 2
 2666 62 l 2
 2666 23.3994140625 2659.56640625 3.41015625 2656.44726562 -0 c 2
 2607 0 l 2
 2472.63476562 0 2362.12988281 22.7822265625 2276.00488281 68.263671875 c 2
 2269.42089844 71.740234375 l 1
 2262.671875 68.599609375 l 2
 2164.89160156 23.09765625 2021.87597656 0 1832 0 c 2
 1587 0 l 2
 1437.54199219 0 1344.20703125 17.3115234375 1306.95507812 45.033203125 c 2
 1283 62.8603515625 l 1
 1283 33 l 2
1602 151 m 1
 1843 151 l 2
 2136.79785156 151 2357 179.133789062 2357 385 c 0
 2357 499.142578125 2274.96289062 566 2156 566 c 0
 1989.89746094 566 1803.00292969 433.240234375 1590.42871094 175.544921875 c 2
 1570.18164062 151 l 1
 1602 151 l 1
EndSplineSet
EndChar

StartChar: uniFEBB
Encoding: 65211 65211 198
GlifName: uniF_E_B_B_
Width: 1685
GlyphClass: 2
Flags: HW
AnchorPoint: "Anchor-7" 879 -254 basechar 0
AnchorPoint: "Anchor-10" 1149 1105 basechar 0
LayerCount: 2
Fore
SplineSet
1252 713 m 0
 1448.21777344 713 1568 585.237304688 1568 404 c 0
 1568 136.392578125 1358.32910156 0 914 0 c 2
 670 0 l 2
 502.075195312 0 387.729492188 42.5654296875 325.899414062 123.131835938 c 2
 313.106445312 139.802734375 l 1
 301.497070312 122.287109375 l 2
 247.868164062 41.373046875 158.841796875 0 28 0 c 2
 -5 0 l 2
 -30.9931640625 0 -45 14.0703125 -45 62 c 2
 -45 87 l 2
 -45 136.053710938 -30.9130859375 150 -5 150 c 2
 29 150 l 2
 157.645507812 150 235.91015625 205.776367188 248.897460938 317.251953125 c 2
 270.342773438 500 l 1
 358.716796875 500 l 1
 381.108398438 316.200195312 l 2
 392.712890625 220.1953125 444.135742188 161.969726562 533.184570312 151.110351562 c 2
 542.627929688 149.958984375 l 1
 547.6953125 158.010742188 l 2
 782.938476562 531.80859375 1018.39648438 713 1252 713 c 0
685 151 m 1
 926 151 l 2
 1173.57910156 151 1439 160.171875 1439 385 c 0
 1439 499.032226562 1358.04101562 566 1239 566 c 0
 1072.89746094 566 886.002929688 433.240234375 673.428710938 175.544921875 c 2
 653.181640625 151 l 1
 685 151 l 1
EndSplineSet
EndChar

StartChar: uniFEBC
Encoding: 65212 65212 199
GlifName: uniF_E_B_C_
Width: 1733
GlyphClass: 2
Flags: HW
AnchorPoint: "Anchor-7" 879 -254 basechar 0
AnchorPoint: "Anchor-10" 1149 1105 basechar 0
LayerCount: 2
Fore
SplineSet
685 151 m 1
 926 151 l 2
 1219.61816406 151 1439 174.1875 1439 385 c 0
 1439 499.032226562 1358.04101562 566 1239 566 c 0
 1072.89746094 566 886.002929688 433.240234375 673.428710938 175.544921875 c 2
 653.181640625 151 l 1
 685 151 l 1
1252 713 m 0
 1448.22167969 713 1570 583.127929688 1570 404 c 0
 1570 305.879882812 1542.15332031 231.311523438 1487.30273438 175.515625 c 2
 1462.21972656 150 l 1
 1498 150 l 1
 1739.43261719 150 l 2
 1742.80175781 146.349609375 1749 125.888671875 1749 87 c 2
 1749 62 l 2
 1749 23.3994140625 1742.56640625 3.41015625 1739.44726562 0 c 2
 1690 0 l 2
 1555.640625 0 1446.15820312 22.75 1358.94335938 68.2958984375 c 2
 1352.3828125 71.72265625 l 1
 1345.671875 68.599609375 l 2
 1247.9140625 23.1083984375 1103.875 0 914 0 c 2
 670 0 l 2
 502.075195312 0 387.729492188 42.5654296875 325.899414062 123.131835938 c 2
 313.106445312 139.802734375 l 1
 301.497070312 122.287109375 l 2
 247.868164062 41.373046875 158.841796875 0 28 0 c 2
 -5 0 l 2
 -30.9931640625 0 -45 14.0703125 -45 62 c 2
 -45 87 l 2
 -45 136.053710938 -30.9130859375 150 -5 150 c 2
 29 150 l 2
 157.645507812 150 235.91015625 205.776367188 248.897460938 317.251953125 c 2
 270.342773438 500 l 1
 358.716796875 500 l 1
 381.108398438 316.200195312 l 2
 392.712890625 220.1953125 444.135742188 161.969726562 533.184570312 151.110351562 c 2
 542.627929688 149.958984375 l 1
 547.6953125 158.010742188 l 2
 782.938476562 531.80859375 1018.39648438 713 1252 713 c 0
EndSplineSet
EndChar

StartChar: uniFEC2
Encoding: 65218 65218 205
GlifName: uniF_E_C_2
Width: 1582
GlyphClass: 2
Flags: HW
AnchorPoint: "Anchor-10" 468 1475 basechar 0
AnchorPoint: "Anchor-7" 683 -235 basechar 0
LayerCount: 2
Fore
SplineSet
227.666992188 0 m 1
 120.158203125 148.78515625 l 1
 119.71484375 149.399414062 l 1
 119.357421875 149.80078125 l 1
 119.357421875 149.80078125 119.211914062 151 124 151 c 2
 393 151 l 1
 400.962890625 151 l 1
 405.423828125 157.595703125 l 2
 428.234375 191.315429688 452.295898438 224.390625 474.59375 258.8515625 c 2
 477 262.5703125 l 1
 477 267 l 2
 477 478.637695312 436.42578125 1096.4609375 415.028320312 1286.95605469 c 1
 556.60546875 1369.07128906 l 2
 560.57225151 1371.4020819 560 1363.82055728 560 1356.87011719 c 6
 576.001953125 435.739257812 l 1
 576.69140625 396.078125 l 1
 602.41796875 426.271484375 l 2
 767.885742188 620.474609375 935.978515625 715 1107 715 c 0
 1299.81347656 715 1422 579.34765625 1422 403 c 0
 1422 303.693359375 1395.00195312 229.215820312 1341.39355469 175.606445312 c 2
 1315.78710938 150 l 1
 1352 150 l 1
 1588.578125 150 l 2
 1591.84863281 146.510742188 1598 126.784179688 1598 88 c 2
 1598 63 l 2
 1598 24.3994140625 1591.56640625 4.41015625 1588.44726562 1 c 2
 1539 1 l 2
 1432.12597656 1 1322.10742188 23.525390625 1208.67480469 69.884765625 c 2
 1202.57910156 72.3759765625 l 1
 1196.61914062 69.5751953125 l 2
 1099.90625 24.1201171875 953.854492188 0 759 0 c 2
 227.666992188 0 l 1
1292 385 m 0
 1292 499.858398438 1213.05761719 566 1093 566 c 0
 927.888671875 566 740.01953125 433.260742188 527.428710938 175.544921875 c 2
 507.181640625 151 l 1
 539 151 l 1
 770 151 l 2
 1070.40820312 151 1292 172.084960938 1292 385 c 0
EndSplineSet
EndChar

StartChar: uniFEC3
Encoding: 65219 65219 206
GlifName: uniF_E_C_3
Width: 1296
GlyphClass: 2
Flags: HW
AnchorPoint: "Anchor-10" 218 1475 basechar 0
AnchorPoint: "Anchor-7" 483 -245 basechar 0
LayerCount: 2
Fore
SplineSet
1050 385 m 0
 1050 499.032226562 969.041015625 566 850 566 c 0
 683.897460938 566 497.002929688 433.240234375 284.428710938 175.544921875 c 2
 264.181640625 151 l 1
 296 151 l 1
 537 151 l 2
 830.700195312 151 1050 176.1796875 1050 385 c 0
-5 0 m 2
 -30.9931640625 0 -45 14.0703125 -45 62 c 2
 -45 87 l 2
 -45 136.053710938 -30.9130859375 150 -5 150 c 2
 150 150 l 1
 158.16015625 150 l 1
 162.59375 156.8515625 l 2
 184.48046875 190.676757812 207.368164062 224.509765625 231.254882812 258.349609375 c 2
 234.052734375 262.314453125 l 1
 233.999023438 267.166992188 l 2
 233.002929688 356.8515625 213.173828125 898.875 171.952148438 1286.91210938 c 1
 313.60546875 1369.07128906 l 2
 317.57225151 1371.4020819 317 1363.82055728 317 1356.87011719 c 6
 333.001953125 435.739257812 l 1
 333.689453125 396.203125 l 1
 359.397460938 426.248046875 l 2
 523.856445312 618.447265625 691.965820312 713 863 713 c 0
 1059.21777344 713 1179 585.237304688 1179 404 c 0
 1179 136.235351562 972.166015625 0 535 0 c 2
 -5 0 l 2
EndSplineSet
EndChar

StartChar: uniFEC4
Encoding: 65220 65220 207
GlifName: uniF_E_C_4
Width: 1339
GlyphClass: 2
Flags: HW
AnchorPoint: "Anchor-10" 218 1475 basechar 0
AnchorPoint: "Anchor-7" 476 -240 basechar 0
LayerCount: 2
Fore
SplineSet
-5 0 m 2
 -30.9931640625 0 -45 14.0703125 -45 62 c 2
 -45 87 l 2
 -45 136.053710938 -30.9130859375 150 -5 150 c 2
 150 150 l 1
 158.16015625 150 l 1
 162.59375 156.8515625 l 2
 184.48046875 190.676757812 207.368164062 224.509765625 231.254882812 258.349609375 c 2
 234.052734375 262.314453125 l 1
 233.999023438 267.166992188 l 2
 233.002929688 356.8515625 213.173828125 898.875 171.952148438 1286.91210938 c 1
 313.60546875 1369.07128906 l 2
 317.57225151 1371.4020819 317 1363.82055728 317 1356.87011719 c 6
 333.001953125 435.739257812 l 1
 333.689453125 396.203125 l 1
 359.397460938 426.248046875 l 2
 523.856445312 618.447265625 691.965820312 713 863 713 c 0
 1059.21777344 713 1179 585.237304688 1179 404 c 0
 1179 312.897460938 1153.06640625 236.80078125 1100.62402344 175.776367188 c 2
 1079.33105469 151 l 1
 1112 151 l 1
 1344.43261719 151 l 2
 1347.80175781 147.349609375 1354 126.888671875 1354 88 c 2
 1354 63 l 2
 1354 24.3994140625 1347.56640625 4.41015625 1344.44726562 1 c 2
 1295 1 l 2
 1187.20410156 1 1078.21582031 24.4873046875 965.717773438 70.8671875 c 2
 959.78515625 73.3134765625 l 1
 953.919921875 70.712890625 l 2
 850.635742188 24.9169921875 710.630859375 0 535 0 c 2
 -5 0 l 2
1050 385 m 0
 1050 499.032226562 969.041015625 566 850 566 c 0
 683.897460938 566 497.002929688 433.240234375 284.428710938 175.544921875 c 2
 264.181640625 151 l 1
 296 151 l 1
 537 151 l 2
 830.700195312 151 1050 176.1796875 1050 385 c 0
EndSplineSet
EndChar

StartChar: uniFECA
Encoding: 65226 65226 213
GlifName: uniF_E_C_A_
Width: 1263
GlyphClass: 2
Flags: HW
AnchorPoint: "Anchor-7" 701 -837 basechar 0
AnchorPoint: "Anchor-10" 644 1178 basechar 0
LayerCount: 2
Fore
SplineSet
684 783 m 0
 899.065429688 783 989 738.182617188 989 654 c 0
 989 585.900390625 938.172851562 509.427734375 818.377929688 425.274414062 c 2
 810.001953125 419.390625 l 1
 812.426757812 409.4453125 l 2
 854.485351562 237.008789062 997.3828125 151.015625 1229 150 c 2
 1268.43261719 150 l 2
 1271.80175781 146.349609375 1278 125.888671875 1278 87 c 2
 1278 62 l 2
 1278 23.3994140625 1271.56640625 3.41015625 1268.44726562 0 c 2
 1233 0 l 2
 924.700195312 0 767.512695312 120.225585938 726.798828125 366.447265625 c 2
 723.944335938 383.713867188 l 1
 707.317382812 378.25 l 2
 424.575195312 285.349609375 235 113.951171875 235 -145 c 0
 235 -393.353515625 419.271484375 -515 766 -515 c 0
 882.958984375 -515 1010.60546875 -508.712890625 1145.77050781 -488.057617188 c 1
 1102.31347656 -583.862304688 l 2
 1083.20703125 -626.961914062 1081.6328125 -635.022460938 1044.92675781 -640.143554688 c 0
 976.952148438 -649.62890625 890.471679688 -655 788 -655 c 0
 388.290039062 -655 118 -519.00390625 118 -173 c 0
 118 163.280273438 384.666015625 404.2578125 655.3671875 507.993164062 c 2
 670.715820312 513.875 l 1
 663.458984375 528.623046875 l 2
 628.420898438 599.828125 519.65234375 631.899414062 355 633.915039062 c 1
 355 726.510742188 l 1
 424.18359375 766.168945312 533.349609375 783 684 783 c 0
EndSplineSet
EndChar

StartChar: uniFECB
Encoding: 65227 65227 214
GlifName: uniF_E_C_B_
Width: 1023
GlyphClass: 2
Flags: HW
AnchorPoint: "Anchor-10" 486 1157 basechar 0
AnchorPoint: "Anchor-7" 468 -246 basechar 0
LayerCount: 2
Fore
SplineSet
160 415 m 0
 160 639.373046875 326.73828125 811 537 811 c 0
 642.190429688 811 734.405273438 773.189453125 812.446289062 700.037109375 c 1
 775.331054688 602.41015625 l 1
 679.822265625 638.614257812 609.109375 656 555 656 c 0
 388.896484375 656 269 500.01953125 269 433 c 0
 269 354.709960938 354.9765625 281.69921875 496.034179688 193.290039062 c 2
 501.387695312 189.934570312 l 1
 507.529296875 191.420898438 l 1
 887.51953125 283.418945312 l 2
 899.114257812 286.217773438 906.119140625 285.494140625 907.560546875 285.005859375 c 0
 907.775390625 283.760742188 907.849609375 282.022460938 907.229492188 278.616210938 c 2
 883.806640625 142.759765625 l 1
 561.953125 48.56640625 295.8515625 0.98046875 83 0 c 2
 -5 0 l 2
 -30.9931640625 0 -45 14.0703125 -45 62 c 2
 -45 87 l 2
 -45 136.053710938 -30.9130859375 150 -5 150 c 2
 286 150 l 1
 330.747070312 150 l 1
 295.041015625 176.969726562 l 2
 203.62890625 246.014648438 160 324.454101562 160 415 c 0
EndSplineSet
EndChar

StartChar: uniFECC
Encoding: 65228 65228 215
GlifName: uniF_E_C_C_
Width: 959
GlyphClass: 2
Flags: HW
AnchorPoint: "Anchor-10" 503 1033 basechar 0
AnchorPoint: "Anchor-7" 459 -246 basechar 0
LayerCount: 2
Fore
SplineSet
518 649 m 0
 731.599609375 649 816 606.690429688 816 532 c 0
 816 479.709960938 764.986328125 402.180664062 645.397460938 302.5234375 c 2
 634.95703125 293.823242188 l 1
 642.587890625 282.577148438 l 2
 702.111328125 194.859375 778.522460938 150 923 150 c 2
 964.432617188 150 l 2
 967.801757812 146.349609375 974 125.888671875 974 87 c 2
 974 62 l 2
 974 23.3994140625 967.56640625 3.41015625 964.447265625 0 c 2
 920 0 l 2
 772.494140625 0 675.555664062 53.875 572.329101562 172.831054688 c 2
 562.416992188 184.25390625 l 1
 551.075195312 174.248046875 l 2
 417.66796875 56.5341796875 267.549804688 0.98046875 92 0 c 2
 -5 0 l 2
 -30.9931640625 0 -45 14.0703125 -45 62 c 2
 -45 87 l 2
 -45 136.053710938 -30.9130859375 150 -5 150 c 2
 94 150 l 2
 290.022460938 150 429.19140625 185.700195312 504.922851562 284.897460938 c 2
 508.534179688 289.627929688 l 1
 507.919921875 295.547851562 l 2
 495.915039062 411.234375 371.928710938 481.482421875 190 496.897460938 c 1
 190 585.405273438 l 1
 262.7265625 626.610351562 372.411132812 649 518 649 c 0
EndSplineSet
EndChar

StartChar: uniFEDA
Encoding: 65242 65242 229
GlifName: uniF_E_D_A_
Width: 1936
GlyphClass: 2
Flags: HW
AnchorPoint: "Anchor-10" 970 1310 basechar 0
AnchorPoint: "Anchor-7" 881 -220 basechar 0
LayerCount: 2
Fore
SplineSet
891 628 m 0
 959.93359375 628 1091 640.29296875 1091 719 c 0
 1091 764.828125 1031.16601562 788.321289062 943.16796875 807.662109375 c 0
 835.478515625 830.534179688 786 888.821289062 786 990 c 0
 786 1106.19238281 880.91015625 1177.25878906 1091.32519531 1206.17871094 c 0
 1102.90722656 1208.22265625 1110.65332031 1207.7421875 1114.99902344 1206.38671875 c 0
 1119.22949219 1205.06640625 1122.58203125 1205.18164062 1117.796875 1190.82519531 c 2
 1084.95800781 1095.95800781 l 1
 932.32421875 1080.00878906 835 1048.62011719 835 982 c 0
 835 935.799804688 895.595703125 913.665039062 983.372070312 898.232421875 c 0
 1096.94824219 878.01953125 1151 828.28515625 1151 719 c 0
 1151 584.6953125 1039.70800781 520 887 520 c 0
 815.534179688 520 754.052734375 529.932617188 687.044921875 550.6484375 c 1
 697.198242188 660.767578125 l 1
 764.944335938 639.015625 828.494140625 628 891 628 c 0
1595 548 m 0
 1595 763.798828125 1593.74609375 920.668945312 1553.87011719 1267.32519531 c 1
 1694.31640625 1376.24316406 l 2
 1699.02929688 1380.05761719 1702.56835938 1381.98242188 1704.73242188 1382.81542969 c 0
 1705.83007812 1380.05761719 1707 1374.25292969 1707 1364.98144531 c 2
 1708 535 l 2
 1708 290.405273438 1771.43847656 151.114257812 1912.94140625 150 c 2
 1941.43261719 150 l 2
 1944.80175781 146.349609375 1951 125.888671875 1951 87 c 2
 1951 62 l 2
 1951 23.3994140625 1944.56640625 3.41015625 1941.44726562 -0 c 2
 1913.05761719 0 l 2
 1790.10058594 0.9462890625 1707.75878906 66.984375 1659.16992188 206.919921875 c 2
 1647.54296875 240.40625 l 1
 1631.60253906 208.74609375 l 2
 1565.22949219 76.9228515625 1295.21289062 2 809 2 c 0
 423.559570312 2 119 90.1435546875 119 430 c 0
 119 507.299804688 136.595703125 605.055664062 177.727539062 693.447265625 c 1
 252.849609375 667.415039062 l 1
 233.42578125 593.934570312 229 546.4609375 229 499 c 0
 229 228.442382812 487.771484375 150 823 150 c 0
 1108.01464844 150 1379.66894531 181.348632812 1544.3359375 271.916015625 c 0
 1585.11230469 295.216796875 1595 391.5546875 1595 548 c 0
EndSplineSet
EndChar

StartChar: uniFEDB
Encoding: 65243 65243 230
GlifName: uniF_E_D_B_
Width: 931
GlyphClass: 2
Flags: HW
AnchorPoint: "Anchor-7" 335 -268 basechar 0
AnchorPoint: "Anchor-10" 269 1428 basechar 0
LayerCount: 2
Fore
SplineSet
-5 0 m 2
 -30.9931640625 0 -45 14.0703125 -45 62 c 2
 -45 87 l 2
 -45 136.053710938 -30.9130859375 150 -5 150 c 2
 137 150 l 2
 360.244140625 150 573 220.822265625 573 365 c 0
 573 474.629882812 391.404296875 661.271484375 55.4208984375 945.7578125 c 1
 89.087890625 1116.82128906 l 1
 853.159179688 1396.91503906 l 2
 854.581054688 1397.43652344 856.974609375 1398.28710938 857.29296875 1398.3984375 c 1
 856.837890625 1395.26464844 856.609375 1393.81054688 856.174804688 1390.9921875 c 2
 833.557617188 1244.25292969 l 1
 214.141601562 1032.19140625 l 1
 189.946289062 1023.90820312 l 1
 208.984375 1006.83300781 l 2
 529.133789062 719.700195312 683 513.609375 683 370 c 0
 683 106.265625 437.561523438 0 137 0 c 2
 -5 0 l 2
EndSplineSet
EndChar

StartChar: uniFEDC
Encoding: 65244 65244 231
GlifName: uniF_E_D_C_
Width: 1191
GlyphClass: 2
Flags: HW
AnchorPoint: "Anchor-7" 335 -268 basechar 0
AnchorPoint: "Anchor-10" 269 1428 basechar 0
LayerCount: 2
Fore
SplineSet
208.92578125 1006.88574219 m 2
 411.498046875 823.274414062 588.001953125 641.766601562 737.481445312 462.391601562 c 0
 908.748046875 257.071289062 1046.875 150 1188 150 c 2
 1196.43261719 150 l 2
 1199.80175781 146.349609375 1206 125.888671875 1206 87 c 2
 1206 62 l 2
 1206 23.3994140625 1199.56640625 3.41015625 1196.44726562 0 c 2
 1184 0 l 2
 1019.03320312 0 877.094726562 100.201171875 718.979492188 310.02734375 c 2
 704.092773438 329.783203125 l 1
 693.45703125 307.44921875 l 2
 615.00390625 142.697265625 508.801757812 0 135 0 c 2
 -5 0 l 2
 -30.9931640625 0 -45 14.0703125 -45 62 c 2
 -45 87 l 2
 -45 136.053710938 -30.9130859375 150 -5 150 c 2
 136 150 l 2
 377.07421875 150 583 224.102539062 583 390 c 0
 583 481.00390625 401.352539062 652.518554688 55.4189453125 945.75 c 1
 89.087890625 1116.82128906 l 1
 853.103515625 1396.89453125 l 2
 854.448242188 1397.375 856.916015625 1398.23144531 857.290039062 1398.359375 c 1
 856.870117188 1395.47753906 856.604492188 1393.77539062 856.174804688 1390.9921875 c 2
 833.557617188 1244.25292969 l 1
 214.141601562 1032.19140625 l 1
 190.091796875 1023.95800781 l 1
 208.92578125 1006.88574219 l 2
EndSplineSet
EndChar

StartChar: uniFEDE
Encoding: 65246 65246 233
GlifName: uniF_E_D_E_
Width: 1399
GlyphClass: 2
Flags: HW
AnchorPoint: "Anchor-10" 587 989 basechar 0
AnchorPoint: "Anchor-7" 617 -766 basechar 0
LayerCount: 2
Fore
SplineSet
649 -539 m 0
 325.76171875 -539 122 -354.619140625 122 -40 c 0
 122 79.8818359375 154.020507812 211.862304688 218.138671875 351.8984375 c 1
 301.244140625 326.966796875 l 1
 263.747070312 202.654296875 245 96.64453125 245 4 c 0
 245 -255.58203125 385.458007812 -389 655 -389 c 0
 931.622070312 -389 1066 -262.938476562 1066 23 c 0
 1066 318.670898438 1024.41992188 1099.07617188 1007.82714844 1280.00390625 c 1
 1144.6171875 1362.07714844 l 2
 1150.79549976 1365.6559575 1150.66364016 1364.41754451 1151.0078125 1356.50390625 c 6
 1174.00488281 346.627929688 l 2
 1177.18554688 218.344726562 1249.33984375 150 1381 150 c 2
 1404.43261719 150 l 2
 1407.80175781 146.349609375 1414 125.888671875 1414 87 c 2
 1414 62 l 2
 1414 23.3994140625 1407.56640625 3.41015625 1404.44726562 0 c 2
 1382 0 l 2
 1283.77148438 0 1228.46875 19.74609375 1206.43261719 52.392578125 c 2
 1179.12207031 92.8515625 l 1
 1179 44.037109375 l 2
 1178.015625 -348.717773438 990.915039062 -539 649 -539 c 0
EndSplineSet
EndChar

StartChar: uniFEDF
Encoding: 65247 65247 234
GlifName: uniF_E_D_F_
Width: 556
GlyphClass: 2
Flags: HW
AnchorPoint: "Anchor-10" 268 1475 basechar 0
AnchorPoint: "Anchor-7" 183 -266 basechar 0
LayerCount: 2
Fore
SplineSet
-5 150 m 2
 37 150 l 2
 259.224609375 150 284 194.380859375 284 434 c 0
 284 653.98828125 265.094726562 860.513671875 222.890625 1279.90917969 c 1
 351.557617188 1355.04296875 l 2
 358.049804688 1358.83007812 362.934570312 1360.1875 364.345703125 1360.35449219 c 0
 365.017578125 1358.77441406 365.802734375 1355.64453125 366.015625 1350.30957031 c 0
 380.0078125 1046.47949219 397 615.274414062 397 447 c 0
 397 125 331.897460938 0 31 0 c 2
 -5 0 l 2
 -30.9931640625 0 -45 14.0703125 -45 62 c 2
 -45 87 l 2
 -45 136.053710938 -30.9130859375 150 -5 150 c 2
EndSplineSet
EndChar

StartChar: uniFEE0
Encoding: 65248 65248 235
GlifName: uniF_E_E_0
Width: 651
GlyphClass: 2
Flags: HW
AnchorPoint: "Anchor-10" 328 1475 basechar 0
AnchorPoint: "Anchor-7" 304 -263 basechar 0
LayerCount: 2
Fore
SplineSet
-5 150 m 2
 60 150 l 2
 254.3203125 150 304 282.099609375 304 465 c 0
 304 648.510742188 284.30078125 1002.96875 268.4921875 1280.78125 c 1
 409.6484375 1365.09667969 l 2
 410.314453125 1365.48828125 411.387695312 1366.05664062 411.387695312 1366.05664062 c 2
 411.848632812 1363.10449219 412 1360.82519531 412 1357 c 2
 412 416 l 2
 412 245.411132812 471.15625 150 627 150 c 2
 656.432617188 150 l 2
 659.801757812 146.349609375 666 125.888671875 666 87 c 2
 666 62 l 2
 666 23.3994140625 659.56640625 3.41015625 656.447265625 0 c 2
 626 0 l 2
 492.219726562 0 417.290039062 45.76953125 356.655273438 141.052734375 c 2
 345.227539062 159.010742188 l 1
 332.16015625 142.208984375 l 2
 257.326171875 45.994140625 170.016601562 0 66 0 c 2
 -5 0 l 2
 -30.9931640625 0 -45 14.0703125 -45 62 c 2
 -45 87 l 2
 -45 136.053710938 -30.9130859375 150 -5 150 c 2
EndSplineSet
EndChar

StartChar: uniFEE2
Encoding: 65250 65250 237
GlifName: uniF_E_E_2
Width: 1249
GlyphClass: 2
Flags: HW
AnchorPoint: "Anchor-10" 612 1030 basechar 0
AnchorPoint: "Anchor-7" 222 -793 basechar 0
LayerCount: 2
Fore
SplineSet
787 -40 m 0
 871.348632812 -40 941 12.861328125 941 106 c 0
 941 155.522234374 913.579101562 196.407226562 848 243 c 6
 614.638671875 403.798828125 l 1
 614.004882812 379.389648438 l 2
 611.997070312 302.086914062 612 236.986328125 612 148 c 0
 612 26.89453125 672.005859375 -40 787 -40 c 0
1244 150 m 2
 1254.43261719 150 l 2
 1257.80175781 146.349609375 1264 125.888671875 1264 87 c 2
 1264 62 l 2
 1264 23.3994140625 1257.56640625 3.41015625 1254.44726562 0 c 2
 1248 0 l 2
 1177.51660156 0 1117.6875 23.4189453125 1067.40039062 71.80859375 c 2
 1049.62207031 88.916015625 l 1
 1042.6171875 65.2587890625 l 2
 990.525390625 -110.674804688 901.375976562 -193 775 -193 c 0
 596.54296875 -193 506.98046875 -86.337890625 506 143 c 0
 506 193.8046875 506.997070312 245.7109375 507.997070312 296.706054688 c 2
 508.401367188 317.331054688 l 1
 488.65625 311.357421875 l 2
 367.381835938 274.668945312 280.65625 214.953125 234.107421875 136.666015625 c 2
 231.907226562 132.966796875 l 1
 232.00390625 128.663085938 l 1
 246.00390625 -494.357421875 l 2
 246.8203125 -528.62890625 217.49609375 -583.325195312 150.279296875 -653.5078125 c 0
 143.700195312 -660.0859375 137.095703125 -664.5546875 134.7734375 -665.529296875 c 0
 133.375 -662.625 131.491210938 -655.21875 130.987304688 -643.372070312 c 0
 122.990234375 -452.456054688 116 -247.673828125 116 -34 c 0
 116 217.104492188 231.62109375 423.328125 519.057617188 463.141601562 c 2
 529.926757812 464.647460938 l 1
 531.783203125 475.4609375 l 2
 542.94921875 540.484375 555.458984375 598.002929688 569.243164062 616.252929688 c 0
 574.811523438 623.624023438 575.435546875 623.719726562 582.883789062 618.087890625 c 2
 1089.828125 230.130859375 l 2
 1156.19042969 178.850585938 1205.66210938 150 1244 150 c 2
EndSplineSet
EndChar

StartChar: uniFEE3
Encoding: 65251 65251 238
GlifName: uniF_E_E_3
Width: 1028
GlyphClass: 2
Flags: HW
AnchorPoint: "Anchor-10" 576 1016 basechar 0
AnchorPoint: "Anchor-7" 537 -264 basechar 0
LayerCount: 2
Fore
SplineSet
-5 0 m 2
 -30.9931640625 0 -45 14.0703125 -45 62 c 2
 -45 87 l 2
 -45 136.053710938 -30.9130859375 150 -5 150 c 2
 21 150 l 2
 92.0234375 150 161.448242188 199.61328125 308.137695312 401.186523438 c 0
 422.868164062 559.192382812 513.907226562 664 626 664 c 0
 797.842773438 664 912 426.934570312 912 275 c 0
 912 84.9140625 780.470703125 -21 710 -21 c 0
 624.701171875 -21 495.634765625 43.2900390625 325.251953125 176.806640625 c 2
 313.256835938 186.20703125 l 1
 304.047851562 174.063476562 l 2
 215.13671875 56.818359375 103.931640625 0 12 0 c 2
 -5 0 l 2
695 144 m 0
 762.138671875 144 807 197.275390625 807 264 c 0
 807 361.000976562 711.2578125 509 625 509 c 0
 557.997070312 509 485.6875 442.568359375 403.6484375 323.510742188 c 2
 396 312.411132812 l 1
 406.22265625 303.624023438 l 2
 527.740234375 199.1796875 622.708007812 144 695 144 c 0
EndSplineSet
EndChar

StartChar: uniFEE4
Encoding: 65252 65252 239
GlifName: uniF_E_E_4
Width: 1135
GlyphClass: 2
Flags: HW
AnchorPoint: "Anchor-10" 576 956 basechar 0
AnchorPoint: "Anchor-7" 537 -292 basechar 0
LayerCount: 2
Fore
SplineSet
406.129882812 258.705078125 m 2
 517.791015625 161.126953125 607.946289062 110 678 110 c 0
 756.604492188 110 799 155.5234375 799 236 c 0
 799 332.20703125 709.125976562 459 611 459 c 0
 550.43359375 459 483.452148438 394.225585938 403.651367188 278.515625 c 2
 396.05859375 267.505859375 l 1
 406.129882812 258.705078125 l 2
-5 150 m 2
 31 150 l 2
 122.061523438 150 175.111328125 191.129882812 306.758789062 356.686523438 c 0
 467.040039062 559.041992188 531.559570312 603 622 603 c 0
 760.75 603 854.645507812 439.227539062 931.485351562 280.493164062 c 0
 972.087890625 196.165039062 1029.92285156 150 1123 150 c 2
 1140.43261719 150 l 2
 1143.80175781 146.349609375 1150 125.888671875 1150 87 c 2
 1150 62 l 2
 1150 23.3994140625 1143.56640625 3.41015625 1140.44726562 0 c 2
 1123 0 l 2
 1032.44921875 0 966.07421875 34.2626953125 898.970703125 106.229492188 c 2
 885.021484375 121.189453125 l 1
 874.946289062 103.388671875 l 2
 815.817382812 -1.072265625 752.646484375 -50 687 -50 c 0
 601.48828125 -50 476.52734375 11.3701171875 315.208984375 136.83984375 c 2
 303.499023438 145.948242188 l 1
 294.262695312 134.33984375 l 2
 222.604492188 44.283203125 135.263671875 0 32 0 c 2
 -5 0 l 2
 -30.9931640625 0 -45 14.0703125 -45 62 c 2
 -45 87 l 2
 -45 136.053710938 -30.9130859375 150 -5 150 c 2
EndSplineSet
EndChar

StartChar: uniFEEA
Encoding: 65258 65258 245
GlifName: uniF_E_E_A_
Width: 1016
GlyphClass: 2
Flags: HW
AnchorPoint: "Anchor-10" 587 1154 basechar 0
AnchorPoint: "Anchor-7" 445 -253 basechar 0
LayerCount: 2
Fore
SplineSet
504 298 m 0
 551.607421875 298 607.737304688 301.017578125 655.624023438 303.012695312 c 2
 673.549804688 303.759765625 l 1
 669.639648438 321.26953125 l 1
 602.639648438 621.26953125 l 1
 599.084960938 637.184570312 l 1
 583.521484375 632.315429688 l 2
 393.360351562 572.830078125 212 512.776367188 212 407 c 0
 212 315.879882812 343.60546875 298 504 298 c 0
1021.44726562 0 m 2
 990 0 l 2
 848.485351562 0 748.485351562 73.6748046875 694.138671875 227.010742188 c 2
 687.977539062 244.391601562 l 1
 672.21484375 234.822265625 l 1
 507.918945312 135.0703125 l 1
 254.740234375 139.5703125 132.783203125 184.71484375 116.551757812 249.637695312 c 0
 111.143554688 271.2734375 107 314.779296875 107 371 c 0
 107 564.419921875 250.805664062 667.790039062 552.841796875 770.802734375 c 2
 565.577148438 775.146484375 l 1
 562.637695312 788.27734375 l 1
 549.33984375 847.674804688 l 1
 634.155273438 940.971679688 l 2
 640.70703125 948.342773438 646.03515625 952.430664062 648.1015625 953.5234375 c 0
 651.416015625 948.938476562 656.061523438 936.208984375 660.298828125 915.020507812 c 2
 767.291015625 387.05859375 l 2
 797.920898438 233.912109375 872.639648438 150 991 150 c 2
 1021.43261719 150 l 2
 1024.80175781 146.349609375 1031 125.888671875 1031 87 c 2
 1031 62 l 2
 1031 23.3994140625 1024.56640625 3.41015625 1021.44726562 0 c 2
EndSplineSet
EndChar

StartChar: uniFEEB
Encoding: 65259 65259 246
GlifName: uniF_E_E_B_
Width: 1246
GlyphClass: 2
Flags: HW
AnchorPoint: "Anchor-10" 558 1326 basechar 0
AnchorPoint: "Anchor-7" 546 -229 basechar 0
LayerCount: 2
Fore
SplineSet
687 586 m 0
 687 667.31640625 617.411132812 721 526 721 c 0
 383.557617188 721 289 539.544921875 289 473 c 0
 289 377.91015625 440.270507812 327.720703125 521.362304688 307.448242188 c 2
 527.771484375 305.845703125 l 1
 533.280273438 309.4921875 l 2
 608.227539062 359.10546875 687 473.39453125 687 586 c 0
778 604 m 2
 778 472.985351562 742.615234375 375.740234375 653.224609375 283.435546875 c 2
 636.916992188 266.595703125 l 1
 659.0390625 258.84375 l 2
 776.823242188 217.569335938 871.875976562 195.15234375 945.15625 191.0234375 c 2
 954.201171875 190.514648438 l 1
 958.862304688 198.282226562 l 2
 1001.57421875 269.469726562 1025 332.732421875 1025 388 c 0
 1025 496.671875 933.427734375 554.02734375 799.42578125 617.553710938 c 2
 778 627.7109375 l 1
 778 604 l 2
887 59 m 0
 827.770507812 59 706.8359375 86.51171875 526.361328125 141.3515625 c 2
 519.67578125 143.383789062 l 1
 513.819335938 139.572265625 l 2
 369.90234375 45.927734375 221.926757812 0 68 0 c 2
 -5 0 l 2
 -30.9931640625 0 -45 14.0703125 -45 62 c 2
 -45 87 l 2
 -45 136.053710938 -30.9130859375 150 -5 150 c 0
 210.138671875 150 298.115234375 158.815429688 373.094726562 185.891601562 c 2
 411.918945312 199.911132812 l 1
 373.151367188 214.087890625 l 2
 242.3125 261.931640625 178 337.034179688 178 438 c 0
 178 576.737304688 281.9453125 721.079101562 416.731445312 802.145507812 c 2
 442.2734375 817.508789062 l 1
 319 871 l 5
 370.592773438 1014.9609375 l 5
 714.581054688 848.443359375 l 2
 995.205772728 712.598765367 1131 565.5859375 1131 402 c 0
 1131 257.270507812 1022.85449219 59 887 59 c 0
EndSplineSet
EndChar

StartChar: uniFEEC
Encoding: 65260 65260 247
GlifName: uniF_E_E_C_
Width: 918
GlyphClass: 2
Flags: HW
AnchorPoint: "Anchor-7" 508 -743 basechar 0
AnchorPoint: "Anchor-10" 472 1078 basechar 0
LayerCount: 2
Fore
SplineSet
321.5 153.008789062 m 2
 532.6796875 160.047851562 621 220.057617188 621 340 c 0
 621 413.920898438 550.944335938 528.28515625 463.543945312 614.66796875 c 2
 450.35546875 627.704101562 l 1
 440.364257812 612.083007812 l 2
 367.169921875 497.65234375 320.256835938 312.325195312 306.073242188 169.482421875 c 2
 304.380859375 152.4375 l 1
 321.5 153.008789062 l 2
712 381 m 0
 712 150.4765625 567.150390625 23.3701171875 331.452148438 -1.080078125 c 2
 313.512695312 -2.94140625 l 1
 318.612304688 -20.240234375 l 2
 347.841796875 -119.4140625 443.10546875 -255.248046875 550.127929688 -322.298828125 c 2
 572.736328125 -336.463867188 l 1
 573.090820312 -309.787109375 l 2
 577.395507812 14.40625 704.44921875 150 901 150 c 2
 923.432617188 150 l 2
 926.801757812 146.349609375 933 125.888671875 933 87 c 2
 933 62 l 2
 933 23.3994140625 926.56640625 3.41015625 923.447265625 0 c 2
 894 0 l 2
 744.760742188 0 673.890625 -74.0908203125 673.890625 -179.76953125 c 0
 673.890625 -244.844726562 696.140625 -325.282226562 727.463867188 -413.240234375 c 1
 618.201171875 -528.826171875 l 1
 392.279296875 -404.115234375 281.646484375 -223.08984375 216.337890625 -10.59375 c 2
 213.08203125 -0 l 1
 202 0 l 1
 -5 0 l 2
 -30.9931640625 0 -45 14.0703125 -45 62 c 2
 -45 87 l 2
 -45 136.053710938 -30.9130859375 150 -5 150 c 2
 194 150 l 1
 207.7578125 150 l 1
 208.944335938 163.70703125 l 2
 236.241210938 479.134765625 395.811523438 790.322265625 468.96875 791.000976562 c 0
 499.373046875 789.516601562 712 596.82421875 712 381 c 0
EndSplineSet
EndChar

StartChar: uniFEEE
Encoding: 65262 65262 249
GlifName: uniF_E_E_E_
Width: 816
GlyphClass: 2
Flags: HW
AnchorPoint: "Anchor-10" 385 979 basechar 0
AnchorPoint: "Anchor-7" 356 -693 basechar 0
LayerCount: 2
Fore
SplineSet
412 150 m 0
 481.971679688 150 510.16796875 150.000976562 564.27734375 151.002929688 c 2
 580.223632812 151.297851562 l 1
 578.952148438 167.196289062 l 2
 567.165039062 314.533203125 527.096679688 491 385 491 c 0
 286.037109375 491 226 370.563476562 226 263 c 0
 226 155.838867188 323.00390625 150 412 150 c 0
64.9423828125 -431.47265625 m 0
 351.360351562 -351.80078125 522.81640625 -215.971679688 569.596679688 -18.45703125 c 2
 573.967773438 0 l 1
 555 0 l 2
 239.576171875 0 110 27.162109375 110 224 c 0
 110 413.970703125 214.270507812 638 392 638 c 0
 596.760742188 638 689.010742188 417.177734375 693.001953125 164.762695312 c 2
 693.235351562 150 l 1
 708 150 l 1
 821.432617188 150 l 2
 824.801757812 146.349609375 831 125.888671875 831 87 c 2
 831 62 l 2
 831 23.3994140625 824.56640625 3.41015625 821.447265625 0 c 2
 699 0 l 1
 686.217773438 0 l 1
 684.190429688 -12.6201171875 l 2
 640.333984375 -285.501953125 425.073242188 -469.556640625 170.098632812 -535.515625 c 0
 148.47265625 -541.5703125 136.150390625 -538.149414062 125.5234375 -525.397460938 c 2
 75.4765625 -465.340820312 l 2
 68.1181640625 -456.68359375 61.6240234375 -446.216796875 59.7958984375 -439.400390625 c 0
 58.17578125 -433.359375 57.1015625 -433.563476562 64.9423828125 -431.47265625 c 0
EndSplineSet
EndChar

StartChar: uniFEFB
Encoding: 65275 65275 262
GlifName: uniF_E_F_B_
Width: 1197
GlyphClass: 3
Flags: HW
AnchorPoint: "Anchor-9" 205 1379 baselig 1
AnchorPoint: "Anchor-9" 918 1472.84 baselig 0
AnchorPoint: "Anchor-6" 899 -238 baselig 0
AnchorPoint: "Anchor-6" 281 -259 baselig 1
LayerCount: 2
Fore
SplineSet
616.362304688 186.326171875 m 2
 517.133789062 515.765625 351.090820312 838.970703125 122.890625 1150.89648438 c 1
 246 1243 l 2
 247.869140625 1244.40234375 249.348632812 1245.20996094 250.192382812 1245.63378906 c 0
 251.436523438 1244.08007812 251.912109375 1243.32421875 253.1875 1241.19921875 c 0
 433.567382812 949.203125 584.014648438 614.495117188 706.721679688 233.40234375 c 2
 712.34765625 215.930664062 l 1
 728.349609375 224.923828125 l 2
 868.739257812 303.829101562 920 387.794921875 920 549 c 0
 920 684.8203125 901.166992188 923.1171875 864.869140625 1282.17089844 c 1
 992.861328125 1361.22558594 l 2
 1000.19335938 1365.73632812 1005.42285156 1367.38964844 1007.27246094 1367.64355469 c 0
 1008.10253906 1366.07421875 1009.53222656 1361.26171875 1010.02734375 1354.09179688 c 0
 1023.01171875 1106.37597656 1034 890.487304688 1034 629 c 0
 1034 143.54296875 779.418945312 -24.126953125 241.002929688 -25.9873046875 c 1
 156.48046875 100.3203125 l 1
 362.114257812 114.360351562 511.936523438 137.510742188 606.560546875 167.709960938 c 2
 620.618164062 172.196289062 l 1
 616.362304688 186.326171875 l 2
EndSplineSet
LCarets2: 1 0
Ligature2: "'rlig' Required Ligatures in Arabic lookup 16 subtable" uniFEDF uniFE8E
EndChar

StartChar: uniFEFC
Encoding: 65276 65276 263
GlifName: uniF_E_F_C_
Width: 1281
GlyphClass: 3
Flags: HW
AnchorPoint: "Anchor-6" 899 -238 baselig 0
AnchorPoint: "Anchor-6" 281 -259 baselig 1
AnchorPoint: "Anchor-9" 918 1472.84 baselig 0
AnchorPoint: "Anchor-9" 205 1379 baselig 1
LayerCount: 2
Fore
SplineSet
728.563476562 225.046875 m 2
 870.823242188 308.118164062 921 430.16796875 921 613 c 0
 921 702.079101562 902.0234375 920.923828125 864.90625 1280.984375 c 1
 1003.73144531 1363.14550781 l 2
 1005.46777344 1364.20703125 1006.93066406 1364.86230469 1007.52246094 1365.10058594 c 1
 1008.67675781 1362.22753906 1009.734375 1357.1640625 1010.00878906 1349.49023438 c 2
 1038.00878906 526.498046875 l 2
 1045.99804688 287.798828125 1111.78710938 153.232421875 1246.68847656 151.002929688 c 2
 1286.42382812 150.009765625 l 2
 1289.81054688 146.33984375 1296 125.893554688 1296 87 c 2
 1296 62 l 2
 1296 23.3994140625 1289.56640625 3.41015625 1286.44726562 0 c 2
 1247 0 l 2
 1098.43652344 0 1005.52246094 81.09375 965.61328125 253.384765625 c 2
 957.673828125 287.661132812 l 1
 938.439453125 258.200195312 l 2
 817.192382812 72.4794921875 585.349609375 -23.4365234375 240.984375 -25.9599609375 c 1
 156.48046875 100.3203125 l 1
 362.114257812 114.360351562 511.936523438 137.510742188 606.560546875 167.709960938 c 2
 620.618164062 172.196289062 l 1
 616.362304688 186.326171875 l 2
 517.133789062 515.765625 351.090820312 838.970703125 122.890625 1150.89648438 c 1
 246.098632812 1243.07324219 l 2
 248.087890625 1244.62109375 249.473632812 1245.35546875 250.194335938 1245.67773438 c 0
 250.875976562 1245 251.572265625 1244.1484375 252.29296875 1243.02734375 c 0
 431.40234375 950.482421875 583.073242188 615.315429688 706.729492188 233.379882812 c 2
 712.469726562 215.6484375 l 1
 728.563476562 225.046875 l 2
EndSplineSet
LCarets2: 1 0
Ligature2: "'rlig' Required Ligatures in Arabic lookup 16 subtable" uniFEE0 uniFE8E
EndChar

StartChar: arabic_dot
Encoding: 65536 -1 264
GlifName: arabic_dot
Width: 233
GlyphClass: 2
Flags: HW
LayerCount: 2
Fore
SplineSet
116 255.272077939 m 1
 241.272077939 130 l 1
 116 4.72792206136 l 1
 -9.27207793864 130 l 1
 116 255.272077939 l 1
EndSplineSet
EndChar

StartChar: arabic_2dots
Encoding: 65537 -1 265
GlifName: arabic_2dots
Width: 612
GlyphClass: 2
Flags: HW
LayerCount: 2
Fore
SplineSet
456 246.272077939 m 1
 576.272077939 126 l 1
 456 5.72792206136 l 1
 335.727922061 126 l 1
 456 246.272077939 l 1
156 246.272077939 m 1
 276.272077939 126 l 1
 156 5.72792206136 l 1
 35.7279220614 126 l 1
 156 246.272077939 l 1
EndSplineSet
EndChar

StartChar: arabic_3dots
Encoding: 65538 -1 266
GlifName: arabic_3dots
Width: 590
GlyphClass: 2
Flags: HW
LayerCount: 2
Fore
SplineSet
295 438.272077939 m 1
 406.272077939 327 l 1
 295 215.727922061 l 1
 183.727922061 327 l 1
 295 438.272077939 l 1
445 213.272077939 m 1
 556.272077939 102 l 1
 445 -9.27207793864 l 1
 333.727922061 102 l 1
 445 213.272077939 l 1
145 213.272077939 m 1
 256.272077939 102 l 1
 145 -9.27207793864 l 1
 33.7279220614 102 l 1
 145 213.272077939 l 1
EndSplineSet
EndChar

StartChar: arabic_3dots_a
Encoding: 65539 -1 267
GlifName: arabic_3dots_a
Width: 636
GlyphClass: 2
Flags: HW
LayerCount: 2
Fore
SplineSet
318 -197.272077939 m 1
 206.727922061 -86 l 1
 318 25.2720779386 l 1
 429.272077939 -86 l 1
 318 -197.272077939 l 1
468 27.7279220614 m 1
 356.727922061 139 l 1
 468 250.272077939 l 1
 579.272077939 139 l 1
 468 27.7279220614 l 1
168 27.7279220614 m 1
 56.7279220614 139 l 1
 168 250.272077939 l 1
 279.272077939 139 l 1
 168 27.7279220614 l 1
EndSplineSet
EndChar

StartChar: uni066E.fina
Encoding: 65540 -1 268
GlifName: uni066E_.fina
Width: 1942
GlyphClass: 2
Flags: HW
AnchorPoint: "Anchor-10" 1040 1778 basechar 0
AnchorPoint: "Anchor-7" 971 -391 basechar 0
LayerCount: 2
Fore
SplineSet
816 2 m 0
 425.38671875 2 119 87.2275390625 119 430 c 0
 119 507.299804688 136.595703125 605.055664062 177.727539062 693.447265625 c 1
 252.849609375 667.415039062 l 1
 233.42578125 593.934570312 229 546.4609375 229 499 c 0
 229 228.450195312 488.7265625 151 815 151 c 0
 1492.48339844 151 1584.58203125 331.65234375 1604.40332031 510.404296875 c 1
 1690.82324219 500.71875 l 1
 1688.7265625 474.454101562 1688 455.349609375 1688 422 c 0
 1688 245.904296875 1766.00390625 150 1921 150 c 2
 1947.43261719 150 l 2
 1950.80175781 146.349609375 1957 125.888671875 1957 87 c 2
 1957 62 l 2
 1957 23.3994140625 1950.56640625 3.41015625 1947.44726562 0 c 2
 1929 0 l 2
 1749.62304688 0 1647.81152344 71.89453125 1613.5859375 214.500976562 c 2
 1606.19238281 245.306640625 l 1
 1587.04785156 220.064453125 l 2
 1479.27636719 77.95703125 1225.25292969 2 816 2 c 0
EndSplineSet
EndChar

StartChar: uni06A1.fina
Encoding: 65543 -1 269
GlifName: uni06A_1.fina
Width: 1893
GlyphClass: 2
Flags: HW
AnchorPoint: "Anchor-10" 746 1958 basechar 0
AnchorPoint: "Anchor-7" 933 -476 basechar 0
LayerCount: 2
Fore
SplineSet
1465 618 m 0
 1394.75878906 618 1297 529.07421875 1297 423 c 0
 1297 333.6484375 1416.72949219 221 1477 221 c 0
 1544.64648438 221 1638 359.092773438 1638 432 c 0
 1638 523.041992188 1536.95996094 618 1465 618 c 0
1305.15234375 195.884765625 m 2
 1221.96777344 259.9453125 1180 353.247070312 1180 454 c 0
 1180 614.203125 1318.66894531 783 1470 783 c 0
 1616.51660156 783 1756 621.05859375 1756 458 c 0
 1756 349.974609375 1709.109375 262.818359375 1609.96289062 187.971679688 c 2
 1582.82519531 167.486328125 l 1
 1616.25097656 161.25390625 l 2
 1677.60644531 149.814453125 1759.97558594 150 1864 150 c 2
 1898.43261719 150 l 2
 1901.80175781 146.349609375 1908 125.888671875 1908 87 c 2
 1908 62 l 2
 1908 23.3994140625 1901.56640625 3.41015625 1898.44726562 0 c 2
 1870 0 l 2
 1728.2265625 0 1596.63964844 18.7958984375 1473.96777344 95.708984375 c 2
 1466.35058594 100.484375 l 1
 1458.54785156 96.017578125 l 2
 1325.40136719 19.7958984375 1111.76855469 2 817 2 c 0
 426.413085938 2 120 88.2275390625 120 430 c 0
 120 507.299804688 137.595703125 605.055664062 178.727539062 693.447265625 c 1
 253.849609375 667.415039062 l 1
 234.42578125 593.934570312 230 546.4609375 230 499 c 0
 230 210.71484375 522.631835938 151 819 151 c 0
 1020.06933594 151 1178.40625 151.903320312 1298.13867188 169.153320312 c 2
 1333.28710938 174.216796875 l 1
 1305.15234375 195.884765625 l 2
EndSplineSet
EndChar

StartChar: uni06A1.init
Encoding: 65544 -1 270
GlifName: uni06A_1.init
Width: 852
GlyphClass: 2
Flags: HW
AnchorPoint: "Anchor-10" 487 2017 basechar 0
AnchorPoint: "Anchor-7" 425 -389 basechar 0
LayerCount: 2
Fore
SplineSet
-5 150 m 2
 249 150 l 2
 528.801757812 150 621 224.022460938 621 379 c 2
 621 397.08984375 l 1
 603.22265625 393.740234375 l 2
 534.625 380.81640625 479.145507812 373 436.081054688 373 c 0
 251.774414062 374.981445312 155 419.640625 155 571 c 0
 155 804.399414062 271.471679688 992 431 992 c 0
 648.454101562 992 736 733.790039062 736 449 c 0
 736 63.5361328125 540.817382812 0 253 0 c 2
 -5 0 l 2
 -30.9931640625 0 -45 14.0703125 -45 62 c 2
 -45 87 l 2
 -45 136.053710938 -30.9130859375 150 -5 150 c 2
432 521 m 0
 502.27734375 521 562.0703125 530.09375 610.465820312 549.03125 c 2
 620.86328125 553.099609375 l 1
 619.950195312 564.227539062 l 2
 608.970703125 697.974609375 563.760742188 833 428 833 c 0
 332.102539062 833 256 750.048828125 256 627 c 0
 256 542.24609375 352.34765625 521 432 521 c 0
EndSplineSet
EndChar

StartChar: uni06A1.medi
Encoding: 65545 -1 271
GlifName: uni06A_1.medi
Width: 907
GlyphClass: 2
Flags: HW
AnchorPoint: "Anchor-10" 435 1464 basechar 0
AnchorPoint: "Anchor-7" 409 -224 basechar 0
LayerCount: 2
Fore
SplineSet
-5 150 m 2
 28 150 l 2
 154.255859375 150 248.8203125 152.720703125 313.748046875 169.475585938 c 2
 343.48046875 177.1484375 l 1
 319.15234375 195.884765625 l 2
 235.967773438 259.9453125 194 353.247070312 194 454 c 0
 194 614.203125 332.668945312 783 484 783 c 0
 630.516601562 783 770 621.05859375 770 458 c 0
 770 349.974609375 723.109375 262.818359375 623.962890625 187.971679688 c 2
 596.825195312 167.486328125 l 1
 630.250976562 161.25390625 l 2
 691.606445312 149.814453125 773.975585938 150 878 150 c 2
 912.432617188 150 l 2
 915.801757812 146.349609375 922 125.888671875 922 87 c 2
 922 62 l 2
 922 23.3994140625 915.56640625 3.41015625 912.447265625 0 c 2
 884 0 l 2
 742.2265625 0 610.639648438 18.7958984375 487.967773438 95.708984375 c 2
 479.732421875 100.872070312 l 1
 471.655273438 95.46484375 l 2
 357.770507812 19.2197265625 211.262695312 0 28 0 c 2
 -5 0 l 2
 -30.9931640625 0 -45 14.0703125 -45 62 c 2
 -45 87 l 2
 -45 136.053710938 -30.9130859375 150 -5 150 c 2
479 618 m 0
 408.758789062 618 311 529.07421875 311 423 c 0
 311 333.6484375 430.729492188 221 491 221 c 0
 558.646484375 221 652 359.092773438 652 432 c 0
 652 523.041992188 550.959960938 618 479 618 c 0
EndSplineSet
EndChar

StartChar: uni066F.fina
Encoding: 65546 -1 272
GlifName: uni066F_.fina
Width: 1409
GlyphClass: 2
Flags: HW
AnchorPoint: "Anchor-10" 460 739 basechar 0
AnchorPoint: "Anchor-7" 381 -899 basechar 0
LayerCount: 2
Fore
SplineSet
1033 149 m 0
 1069.98632812 149 1098.37109375 149.00390625 1154.53515625 151.009765625 c 2
 1170.04589844 151.563476562 l 1
 1168.96386719 167.046875 l 2
 1159.13964844 307.528320312 1113.68457031 491 981 491 c 0
 840.803710938 491 816 315.162109375 816 263 c 0
 816 152.388671875 913.10546875 149 1033 149 c 0
708 223 m 0
 708 427.856445312 811.881835938 638 990 638 c 0
 1184.24902344 638 1273.00292969 416.693359375 1277.00195312 164.76171875 c 2
 1277.23632812 150 l 1
 1292 150 l 1
 1414.43261719 150 l 2
 1417.80175781 146.349609375 1424 125.888671875 1424 87 c 2
 1424 62 l 2
 1424 23.3994140625 1417.56640625 3.41015625 1414.44726562 0 c 2
 1291 0 l 1
 1277.20117188 0 l 1
 1276.05175781 -13.7509765625 l 2
 1246.6875 -365.153320312 1044.18457031 -539 656 -539 c 0
 327.931640625 -539 117 -368.975585938 117 -50 c 0
 117 79.796875 147.892578125 214.149414062 208.331054688 351.83984375 c 1
 291.33203125 326.940429688 l 1
 255.491210938 205.026367188 238 97.2177734375 238 -2 c 0
 238 -258.318359375 385.213867188 -389 668 -389 c 0
 945.89453125 -389 1152.53320312 -289.5234375 1163.98730469 -14.6240234375 c 2
 1164.64355469 1.123046875 l 1
 1148.8828125 1 l 1
 1020.94140625 0 l 2
 812.877929688 0 708 49.33203125 708 223 c 0
EndSplineSet
EndChar

StartChar: arabic_gaf_bar
Encoding: 65550 -1 273
GlifName: arabic_gaf_bar
Width: 748
GlyphClass: 2
Flags: HW
LayerCount: 2
Fore
SplineSet
723.122070312 2066.51464844 m 6
 707.964926287 1986.9548806 l 1
 51.4229843885 1748.30091062 l 1
 68 1835 l 5
 717.622070312 2076.37304688 l 6
 720.73046875 2077.40917969 723.30078125 2077.63085938 724.03125 2077.59863281 c 4
 724.416992188 2076.00195312 724.416015625 2072.33691406 723.122070312 2066.51464844 c 6
EndSplineSet
EndChar

StartChar: guillemotleft
Encoding: 171 171 283
GlifName: guillemotleft
Width: 922
Flags: HW
LayerCount: 2
Fore
SplineSet
485 440 m 0
 485 520.306640625 526.233398438 680.060546875 696.07421875 873.634765625 c 1
 761.747070312 813.24609375 l 1
 624.293945312 631.938476562 604 510.806640625 604 441 c 0
 604 364.6484375 623.282226562 249.577148438 761.754882812 66.76171875 c 1
 696.073242188 6.3642578125 l 1
 525.115234375 201.174804688 485 359.747070312 485 440 c 0
125 440 m 0
 125 520.306640625 166.233398438 680.060546875 336.07421875 873.634765625 c 1
 401.747070312 813.24609375 l 1
 264.293945312 631.938476562 244 510.806640625 244 441 c 0
 244 364.6484375 263.282226562 249.577148438 401.754882812 66.76171875 c 1
 336.073242188 6.3642578125 l 1
 165.115234375 201.174804688 125 359.747070312 125 440 c 0
EndSplineSet
EndChar

StartChar: guillemotright
Encoding: 187 187 284
GlifName: guillemotright
Width: 922
Flags: HW
LayerCount: 2
Fore
SplineSet
437 440 m 0
 437 359.860351562 395.600585938 199.7109375 225.926757812 6.3642578125 c 1
 160.245117188 66.76171875 l 1
 299.983398438 251.248046875 318 364.422851562 318 441 c 0
 318 510.583007812 296.427734375 633.625 160.252929688 813.24609375 c 1
 225.92578125 873.634765625 l 1
 397.05078125 678.595703125 437 520.420898438 437 440 c 0
797 440 m 0
 797 359.860351562 755.600585938 199.7109375 585.926757812 6.3642578125 c 1
 520.245117188 66.76171875 l 1
 659.983398438 251.248046875 678 364.422851562 678 441 c 0
 678 510.583007812 656.427734375 633.625 520.252929688 813.24609375 c 1
 585.92578125 873.634765625 l 1
 757.05078125 678.595703125 797 520.420898438 797 440 c 0
EndSplineSet
EndChar

StartChar: NameMe.304
Encoding: 65562 -1 293
GlifName: N_ameM_e.302
Width: 570
Flags: HW
LayerCount: 2
Fore
SplineSet
-5 150 m 2
 30 150 l 2
 228.692382812 150 244 253.650390625 244 419 c 0
 244 553.23828125 220.051757812 908.8125 209.640625 1048.99414062 c 1
 338.779296875 1128.17480469 l 2
 344.6015625 1131.66796875 349.131835938 1133.19238281 350.966796875 1133.51757812 c 0
 351.875 1131.41210938 353 1126.19042969 353 1118 c 2
 353 418 l 2
 353 245.809570312 409.822265625 150 563 150 c 2
 575.725585938 150 l 2
 578.561523438 147.1875 585 128.333984375 585 89 c 2
 585 64 l 2
 585 25.3994140625 578.56640625 5.41015625 575.447265625 2 c 2
 574.514648438 2 l 1
 573.05859375 1.708984375 l 1
 564.5234375 0.001953125 l 1
 437.0234375 0.537109375 363.905273438 46.0224609375 297.305664062 141.577148438 c 2
 285 159.233398438 l 1
 272.694335938 141.577148438 l 2
 204.86328125 44.25390625 151.845703125 0 27 0 c 2
 -5 0 l 2
 -30.9931640625 0 -45 14.0703125 -45 62 c 2
 -45 87 l 2
 -45 136.053710938 -30.9130859375 150 -5 150 c 2
EndSplineSet
EndChar

StartChar: NameMe.303
Encoding: 65563 -1 294
GlifName: N_ameM_e.303
Width: 526
Flags: HW
AnchorPoint: "Anchor-10" 225 1371 basechar 0
AnchorPoint: "Anchor-7" 211 -275 basechar 0
LayerCount: 2
Fore
SplineSet
-5 150 m 2
 17 150 l 2
 178.393554688 150 252 191.436523438 252 352 c 0
 252 569.180664062 251.709960938 634.952148438 197.852539062 1183.06738281 c 1
 321.7109375 1258.13378906 l 2
 330.677734375 1263.44726562 336.774414062 1264.6484375 337.823242188 1264.6328125 c 0
 338.609375 1263.44921875 340.463867188 1258.54492188 341.025390625 1250.12402344 c 0
 348.990234375 1091.81933594 366 601.180664062 366 452 c 0
 366 123.817382812 323.389648438 0 11 0 c 2
 -5 0 l 2
 -30.9931640625 0 -45 14.0703125 -45 62 c 2
 -45 87 l 2
 -45 136.053710938 -30.9130859375 150 -5 150 c 2
EndSplineSet
EndChar

StartChar: uniFDFC
Encoding: 65020 65020 296
GlifName: uniF_D_F_C_
Width: 2485
Flags: HW
LayerCount: 2
Fore
SplineSet
2229.73925781 593.516601562 m 1
 2310.10644531 469.66015625 2346.46972656 353.513671875 2346.46972656 230.799804688 c 0
 2346.46972656 -222.11328125 1897.26074219 -368.01953125 1835.0703125 -368.01953125 c 0
 1826.83007812 -368.01953125 1812.99707031 -361.11328125 1800.640625 -346.286132812 c 2
 1764.28515625 -300.609375 l 2
 1754.25390625 -286.74609375 1748.86621094 -274.418945312 1749.015625 -271.483398438 c 0
 1749.57226562 -271.075195312 1750.71875 -270.38671875 1753.44824219 -269.659179688 c 0
 2032.78710938 -192.959960938 2235.46972656 -35.5478515625 2235.46972656 188.5 c 0
 2235.46972656 275.71484375 2199.87597656 368.903320312 2131.05761719 468.990234375 c 1
 2229.73925781 593.516601562 l 1
1770.39550781 162.391601562 m 1
 1881.78710938 51 l 1
 1770.39550781 -60.3916015625 l 1
 1659.00390625 51 l 1
 1770.39550781 162.391601562 l 1
1478.43457031 162.391601562 m 1
 1589.82617188 51 l 1
 1478.43457031 -60.3916015625 l 1
 1367.04296875 51 l 1
 1478.43457031 162.391601562 l 1
1268 789 m 0
 1268 1021.20703125 1258.69726562 1178.1953125 1241.7734375 1260.46875 c 1
 1365.55566406 1347.67871094 l 2
 1367.61035156 1349.08496094 1369.71679688 1349.95605469 1370.20410156 1350.10449219 c 0
 1371.76464844 1347.86328125 1374.609375 1339.86035156 1375.0078125 1325.51269531 c 0
 1380.99414062 1164.88671875 1381 887.999023438 1381 723 c 0
 1381 551.5 1427.05273438 491 1596 491 c 2
 1647 491 l 2
 1746.09667969 491 1828 519.01171875 1828 605 c 0
 1828 664.528320312 1805.23632812 747.508789062 1771.35058594 833.024414062 c 1
 1866.21972656 941.043945312 l 2
 1871.45214844 946.880859375 1875.58203125 949.338867188 1877.20898438 949.892578125 c 0
 1877.48925781 949.98828125 1886.0625 950.045898438 1897.65722656 913.60546875 c 0
 1925.25488281 819.970703125 1939 736.020507812 1939 664 c 0
 1939 451.923828125 1829.33203125 341 1628 341 c 2
 1544 341 l 2
 1303.48925781 341 1268 510.953125 1268 789 c 0
1015 327 m 0
 1015 -42.568359375 911.3671875 -216 576 -216 c 0
 299.370117188 -216 126 -67.3837890625 126 203 c 0
 126 312.071289062 145.265625 410.685546875 182.25 497.481445312 c 1
 255.525390625 473.30078125 l 1
 237.490234375 408.428710938 229 335.950195312 229 252 c 0
 229 46.97265625 372.90234375 -69 579 -69 c 0
 790.451171875 -69 906 19.32421875 906 196 c 0
 906 434.817382812 873.791992188 1033.89941406 839.252929688 1257.2890625 c 1
 953.797851562 1340.85058594 l 2
 961.779296875 1346.63085938 967.600585938 1348.54785156 969.861328125 1348.69042969 c 2
 969.861328125 1348.69042969 977.610351562 1350.34765625 979.015625 1317.31933594 c 0
 994.010742188 987.426757812 1015 515.198242188 1015 327 c 0
EndSplineSet
EndChar

StartChar: NameMe.306
Encoding: 65564 -1 297
GlifName: N_ameM_e.65564
Width: 511
Flags: HW
LayerCount: 2
Fore
SplineSet
273 537 m 0
 273 250.010742188 289.676757812 150 488 150 c 2
 516.432617188 150 l 2
 519.801757812 146.349609375 526 125.888671875 526 87 c 2
 526 62 l 2
 526 23.3994140625 519.56640625 3.41015625 516.447265625 0 c 2
 483 0 l 2
 182.053710938 0 155 212.844726562 155 568 c 0
 155 873.100585938 143.334960938 968.369140625 125.819335938 1146.4609375 c 1
 250.3203125 1228.51953125 l 2
 256.048497653 1232.33682613 256.32206609 1222.02396689 257.036132812 1210.95703125 c 4
 267.9609375 1064.95703125 273 802.739257812 273 537 c 0
EndSplineSet
EndChar

StartChar: NameMe.65567
Encoding: 65565 -1 298
GlifName: N_ameM_e.65565
Width: 678
Flags: HW
LayerCount: 2
Fore
SplineSet
111.239968015 -45.3404645843 m 1
 150.97900671 -63.4903543854 196.500753198 -71.5 248 -71.5 c 0
 424.887641941 -71.5 491.5 8.14655058724 491.5 37 c 0
 491.5 64.5952895013 449.35996916 80.0024673819 353.060408459 108.211429607 c 0
 313.687339451 119.460877895 296.5 142.104551865 296.5 180 c 0
 296.5 294.993123299 414.905691073 437.5 549 437.5 c 0
 571.355787208 437.5 593.672936313 434.140361348 617.775668553 427.556107552 c 1
 614.469356474 402.258490087 608.266305592 368.737058961 598.217451503 325.218897869 c 1
 584.274261176 326.566011935 572.787432915 326.5 559 326.5 c 0
 478.060864266 326.5 405.480535311 277.022250212 378.156180066 216.067919281 c 2
 374.766167419 208.505583376 l 1
 382.628291755 205.884875265 l 1
 511.628291755 162.884875265 l 2
 547.391223875 150.963897891 566.5 123.612602624 566.5 77 c 0
 566.5 -78.9718963342 416.134139432 -167.5 248 -167.5 c 0
 183.682008929 -167.5 126.91652769 -157.424641637 77.5313532363 -138.687397817 c 1
 111.239968015 -45.3404645843 l 1
EndSplineSet
EndChar

StartChar: uni060D
Encoding: 1549 1549 299
Width: 828
VWidth: 4036
Flags: HW
LayerCount: 2
Fore
SplineSet
734.765625 1389.12011719 m 1
 188.484375 -207.475585938 l 1
 74.234375 -173.120117188 l 1
 620.515625 1423.47558594 l 1
 734.765625 1389.12011719 l 1
EndSplineSet
EndChar

StartChar: NameMe.65541
Encoding: 65541 -1 300
Width: 576
Flags: HW
AnchorPoint: "Anchor-10" 323 1287 basechar 0
AnchorPoint: "Anchor-7" 351 -275 basechar 0
LayerCount: 2
Fore
SplineSet
-5 0 m 2
 -30.9931640625 0 -45 14.0703125 -45 62 c 2
 -45 87 l 2
 -45 136.053710938 -30.9130859375 150 -5 150 c 2
 118 150 l 2
 285.991210938 150 338 201.852539062 338 321 c 0
 338 383.5390625 314.202148438 468.104492188 268.073242188 597.79296875 c 1
 371.725585938 717.319335938 l 1
 375.20703125 713.329101562 378.862304688 707.446289062 383.451171875 697.5625 c 0
 434.731445312 592.041992188 460 489.892578125 460 369 c 0
 460 132.252929688 341.565429688 0 121 0 c 2
 -5 0 l 2
EndSplineSet
EndChar

StartChar: NameMe.65542
Encoding: 65542 -1 301
Width: 688
Flags: HW
AnchorPoint: "Anchor-10" 392 1144 basechar 0
AnchorPoint: "Anchor-7" 351 -234 basechar 0
LayerCount: 2
Fore
SplineSet
-5 0 m 2
 -30.9931640625 0 -45 14.0703125 -45 62 c 2
 -45 87 l 2
 -45 136.053710938 -30.9130859375 150 -5 150 c 2
 105 150 l 2
 247.489257812 150 333.08203125 204.83984375 342.936523438 317.622070312 c 2
 360.6796875 510 l 1
 448.379882812 510 l 1
 467.071289062 316.536132812 l 2
 477.762695312 207.482421875 537.567382812 150 674 150 c 2
 693.432617188 150 l 2
 696.801757812 146.349609375 703 125.888671875 703 87 c 2
 703 62 l 2
 703 23.3994140625 696.56640625 3.41015625 693.447265625 0 c 2
 676 0 l 2
 539.42578125 0 468.89453125 40.419921875 416.678710938 123.015625 c 2
 404.842773438 141.73828125 l 1
 391.850585938 123.797851562 l 2
 332.161132812 41.369140625 239.759765625 0 110 0 c 2
 -5 0 l 2
EndSplineSet
EndChar

StartChar: uniFBFD.compact
Encoding: 65575 -1 321
Width: 1351
Flags: HW
AnchorPoint: "Anchor-7" 698.902 -713.086 basechar 0
AnchorPoint: "Anchor-10" 681.6 638.22 basechar 0
LayerCount: 2
Fore
SplineSet
672 -389 m 0
 1053.0703125 -389 1178 -224.73828125 1178 -158 c 0
 1178 -43.177734375 1021.99414062 -5.7841796875 879.24609375 5.9482421875 c 0
 867.7265625 6.908203125 859.278320312 8.3681640625 853.762695312 9.9970703125 c 0
 841.682617188 13.5654296875 843.143554688 11.810546875 847.322265625 25.5400390625 c 2
 886.96484375 150 l 1
 1356.43261719 150 l 2
 1359.80175781 146.349609375 1366 125.888671875 1366 87 c 2
 1366 62 l 2
 1366 23.400390625 1359.5625 3.4052734375 1356.453125 0.005859375 c 2
 1251.14160156 -0.0009765625 l 1
 1203.17871094 0.4521484375 l 1
 1242.33789062 -26.24609375 l 2
 1278.51464844 -51.8349609375 1297 -90.763671875 1297 -159 c 0
 1297 -281.165039062 1119.00976562 -539 667 -539 c 0
 336.736328125 -539 122 -370.798828125 122 -50 c 0
 122 79.796875 152.892578125 214.149414062 213.331054688 351.83984375 c 1
 296.33203125 326.940429688 l 1
 260.491210938 205.026367188 243 97.2177734375 243 -2 c 0
 243 -258.301757812 390.186523438 -389 672 -389 c 0
EndSplineSet
EndChar

StartChar: uniFD3E
Encoding: 64830 64830 326
Width: 1466
Flags: HW
LayerCount: 2
Fore
SplineSet
686 643 m 0
 686 591.390625 729.850585938 548 783 548 c 0
 837.595703125 548 880 592.254882812 880 648 c 0
 880 700.3515625 832.655273438 742 782 742 c 0
 724.624023438 742 686 693.155273438 686 643 c 0
708.323242188 168.897460938 m 0
 754.060546875 -36.41015625 855.8984375 -203.53125 1012.63867188 -328.720703125 c 2
 1069.97363281 -374.513671875 l 1
 1035.20996094 -309.893554688 l 2
 951.016601562 -153.393554688 896.532226562 10.1083984375 869.822265625 176.302734375 c 0
 867.448242188 192.133789062 870.485351562 201.272460938 881.670898438 212.45703125 c 2
 922.670898438 254.45703125 l 2
 930.895507812 262.682617188 940.911132812 267 953 267 c 2
 1143 267 l 1
 1158 267 l 1
 1158 282 l 1
 1158 1012 l 1
 1158 1027 l 1
 1143 1027 l 1
 953 1027 l 2
 940.908203125 1027 930.901367188 1031.3125 922.666015625 1039.546875 c 2
 878.725585938 1084.48632812 l 1
 878.471679688 1084.74511719 l 1
 878.20703125 1084.9921875 l 2
 868.022460938 1094.44921875 864.463867188 1105.76367188 866.813476562 1120.64160156 c 0
 898.5703125 1320.11523438 959.041015625 1501.41699219 1048.16796875 1664.81738281 c 2
 1082.71484375 1728.15234375 l 1
 1025.78613281 1683.83691406 l 2
 855.586914062 1551.34570312 745.857421875 1361.87207031 698.236328125 1115.65722656 c 0
 696.763671875 1106.82128906 692.696289062 1099.91015625 686.393554688 1093.60644531 c 2
 632.393554688 1039.60644531 l 2
 623.743164062 1030.95605469 614.978515625 1027 603 1027 c 2
 412 1027 l 1
 397 1027 l 1
 397 1012 l 1
 397 822 l 2
 397 809.296875 393.608398438 800.821289062 385.393554688 792.606445312 c 2
 250.393554688 657.606445312 l 1
 239.787109375 647 l 1
 250.393554688 636.393554688 l 1
 385.393554688 501.393554688 l 2
 393.608398438 493.178710938 397 484.703125 397 472 c 2
 397 282 l 1
 397 267 l 1
 412 267 l 1
 603 267 l 2
 614.979492188 267 623.743164062 263.043945312 632.393554688 254.393554688 c 2
 697.393554688 189.393554688 l 2
 703.178710938 183.608398438 706.873046875 176.151367188 708.323242188 168.897460938 c 0
947 639 m 0
 947 549.9140625 867.02734375 474 777 474 c 0
 680.692382812 474 607 551.677734375 607 650 c 0
 607 739.0859375 686.97265625 815 777 815 c 0
 873.307617188 815 947 737.322265625 947 639 c 0
1253.54101562 1795.00585938 m 1
 1104.44140625 1656.9921875 1006.12402344 1436.00195312 954.21875 1135.55371094 c 2
 952.895507812 1127.89160156 l 1
 958.393554688 1122.39355469 l 1
 965.393554688 1115.39355469 l 1
 969.787109375 1111 l 1
 976 1111 l 1
 1200 1111 l 2
 1229.97851562 1111 1242 1096.15722656 1242 1069 c 2
 1242 225.197265625 l 2
 1241.18457031 194.204101562 1229.71289062 183 1200 183 c 2
 976 183 l 1
 969.787109375 183 l 1
 965.393554688 178.606445312 l 1
 961.393554688 174.606445312 l 1
 955.798828125 169.01171875 l 1
 957.256835938 161.235351562 l 2
 1011.59765625 -128.581054688 1111.53613281 -330.329101562 1254.42480469 -448.545898438 c 0
 1259.97753906 -453.151367188 1263.43652344 -457.314453125 1265.37402344 -460.708984375 c 0
 1272.71484375 -473.560546875 1261.93847656 -492.938476562 1211.33398438 -520.848632812 c 1
 904.409179688 -428.01171875 712.068359375 -211.08203125 630.59765625 133.452148438 c 2
 629.642578125 137.490234375 l 1
 626.747070312 140.463867188 l 1
 589.747070312 178.463867188 l 1
 585.331054688 183 l 1
 579 183 l 1
 354 183 l 2
 335.682617188 183 313 200.293945312 313 225 c 2
 313 448 l 1
 313 454.185546875 l 1
 308.639648438 458.573242188 l 1
 150.606445312 617.606445312 l 2
 142.4921875 625.720703125 138 636.958007812 138 648 c 0
 138 658.192382812 141.055664062 666.842773438 150.639648438 676.426757812 c 2
 308.639648438 835.426757812 l 1
 313 839.814453125 l 1
 313 846 l 1
 313 1069 l 2
 313 1093.71679688 339.034179688 1111 355 1111 c 2
 579 1111 l 1
 585.212890625 1111 l 1
 589.606445312 1115.39355469 l 1
 614.606445312 1140.39355469 l 1
 617.821289062 1143.60742188 l 1
 618.709960938 1148.06542969 l 2
 695.913085938 1535.07226562 896.048828125 1773.33496094 1217.265625 1868.61914062 c 2
 1217.84375 1868.79101562 l 1
 1218.40625 1869.0078125 l 2
 1224.77734375 1871.46972656 1229.56640625 1871.61328125 1233.39453125 1870.75292969 c 0
 1247.80175781 1867.51367188 1263.56152344 1838.69921875 1253.54101562 1795.00585938 c 1
EndSplineSet
EndChar

StartChar: uniFD3F
Encoding: 64831 64831 327
Width: 1466
Flags: HW
LayerCount: 2
Fore
SplineSet
212.458984375 1795.00585938 m 1
 207.299804688 1817.50195312 208.724609375 1836.75683594 213.912109375 1850.55761719 c 0
 220.954101562 1869.29101562 231.580078125 1875.1953125 247.59375 1869.0078125 c 2
 248.15625 1868.79101562 l 1
 248.734375 1868.61914062 l 2
 569.951171875 1773.33496094 770.086914062 1535.07226562 847.290039062 1148.06542969 c 2
 848.178710938 1143.60742188 l 1
 851.393554688 1140.39355469 l 1
 876.393554688 1115.39355469 l 1
 880.787109375 1111 l 1
 887 1111 l 1
 1111 1111 l 2
 1126.94335938 1111 1153 1093.71386719 1153 1069 c 2
 1153 846 l 1
 1153 839.814453125 l 1
 1157.36035156 835.426757812 l 1
 1315.39355469 676.393554688 l 2
 1324.91210938 666.875 1328 658.178710938 1328 648 c 0
 1328 636.944335938 1323.54003906 625.75390625 1315.36035156 617.573242188 c 2
 1157.36035156 458.573242188 l 1
 1153 454.185546875 l 1
 1153 448 l 1
 1153 225 l 2
 1153 200.291015625 1130.328125 183 1112 183 c 2
 887 183 l 1
 880.668945312 183 l 1
 876.252929688 178.463867188 l 1
 839.252929688 140.463867188 l 1
 836.357421875 137.490234375 l 1
 835.40234375 133.452148438 l 2
 753.8359375 -211.48828125 560.385742188 -428.375976562 254.666015625 -520.848632812 c 1
 230.875976562 -507.727539062 214.74609375 -495.946289062 205.76171875 -485.19140625 c 0
 194.494140625 -471.701171875 193.250976562 -463.7421875 211.561523438 -448.557617188 c 0
 354.4765625 -330.318359375 454.401367188 -128.586914062 508.743164062 161.235351562 c 2
 510.201171875 169.01171875 l 1
 504.606445312 174.606445312 l 1
 500.606445312 178.606445312 l 1
 496.212890625 183 l 1
 490 183 l 1
 266 183 l 2
 236.259765625 183 224.815429688 194.212890625 224 225.197265625 c 2
 224 1069 l 2
 224 1096.17285156 236.045898438 1111 266 1111 c 2
 490 1111 l 1
 496.212890625 1111 l 1
 500.606445312 1115.39355469 l 1
 507.606445312 1122.39355469 l 1
 513.104492188 1127.89160156 l 1
 511.78125 1135.55371094 l 2
 459.825195312 1436.296875 360.57421875 1657.90332031 212.458984375 1795.00585938 c 1
519 639 m 0
 519 737.322265625 592.692382812 815 689 815 c 0
 779.02734375 815 859 739.0859375 859 650 c 0
 859 551.677734375 785.307617188 474 689 474 c 0
 598.97265625 474 519 549.9140625 519 639 c 0
757.676757812 168.897460938 m 0
 759.184570312 176.435546875 762.776367188 183.5625 768.606445312 189.393554688 c 2
 833.606445312 254.393554688 l 2
 842.256835938 263.043945312 851.021484375 267 863 267 c 2
 1054 267 l 1
 1069 267 l 1
 1069 282 l 1
 1069 472 l 2
 1069 484.703125 1072.39160156 493.178710938 1080.60644531 501.393554688 c 2
 1215.60644531 636.393554688 l 1
 1226.21289062 647 l 1
 1215.60644531 657.606445312 l 1
 1080.60644531 792.606445312 l 2
 1072.39160156 800.821289062 1069 809.296875 1069 822 c 2
 1069 1012 l 1
 1069 1027 l 1
 1054 1027 l 1
 863 1027 l 2
 851.020507812 1027 842.256835938 1030.95605469 833.606445312 1039.60644531 c 2
 779.606445312 1093.60644531 l 2
 773.303710938 1099.91015625 769.236328125 1106.82128906 767.763671875 1115.65722656 c 0
 720.142578125 1361.87207031 610.413085938 1551.34570312 440.213867188 1683.83691406 c 2
 383.28515625 1728.15234375 l 1
 417.83203125 1664.81738281 l 2
 506.954101562 1501.42578125 567.43359375 1320.09277344 599.18359375 1120.66015625 c 0
 601.538085938 1105.74707031 597.977539062 1094.44921875 587.79296875 1084.9921875 c 2
 587.528320312 1084.74511719 l 1
 587.274414062 1084.48632812 l 1
 543.333984375 1039.546875 l 2
 535.099609375 1031.3125 525.090820312 1027 513 1027 c 2
 323 1027 l 1
 308 1027 l 1
 308 1012 l 1
 308 282 l 1
 308 267 l 1
 323 267 l 1
 513 267 l 2
 525.08984375 267 535.103515625 262.68359375 543.329101562 254.45703125 c 2
 584.329101562 212.45703125 l 2
 595.522460938 201.263671875 598.552734375 192.138671875 596.177734375 176.302734375 c 0
 569.467773438 10.109375 514.983398438 -153.393554688 430.790039062 -309.893554688 c 2
 396.026367188 -374.513671875 l 1
 453.361328125 -328.720703125 l 2
 610.057617188 -203.56640625 712 -36.140625 757.676757812 168.897460938 c 0
788 643 m 0
 788 693.158203125 749.381835938 742 692 742 c 0
 641.344726562 742 594 700.3515625 594 648 c 0
 594 592.2578125 636.397460938 548 691 548 c 0
 744.150390625 548 788 591.391601562 788 643 c 0
EndSplineSet
EndChar
